<svg width="2066" height="1498" viewBox="0 0 2066 1498" fill="none" xmlns="http://www.w3.org/2000/svg">
<g clip-path="url(#clip0)">
<g filter="url(#filter0_d)">
<path d="M1056.35 438.954C1086.98 420.349 1125.38 420.349 1156.01 438.954L1228.86 483.207C1257.62 500.674 1275.18 531.926 1275.18 565.627L1275.18 662.373C1275.18 696.074 1257.62 727.326 1228.86 744.793L1156.01 789.046C1125.38 807.651 1086.98 807.651 1056.35 789.046L983.496 744.793C954.742 727.326 937.179 696.074 937.179 662.373L937.179 565.627C937.179 531.926 954.742 500.674 983.496 483.207L1056.35 438.954Z" fill="white"/>
</g>
<path d="M1077.28 512.121C1095.04 501.293 1117.31 501.293 1135.08 512.121L1177.32 537.877C1193.99 548.043 1204.18 566.232 1204.18 585.846L1204.18 642.154C1204.18 661.768 1193.99 679.957 1177.32 690.123L1135.08 715.879C1117.31 726.707 1095.04 726.707 1077.28 715.879L1035.04 690.123C1018.36 679.957 1008.18 661.768 1008.18 642.154L1008.18 585.846C1008.18 566.232 1018.36 548.043 1035.04 537.877L1077.28 512.121Z" fill="#FFF2EC"/>
<g filter="url(#filter1_f)">
<path d="M854.782 542.549C833.359 579.537 840.424 622.57 847.949 639.093C866.482 690.54 898.659 711.982 950.476 735.548C1002.29 759.114 1118.33 746.585 1138.38 742.707C1186.91 733.321 1254.81 755.086 1303.51 727.127C1330.88 711.413 1364.54 675.036 1375.97 618.649C1387.4 562.263 1354.58 524.744 1336.1 507.985C1317.62 491.225 1251.83 480.657 1223.15 462.972C1194.47 445.287 1126.03 387.969 1053.97 382.148C962.357 374.749 907.559 444.925 891.709 472.379C882.24 488.78 876.01 505.9 854.782 542.549Z" fill="url(#paint0_linear)"/>
<path d="M854.782 542.549C833.359 579.537 840.424 622.57 847.949 639.093C866.482 690.54 898.659 711.982 950.476 735.548C1002.29 759.114 1118.33 746.585 1138.38 742.707C1186.91 733.321 1254.81 755.086 1303.51 727.127C1330.88 711.413 1364.54 675.036 1375.97 618.649C1387.4 562.263 1354.58 524.744 1336.1 507.985C1317.62 491.225 1251.83 480.657 1223.15 462.972C1194.47 445.287 1126.03 387.969 1053.97 382.148C962.357 374.749 907.559 444.925 891.709 472.379C882.24 488.78 876.01 505.9 854.782 542.549Z" fill="url(#paint1_linear)"/>
<path d="M854.782 542.549C833.359 579.537 840.424 622.57 847.949 639.093C866.482 690.54 898.659 711.982 950.476 735.548C1002.29 759.114 1118.33 746.585 1138.38 742.707C1186.91 733.321 1254.81 755.086 1303.51 727.127C1330.88 711.413 1364.54 675.036 1375.97 618.649C1387.4 562.263 1354.58 524.744 1336.1 507.985C1317.62 491.225 1251.83 480.657 1223.15 462.972C1194.47 445.287 1126.03 387.969 1053.97 382.148C962.357 374.749 907.559 444.925 891.709 472.379C882.24 488.78 876.01 505.9 854.782 542.549Z" fill="url(#paint2_linear)"/>
<path d="M854.782 542.549C833.359 579.537 840.424 622.57 847.949 639.093C866.482 690.54 898.659 711.982 950.476 735.548C1002.29 759.114 1118.33 746.585 1138.38 742.707C1186.91 733.321 1254.81 755.086 1303.51 727.127C1330.88 711.413 1364.54 675.036 1375.97 618.649C1387.4 562.263 1354.58 524.744 1336.1 507.985C1317.62 491.225 1251.83 480.657 1223.15 462.972C1194.47 445.287 1126.03 387.969 1053.97 382.148C962.357 374.749 907.559 444.925 891.709 472.379C882.24 488.78 876.01 505.9 854.782 542.549Z" fill="url(#paint3_radial)"/>
<path d="M854.782 542.549C833.359 579.537 840.424 622.57 847.949 639.093C866.482 690.54 898.659 711.982 950.476 735.548C1002.29 759.114 1118.33 746.585 1138.38 742.707C1186.91 733.321 1254.81 755.086 1303.51 727.127C1330.88 711.413 1364.54 675.036 1375.97 618.649C1387.4 562.263 1354.58 524.744 1336.1 507.985C1317.62 491.225 1251.83 480.657 1223.15 462.972C1194.47 445.287 1126.03 387.969 1053.97 382.148C962.357 374.749 907.559 444.925 891.709 472.379C882.24 488.78 876.01 505.9 854.782 542.549Z" fill="url(#paint4_radial)"/>
<path d="M854.782 542.549C833.359 579.537 840.424 622.57 847.949 639.093C866.482 690.54 898.659 711.982 950.476 735.548C1002.29 759.114 1118.33 746.585 1138.38 742.707C1186.91 733.321 1254.81 755.086 1303.51 727.127C1330.88 711.413 1364.54 675.036 1375.97 618.649C1387.4 562.263 1354.58 524.744 1336.1 507.985C1317.62 491.225 1251.83 480.657 1223.15 462.972C1194.47 445.287 1126.03 387.969 1053.97 382.148C962.357 374.749 907.559 444.925 891.709 472.379C882.24 488.78 876.01 505.9 854.782 542.549Z" fill="url(#paint5_radial)"/>
</g>
<path d="M960.755 489.603C923.853 479.543 892.42 493.287 869.983 514.759C851.395 532.548 820.687 583.366 846.554 644.331C878.887 720.538 977.253 762.456 1104.58 743.507C1232.6 724.455 1293.43 766.437 1347.69 689.207C1429.44 572.862 1326.58 497.586 1306.33 495.564C1286.08 493.541 1218.86 515.095 1158.01 527.252C1102.49 538.345 988.8 497.248 960.755 489.603Z" stroke="url(#paint6_radial)" stroke-width="1.66979"/>
<path opacity="0.4" d="M960.755 489.603C923.853 479.543 892.42 493.287 869.983 514.759C851.396 532.548 820.687 583.366 846.554 644.331C878.887 720.538 982.902 758.956 1109.24 734.284C1230.29 710.645 1276.57 751.657 1330.83 674.426C1412.58 558.081 1323.7 509.276 1303.44 507.253C1283.19 505.231 1218.86 515.095 1158.01 527.252C1102.49 538.345 988.8 497.248 960.755 489.603Z" stroke="#FFAB8B" stroke-opacity="0.5" stroke-width="0.834895"/>
<g opacity="0.3" filter="url(#filter2_f)">
<path d="M960.755 489.603C923.853 479.543 892.42 493.287 869.983 514.759C851.396 532.548 820.687 583.366 846.554 644.331C878.887 720.538 982.902 758.956 1109.24 734.284C1230.29 710.645 1276.57 751.657 1330.83 674.426C1412.58 558.081 1323.7 509.276 1303.44 507.253C1283.19 505.231 1218.86 515.095 1158.01 527.252C1102.49 538.345 988.8 497.248 960.755 489.603Z" stroke="#FFDA69" stroke-width="8.34895"/>
</g>
<g opacity="0.35" filter="url(#filter3_f)">
<path d="M946.956 492.254C913.813 484.334 885.157 496.715 864.48 515.55C847.351 531.154 824.716 571.985 846.92 623.756C874.674 688.47 956.12 690.083 1070.72 666.524C1180.51 643.952 1221.03 671.238 1265.13 618.753C1326.46 545.744 1274.43 502.201 1256.18 500.853C1237.92 499.506 1179.62 509.188 1124.42 520.77C1074.06 531.338 972.144 498.274 946.956 492.254Z" stroke="url(#paint7_linear)" stroke-width="0.834895"/>
</g>
<g opacity="0.6" filter="url(#filter4_bf)">
<path d="M1005.68 386.452C917.465 402.561 866.643 494.813 850.854 542.949C867.642 510.722 894.242 481.975 948.705 488.176C989.884 492.865 1069.56 530.525 1121.23 529.852C1181.3 529.07 1272.9 500.064 1287.75 496.935C1299.62 494.431 1311.83 497.281 1316.45 499.018C1302.62 493.056 1269.08 479.346 1245.56 472.199C1202.21 459.026 1123.09 365.014 1005.68 386.452Z" fill="url(#paint8_radial)" fill-opacity="0.8"/>
<path d="M1005.68 386.452C917.465 402.561 866.643 494.813 850.854 542.949C867.642 510.722 894.242 481.975 948.705 488.176C989.884 492.865 1069.56 530.525 1121.23 529.852C1181.3 529.07 1272.9 500.064 1287.75 496.935C1299.62 494.431 1311.83 497.281 1316.45 499.018C1302.62 493.056 1269.08 479.346 1245.56 472.199C1202.21 459.026 1123.09 365.014 1005.68 386.452Z" fill="url(#paint9_radial)" fill-opacity="0.8"/>
<path d="M1005.68 386.452C917.465 402.561 866.643 494.813 850.854 542.949C867.642 510.722 894.242 481.975 948.705 488.176C989.884 492.865 1069.56 530.525 1121.23 529.852C1181.3 529.07 1272.9 500.064 1287.75 496.935C1299.62 494.431 1311.83 497.281 1316.45 499.018C1302.62 493.056 1269.08 479.346 1245.56 472.199C1202.21 459.026 1123.09 365.014 1005.68 386.452Z" fill="#FFDA92" fill-opacity="0.1"/>
<path d="M1005.68 386.452C917.465 402.561 866.643 494.813 850.854 542.949C867.642 510.722 894.242 481.975 948.705 488.176C989.884 492.865 1069.56 530.525 1121.23 529.852C1181.3 529.07 1272.9 500.064 1287.75 496.935C1299.62 494.431 1311.83 497.281 1316.45 499.018C1302.62 493.056 1269.08 479.346 1245.56 472.199C1202.21 459.026 1123.09 365.014 1005.68 386.452Z" stroke="url(#paint10_linear)" stroke-opacity="0.8" stroke-width="1.66979"/>
</g>
<g filter="url(#filter5_d)">
<path d="M850.852 542.951C866.642 494.815 942.571 463.764 1026.41 479.709C1081.07 490.106 1123.85 526.024 1226.87 507.774C1251.07 503.487 1302.62 493.058 1316.45 499.02C1311.83 497.283 1299.62 494.433 1287.74 496.937C1272.9 500.066 1181.29 529.072 1121.23 529.854C1069.56 530.527 989.882 492.867 948.703 488.178C894.241 481.976 867.64 510.724 850.852 542.951Z" stroke="url(#paint11_radial)" stroke-opacity="0.5" stroke-width="0.834895"/>
</g>
<g filter="url(#filter6_f)">
<path d="M1370.19 559.516L1370.04 559.128L1369.26 559.435L1369.41 559.823L1370.19 559.516ZM1369.41 559.823C1374.4 572.423 1378.75 586.25 1378.46 603.77C1378.17 621.292 1373.22 642.543 1359.54 669.98L1360.28 670.353C1374.01 642.833 1379 621.459 1379.3 603.784C1379.59 586.106 1375.19 572.162 1370.19 559.516L1369.41 559.823Z" fill="url(#paint12_radial)"/>
</g>
<g filter="url(#filter7_f)">
<path d="M1370.19 559.516L1370.04 559.128L1369.26 559.435L1369.41 559.823L1370.19 559.516ZM1369.41 559.823C1374.4 572.423 1378.75 586.25 1378.46 603.77C1378.17 621.292 1373.22 642.543 1359.54 669.98L1360.28 670.353C1374.01 642.833 1379 621.459 1379.3 603.784C1379.59 586.106 1375.19 572.162 1370.19 559.516L1369.41 559.823Z" fill="url(#paint13_radial)"/>
</g>
<g filter="url(#filter8_f)">
<path d="M955.313 460.945C966.032 458.267 990.667 452.913 1003.45 452.923" stroke="url(#paint14_radial)" stroke-opacity="0.5" stroke-width="0.834895"/>
</g>
<g filter="url(#filter9_f)">
<path d="M1116.61 441.891C1140.46 446.493 1162.06 469.268 1174.84 469.278" stroke="url(#paint15_radial)" stroke-width="0.834895"/>
</g>
<g filter="url(#filter10_f)">
<path d="M870.792 498.531C884.461 478.46 913.93 467.642 919.002 455.909" stroke="url(#paint16_radial)" stroke-width="1.66979"/>
</g>
<g opacity="0.3" filter="url(#filter11_f)">
<path d="M1109.98 418.546C1106.52 410.917 1091.24 395.271 1084.03 388.402C1110.13 391.869 1168.66 426.248 1183.46 437.776C1198.27 449.305 1304.75 489.927 1239.88 510.631C1175.01 531.336 1115.11 527.625 1069.44 522.78C1066.56 512.814 1067.08 498.188 1057.13 488.611C1078.43 496.023 1062.91 487.416 1089.56 497.34C1087.49 481.755 1066.21 461.676 1062.12 454.424C1063.4 454.701 1071.04 456.533 1091.34 461.645C1087.5 447.053 1075.28 432.672 1069.65 427.305C1071.84 428.441 1086.51 430.994 1104.33 436.112C1099.5 428.622 1084.97 414.393 1078.3 408.215C1081.84 409.01 1093.14 412.19 1109.98 418.546Z" fill="url(#paint17_linear)"/>
<path d="M1109.98 418.546C1106.52 410.917 1091.24 395.271 1084.03 388.402C1110.13 391.869 1168.66 426.248 1183.46 437.776C1198.27 449.305 1304.75 489.927 1239.88 510.631C1175.01 531.336 1115.11 527.625 1069.44 522.78C1066.56 512.814 1067.08 498.188 1057.13 488.611C1078.43 496.023 1062.91 487.416 1089.56 497.34C1087.49 481.755 1066.21 461.676 1062.12 454.424C1063.4 454.701 1071.04 456.533 1091.34 461.645C1087.5 447.053 1075.28 432.672 1069.65 427.305C1071.84 428.441 1086.51 430.994 1104.33 436.112C1099.5 428.622 1084.97 414.393 1078.3 408.215C1081.84 409.01 1093.14 412.19 1109.98 418.546Z" fill="url(#paint18_linear)"/>
</g>
<g opacity="0.9" filter="url(#filter12_f)">
<path d="M1012.87 389.943C967.969 398.31 911.628 420.937 865.58 514.804C938.489 458.425 947.106 498.522 998.431 484.571C942.491 442.603 1069.01 379.483 1012.87 389.943Z" fill="url(#paint19_linear)"/>
</g>
</g>
<g filter="url(#filter13_f)">
<path d="M509.823 531.112C551.126 520.106 576.559 484.682 582.922 467.677C606.196 418.194 598.605 380.28 578.628 326.975C558.651 273.671 467.744 200.482 450.822 189.045C409.871 161.368 377.25 97.9651 323.043 83.2991C292.577 75.0561 243.056 76.9797 195.1 108.767C147.144 140.554 143.822 190.291 145.038 215.208C146.253 240.125 185.303 294.12 193.077 326.904C200.85 359.688 208.719 448.617 255.558 503.687C315.104 573.698 403.474 562.823 434.094 554.618C452.387 549.717 468.898 542.017 509.823 531.112Z" fill="url(#paint20_linear)"/>
<path d="M509.823 531.112C551.126 520.106 576.559 484.682 582.922 467.677C606.196 418.194 598.605 380.28 578.628 326.975C558.651 273.671 467.744 200.482 450.822 189.045C409.871 161.368 377.25 97.9651 323.043 83.2991C292.577 75.0561 243.056 76.9797 195.1 108.767C147.144 140.554 143.822 190.291 145.038 215.208C146.253 240.125 185.303 294.12 193.077 326.904C200.85 359.688 208.719 448.617 255.558 503.687C315.104 573.698 403.474 562.823 434.094 554.618C452.387 549.717 468.898 542.017 509.823 531.112Z" fill="url(#paint21_linear)"/>
<path d="M509.823 531.112C551.126 520.106 576.559 484.682 582.922 467.677C606.196 418.194 598.605 380.28 578.628 326.975C558.651 273.671 467.744 200.482 450.822 189.045C409.871 161.368 377.25 97.9651 323.043 83.2991C292.577 75.0561 243.056 76.9797 195.1 108.767C147.144 140.554 143.822 190.291 145.038 215.208C146.253 240.125 185.303 294.12 193.077 326.904C200.85 359.688 208.719 448.617 255.558 503.687C315.104 573.698 403.474 562.823 434.094 554.618C452.387 549.717 468.898 542.017 509.823 531.112Z" fill="url(#paint22_linear)"/>
<path d="M509.823 531.112C551.126 520.106 576.559 484.682 582.922 467.677C606.196 418.194 598.605 380.28 578.628 326.975C558.651 273.671 467.744 200.482 450.822 189.045C409.871 161.368 377.25 97.9651 323.043 83.2991C292.577 75.0561 243.056 76.9797 195.1 108.767C147.144 140.554 143.822 190.291 145.038 215.208C146.253 240.125 185.303 294.12 193.077 326.904C200.85 359.688 208.719 448.617 255.558 503.687C315.104 573.698 403.474 562.823 434.094 554.618C452.387 549.717 468.898 542.017 509.823 531.112Z" fill="url(#paint23_radial)"/>
<path d="M509.823 531.112C551.126 520.106 576.559 484.682 582.922 467.677C606.196 418.194 598.605 380.28 578.628 326.975C558.651 273.671 467.744 200.482 450.822 189.045C409.871 161.368 377.25 97.9651 323.043 83.2991C292.577 75.0561 243.056 76.9797 195.1 108.767C147.144 140.554 143.822 190.291 145.038 215.208C146.253 240.125 185.303 294.12 193.077 326.904C200.85 359.688 208.719 448.617 255.558 503.687C315.104 573.698 403.474 562.823 434.094 554.618C452.387 549.717 468.898 542.017 509.823 531.112Z" fill="url(#paint24_radial)"/>
<path d="M509.823 531.112C551.126 520.106 576.559 484.682 582.922 467.677C606.196 418.194 598.605 380.28 578.628 326.975C558.651 273.671 467.744 200.482 450.822 189.045C409.871 161.368 377.25 97.9651 323.043 83.2991C292.577 75.0561 243.056 76.9797 195.1 108.767C147.144 140.554 143.822 190.291 145.038 215.208C146.253 240.125 185.303 294.12 193.077 326.904C200.85 359.688 208.719 448.617 255.558 503.687C315.104 573.698 403.474 562.823 434.094 554.618C452.387 549.717 468.898 542.017 509.823 531.112Z" fill="url(#paint25_radial)"/>
</g>
<path d="M397.456 493.616C416.436 526.822 448.38 539.331 479.429 540.013C505.151 540.578 562.799 526.358 587.618 464.959C618.641 388.209 578.726 289.013 475.295 212.38C371.296 135.326 357.972 62.6298 264.991 78.8687C124.918 103.332 144.421 229.291 157.311 245.041C170.201 260.791 232.975 293.084 284.595 327.512C331.697 358.926 383.03 468.378 397.456 493.616Z" stroke="url(#paint26_radial)" stroke-width="1.66979"/>
<mask id="mask0" mask-type="alpha" maskUnits="userSpaceOnUse" x="63" y="31" width="625" height="546">
<path d="M479.886 519.146C454.16 518.581 430.026 508.54 415.575 483.258C413.384 479.424 410.304 473.548 406.273 465.857C404.07 461.655 401.583 456.91 398.801 451.661C391.157 437.233 381.73 419.853 371.208 402.196C360.713 384.583 348.949 366.386 336.579 350.397C324.401 334.656 310.728 319.853 296.175 310.147C275.165 296.134 252.28 282.428 232.019 270.293C226.893 267.223 221.934 264.253 217.217 261.405C205.358 254.244 195.11 247.905 187.109 242.468C179.401 237.229 175.427 233.898 173.903 232.312C173.725 231.919 173.182 230.727 172.489 228.408C171.419 224.824 170.376 219.831 169.766 213.778C168.541 201.634 169.18 186.463 173.77 171.254C178.312 156.206 186.678 141.21 201.021 128.631C215.364 116.052 236.705 104.997 268.581 99.4299C288.982 95.8668 303.483 97.4032 315.388 101.684C327.577 106.067 338.808 113.948 351.861 125.984C359.243 132.791 367.393 141.228 376.595 150.754C398.272 173.193 425.788 201.678 462.868 229.151C562.759 303.162 594.115 393.185 568.265 457.136C547.746 507.9 500.116 519.59 479.886 519.146L479.43 539.932L479.886 519.146Z" stroke="url(#paint27_linear)" stroke-width="41.7448"/>
</mask>
<g mask="url(#mask0)">
<g filter="url(#filter14_f)">
<path d="M397.454 493.616C416.435 526.822 448.379 539.331 479.428 540.013C505.15 540.578 562.798 526.358 587.616 464.959C618.639 388.209 578.724 289.013 475.293 212.38C371.295 135.326 357.971 62.6298 264.99 78.8687C124.917 103.332 144.419 229.291 157.309 245.041C170.199 260.791 232.973 293.084 284.594 327.512C331.695 358.926 383.029 468.378 397.454 493.616Z" stroke="#FFDA69" stroke-width="3.33958"/>
</g>
</g>
<mask id="mask1" mask-type="alpha" maskUnits="userSpaceOnUse" x="63" y="31" width="625" height="546">
<path d="M479.886 519.146C454.16 518.581 430.026 508.54 415.575 483.258C413.384 479.424 410.304 473.548 406.273 465.857C404.07 461.655 401.583 456.91 398.801 451.661C391.157 437.233 381.73 419.853 371.208 402.196C360.713 384.583 348.949 366.386 336.579 350.397C324.401 334.656 310.728 319.853 296.175 310.147C275.165 296.134 252.28 282.428 232.019 270.293C226.893 267.223 221.934 264.253 217.217 261.405C205.358 254.244 195.11 247.905 187.109 242.468C179.401 237.229 175.427 233.898 173.903 232.312C173.725 231.919 173.182 230.727 172.489 228.408C171.419 224.824 170.376 219.831 169.766 213.778C168.541 201.634 169.18 186.463 173.77 171.254C178.312 156.206 186.678 141.21 201.021 128.631C215.364 116.052 236.705 104.997 268.581 99.4299C288.982 95.8668 303.483 97.4032 315.388 101.684C327.577 106.067 338.808 113.948 351.861 125.984C359.243 132.791 367.393 141.228 376.595 150.754C398.272 173.193 425.788 201.678 462.868 229.151C562.759 303.162 594.115 393.185 568.265 457.136C547.746 507.9 500.116 519.59 479.886 519.146L479.43 539.932L479.886 519.146Z" stroke="url(#paint28_linear)" stroke-width="41.7448"/>
</mask>
<g mask="url(#mask1)">
<g filter="url(#filter15_f)">
<path d="M397.454 493.616C416.435 526.822 448.379 539.331 479.428 540.013C505.15 540.578 562.798 526.358 587.616 464.959C618.639 388.209 578.724 289.013 475.293 212.38C371.295 135.326 357.971 62.6298 264.99 78.8687C124.917 103.332 144.419 229.291 157.309 245.041C170.199 260.791 232.973 293.084 284.594 327.512C331.695 358.926 383.029 468.378 397.454 493.616Z" stroke="url(#paint29_linear)" stroke-width="3.33958"/>
</g>
<g filter="url(#filter16_f)">
<path d="M397.454 493.616C416.435 526.822 448.379 539.331 479.428 540.013C505.15 540.578 562.798 526.358 587.616 464.959C618.639 388.209 578.724 289.013 475.293 212.38C371.295 135.326 357.971 62.6298 264.99 78.8687C124.917 103.332 144.419 229.291 157.309 245.041C170.199 260.791 232.973 293.084 284.594 327.512C331.695 358.926 383.029 468.378 397.454 493.616Z" stroke="url(#paint30_linear)" stroke-width="3.33958"/>
<path d="M397.454 493.616C416.435 526.822 448.379 539.331 479.428 540.013C505.15 540.578 562.798 526.358 587.616 464.959C618.639 388.209 578.724 289.013 475.293 212.38C371.295 135.326 357.971 62.6298 264.99 78.8687C124.917 103.332 144.419 229.291 157.309 245.041C170.199 260.791 232.973 293.084 284.594 327.512C331.695 358.926 383.029 468.378 397.454 493.616Z" stroke="url(#paint31_linear)" stroke-width="3.33958"/>
</g>
</g>
<path opacity="0.4" d="M397.456 493.616C416.436 526.822 448.38 539.331 479.429 540.013C505.151 540.578 562.799 526.358 587.618 464.959C618.641 388.209 572.257 287.494 465.475 215.604C363.167 146.726 359.443 85.0035 266.462 101.242C126.389 125.706 154.729 223.067 167.619 238.818C180.509 254.568 232.975 293.084 284.595 327.512C331.697 358.926 383.03 468.378 397.456 493.616Z" stroke="#FFAB8B" stroke-opacity="0.5" stroke-width="0.834895"/>
<g opacity="0.3" filter="url(#filter17_f)">
<path d="M397.456 493.616C416.436 526.822 448.38 539.331 479.429 540.013C505.151 540.578 562.799 526.358 587.618 464.959C618.641 388.209 572.257 287.494 465.475 215.604C363.167 146.726 359.443 85.0035 266.462 101.242C126.389 125.706 154.729 223.067 167.619 238.818C180.509 254.568 232.975 293.084 284.595 327.512C331.697 358.926 383.03 468.378 397.456 493.616Z" stroke="#FFDA69" stroke-width="8.34895"/>
</g>
<g opacity="0.35" filter="url(#filter18_f)">
<path d="M409.086 501.5C426.921 530.536 455.938 542.045 483.878 543.347C507.024 544.425 551.901 531.559 572.808 479.251C598.942 413.866 542.492 355.134 444.801 290.761C351.204 229.085 341.844 181.137 273.552 187.07C178.555 195.324 184.559 262.906 196.514 276.767C208.47 290.629 256.542 325.008 303.76 355.847C346.844 383.986 395.532 479.433 409.086 501.5Z" stroke="url(#paint32_linear)" stroke-width="0.834895"/>
</g>
<g filter="url(#filter19_bf)">
<path d="M292.749 534.784C366.519 585.772 467.687 556.477 512.889 533.605C478.231 544.521 439.094 546.039 404.968 503.143C379.165 470.71 349.454 387.738 312.441 351.677C269.417 309.76 184.133 265.496 171.423 257.211C161.254 250.583 154.637 239.936 152.599 235.441C158.164 249.437 172.188 282.851 183.764 304.534C205.101 344.5 194.573 466.927 292.749 534.784Z" fill="url(#paint33_radial)" fill-opacity="0.8"/>
<path d="M292.749 534.784C366.519 585.772 467.687 556.477 512.889 533.605C478.231 544.521 439.094 546.039 404.968 503.143C379.165 470.71 349.454 387.738 312.441 351.677C269.417 309.76 184.133 265.496 171.423 257.211C161.254 250.583 154.637 239.936 152.599 235.441C158.164 249.437 172.188 282.851 183.764 304.534C205.101 344.5 194.573 466.927 292.749 534.784Z" fill="url(#paint34_radial)" fill-opacity="0.8"/>
<path d="M292.749 534.784C366.519 585.772 467.687 556.477 512.889 533.605C478.231 544.521 439.094 546.039 404.968 503.143C379.165 470.71 349.454 387.738 312.441 351.677C269.417 309.76 184.133 265.496 171.423 257.211C161.254 250.583 154.637 239.936 152.599 235.441C158.164 249.437 172.188 282.851 183.764 304.534C205.101 344.5 194.573 466.927 292.749 534.784Z" fill="#FFDA92" fill-opacity="0.1"/>
<path d="M292.749 534.784C366.519 585.772 467.687 556.477 512.889 533.605C478.231 544.521 439.094 546.039 404.968 503.143C379.165 470.71 349.454 387.738 312.441 351.677C269.417 309.76 184.133 265.496 171.423 257.211C161.254 250.583 154.637 239.936 152.599 235.441C158.164 249.437 172.188 282.851 183.764 304.534C205.101 344.5 194.573 466.927 292.749 534.784Z" stroke="url(#paint35_linear)" stroke-opacity="0.8" stroke-width="1.66979"/>
</g>
<g filter="url(#filter20_d)">
<path d="M512.889 533.61C467.687 556.482 392.041 524.748 344.035 454.192C312.733 408.187 307.884 352.543 222.132 292.6C201.987 278.518 158.164 249.443 152.599 235.446C154.636 239.941 161.254 250.588 171.422 257.216C184.133 265.501 269.417 309.765 312.441 351.682C349.454 387.743 379.165 470.715 404.968 503.149C439.093 546.044 478.231 544.526 512.889 533.61Z" stroke="url(#paint36_radial)" stroke-opacity="0.5" stroke-width="0.834895"/>
</g>
<g filter="url(#filter21_f)">
<path d="M157.375 154.669L157.209 155.053L157.975 155.384L158.141 155.001L157.375 154.669ZM158.141 155.001C163.528 142.569 170.222 129.71 182.818 117.528C195.414 105.345 213.939 93.8153 243.017 84.0922L242.752 83.3004C213.587 93.0528 194.944 104.638 182.237 116.928C169.528 129.22 162.781 142.193 157.375 154.669L158.141 155.001Z" fill="url(#paint37_radial)"/>
</g>
<g filter="url(#filter22_f)">
<path d="M157.375 154.669L157.209 155.053L157.975 155.384L158.141 155.001L157.375 154.669ZM158.141 155.001C163.528 142.569 170.222 129.71 182.818 117.528C195.414 105.345 213.939 93.8153 243.017 84.0922L242.752 83.3004C213.587 93.0528 194.944 104.638 182.237 116.928C169.528 129.22 162.781 142.193 157.375 154.669L158.141 155.001Z" fill="url(#paint38_radial)"/>
</g>
<g filter="url(#filter23_f)">
<path d="M381.042 517.727C371.568 512.041 350.363 498.407 341.331 489.362" stroke="url(#paint39_radial)" stroke-opacity="0.5" stroke-width="0.834895"/>
</g>
<g filter="url(#filter24_f)">
<path d="M253.508 417.148C239.903 397.034 240.731 365.653 231.699 356.608" stroke="url(#paint40_radial)" stroke-width="0.834895"/>
</g>
<g filter="url(#filter25_f)">
<path d="M467.383 550.914C443.525 555.441 415.038 542.253 403.155 546.964" stroke="url(#paint41_radial)" stroke-width="1.66979"/>
</g>
<g opacity="0.4" filter="url(#filter26_f)">
<path d="M241.691 438.345C238.742 446.184 238.483 468.052 238.722 478.005C222.721 457.101 205.643 391.405 203.328 372.786C201.014 354.167 154.444 250.15 214.952 281.377C275.459 312.603 315.195 357.587 344.065 393.309C339.054 402.393 328.338 412.361 328.607 426.173C318.783 405.867 323.674 422.93 311.849 397.07C302.288 409.55 303.14 438.799 300.905 446.82C300.194 445.716 296.087 439.018 285.347 421.05C277.742 434.08 276.214 452.891 276.401 460.667C275.66 458.319 267.089 446.138 258.109 429.921C256.227 438.631 256.441 458.968 256.784 468.048C254.843 464.982 249.107 454.749 241.691 438.345Z" fill="url(#paint42_linear)"/>
<path d="M241.691 438.345C238.742 446.184 238.483 468.052 238.722 478.005C222.721 457.101 205.643 391.405 203.328 372.786C201.014 354.167 154.444 250.15 214.952 281.377C275.459 312.603 315.195 357.587 344.065 393.309C339.054 402.393 328.338 412.361 328.607 426.173C318.783 405.867 323.674 422.93 311.849 397.07C302.288 409.55 303.14 438.799 300.905 446.82C300.194 445.716 296.087 439.018 285.347 421.05C277.742 434.08 276.214 452.891 276.401 460.667C275.66 458.319 267.089 446.138 258.109 429.921C256.227 438.631 256.441 458.968 256.784 468.048C254.843 464.982 249.107 454.749 241.691 438.345Z" fill="url(#paint43_linear)"/>
</g>
<g opacity="0.9" filter="url(#filter27_f)">
<path d="M290.126 527.235C327.796 553.072 383.634 576.911 482.569 543.098C391.148 531.409 413.409 496.963 367.251 470.536C377.131 539.767 243.038 494.939 290.126 527.235Z" fill="url(#paint44_linear)"/>
</g>
<g filter="url(#filter28_f)">
<g filter="url(#filter29_f)">
<path d="M1830.91 1233.91C1867.95 1212.59 1883.35 1171.79 1885.1 1153.72C1894.77 1099.9 1877.63 1065.24 1844.53 1018.92C1811.44 972.603 1704.69 925.436 1685.38 918.769C1638.67 902.634 1590.74 849.834 1534.59 849.697C1503.03 849.621 1455.69 864.296 1417.6 907.412C1379.5 950.528 1389.17 999.429 1396.79 1023.18C1404.41 1046.94 1456.11 1088.99 1472.1 1118.64C1488.1 1148.29 1518.71 1232.16 1578.21 1273.23C1653.85 1325.44 1736.39 1292.07 1763.84 1276.22C1780.24 1266.75 1794.2 1255.03 1830.91 1233.91Z" fill="url(#paint45_linear)"/>
<path d="M1830.91 1233.91C1867.95 1212.59 1883.35 1171.79 1885.1 1153.72C1894.77 1099.9 1877.63 1065.24 1844.53 1018.92C1811.44 972.603 1704.69 925.436 1685.38 918.769C1638.67 902.634 1590.74 849.834 1534.59 849.697C1503.03 849.621 1455.69 864.296 1417.6 907.412C1379.5 950.528 1389.17 999.429 1396.79 1023.18C1404.41 1046.94 1456.11 1088.99 1472.1 1118.64C1488.1 1148.29 1518.71 1232.16 1578.21 1273.23C1653.85 1325.44 1736.39 1292.07 1763.84 1276.22C1780.24 1266.75 1794.2 1255.03 1830.91 1233.91Z" fill="url(#paint46_linear)"/>
<path d="M1830.91 1233.91C1867.95 1212.59 1883.35 1171.79 1885.1 1153.72C1894.77 1099.9 1877.63 1065.24 1844.53 1018.92C1811.44 972.603 1704.69 925.436 1685.38 918.769C1638.67 902.634 1590.74 849.834 1534.59 849.697C1503.03 849.621 1455.69 864.296 1417.6 907.412C1379.5 950.528 1389.17 999.429 1396.79 1023.18C1404.41 1046.94 1456.11 1088.99 1472.1 1118.64C1488.1 1148.29 1518.71 1232.16 1578.21 1273.23C1653.85 1325.44 1736.39 1292.07 1763.84 1276.22C1780.24 1266.75 1794.2 1255.03 1830.91 1233.91Z" fill="url(#paint47_linear)"/>
<path d="M1830.91 1233.91C1867.95 1212.59 1883.35 1171.79 1885.1 1153.72C1894.77 1099.9 1877.63 1065.24 1844.53 1018.92C1811.44 972.603 1704.69 925.436 1685.38 918.769C1638.67 902.634 1590.74 849.834 1534.59 849.697C1503.03 849.621 1455.69 864.296 1417.6 907.412C1379.5 950.528 1389.17 999.429 1396.79 1023.18C1404.41 1046.94 1456.11 1088.99 1472.1 1118.64C1488.1 1148.29 1518.71 1232.16 1578.21 1273.23C1653.85 1325.44 1736.39 1292.07 1763.84 1276.22C1780.24 1266.75 1794.2 1255.03 1830.91 1233.91Z" fill="url(#paint48_radial)"/>
<path d="M1830.91 1233.91C1867.95 1212.59 1883.35 1171.79 1885.1 1153.72C1894.77 1099.9 1877.63 1065.24 1844.53 1018.92C1811.44 972.603 1704.69 925.436 1685.38 918.769C1638.67 902.634 1590.74 849.834 1534.59 849.697C1503.03 849.621 1455.69 864.296 1417.6 907.412C1379.5 950.528 1389.17 999.429 1396.79 1023.18C1404.41 1046.94 1456.11 1088.99 1472.1 1118.64C1488.1 1148.29 1518.71 1232.16 1578.21 1273.23C1653.85 1325.44 1736.39 1292.07 1763.84 1276.22C1780.24 1266.75 1794.2 1255.03 1830.91 1233.91Z" fill="url(#paint49_radial)"/>
<path d="M1830.91 1233.91C1867.95 1212.59 1883.35 1171.79 1885.1 1153.72C1894.77 1099.9 1877.63 1065.24 1844.53 1018.92C1811.44 972.603 1704.69 925.436 1685.38 918.769C1638.67 902.634 1590.74 849.834 1534.59 849.697C1503.03 849.621 1455.69 864.296 1417.6 907.412C1379.5 950.528 1389.17 999.429 1396.79 1023.18C1404.41 1046.94 1456.11 1088.99 1472.1 1118.64C1488.1 1148.29 1518.71 1232.16 1578.21 1273.23C1653.85 1325.44 1736.39 1292.07 1763.84 1276.22C1780.24 1266.75 1794.2 1255.03 1830.91 1233.91Z" fill="url(#paint50_radial)"/>
</g>
<path d="M1712.66 1226.77C1739.59 1253.93 1773.68 1257.75 1803.85 1250.37C1828.84 1244.26 1880.85 1215.6 1888.93 1149.87C1899.03 1067.71 1834.8 982.222 1715.06 934.97C1594.66 887.458 1562.98 820.688 1477.37 860.439C1348.4 920.322 1399.84 1036.94 1416.37 1048.82C1432.89 1060.7 1501.89 1075.64 1560.66 1095.54C1614.28 1113.69 1692.2 1206.13 1712.66 1226.77Z" stroke="url(#paint51_radial)" stroke-width="1.66979"/>
<mask id="mask2" mask-type="alpha" maskUnits="userSpaceOnUse" x="1353" y="827" width="578" height="445">
<path d="M1798.89 1230.09C1773.9 1236.21 1747.99 1232.75 1727.48 1212.07C1724.38 1208.94 1719.88 1204.06 1714 1197.67C1710.78 1194.18 1707.15 1190.25 1703.1 1185.89C1691.99 1173.94 1678.38 1159.59 1663.65 1145.26C1648.95 1130.96 1632.88 1116.43 1616.79 1104.19C1600.96 1092.13 1583.92 1081.37 1567.35 1075.76C1543.43 1067.67 1517.78 1060.35 1495.06 1053.87C1489.32 1052.23 1483.76 1050.65 1478.47 1049.12C1465.16 1045.27 1453.62 1041.8 1444.48 1038.62C1435.68 1035.55 1430.98 1033.37 1429.1 1032.23C1428.82 1031.89 1427.99 1030.88 1426.72 1028.82C1424.76 1025.64 1422.46 1021.09 1420.3 1015.4C1415.98 1003.98 1412.67 989.164 1413.17 973.285C1413.66 957.575 1417.86 940.924 1428.46 925.062C1439.06 909.199 1456.81 892.997 1486.16 879.37C1504.94 870.648 1519.35 868.379 1531.95 869.433C1544.86 870.512 1557.75 875.217 1573.47 883.465C1582.36 888.129 1592.42 894.169 1603.77 900.989C1630.52 917.053 1664.47 937.445 1707.4 954.385C1823.04 1000.02 1876.63 1078.86 1868.21 1147.32C1861.53 1201.67 1818.55 1225.29 1798.89 1230.09L1803.83 1250.29L1798.89 1230.09Z" stroke="url(#paint52_linear)" stroke-width="41.7448"/>
</mask>
<g mask="url(#mask2)">
<g filter="url(#filter30_f)">
<path d="M1712.66 1226.77C1739.59 1253.93 1773.68 1257.75 1803.85 1250.37C1828.84 1244.26 1880.85 1215.6 1888.93 1149.87C1899.03 1067.71 1834.8 982.222 1715.06 934.97C1594.66 887.458 1562.98 820.688 1477.37 860.439C1348.4 920.322 1399.84 1036.94 1416.36 1048.82C1432.89 1060.7 1501.88 1075.64 1560.66 1095.54C1614.28 1113.69 1692.2 1206.13 1712.66 1226.77Z" stroke="#FFDA69" stroke-width="3.33958"/>
</g>
</g>
<mask id="mask3" mask-type="alpha" maskUnits="userSpaceOnUse" x="1353" y="827" width="578" height="445">
<path d="M1798.89 1230.09C1773.9 1236.21 1747.99 1232.75 1727.48 1212.07C1724.38 1208.94 1719.88 1204.06 1714 1197.67C1710.78 1194.18 1707.15 1190.25 1703.1 1185.89C1691.99 1173.94 1678.38 1159.59 1663.65 1145.26C1648.95 1130.96 1632.88 1116.43 1616.79 1104.19C1600.96 1092.13 1583.92 1081.37 1567.35 1075.76C1543.43 1067.67 1517.78 1060.35 1495.06 1053.87C1489.32 1052.23 1483.76 1050.65 1478.47 1049.12C1465.16 1045.27 1453.62 1041.8 1444.48 1038.62C1435.68 1035.55 1430.98 1033.37 1429.1 1032.23C1428.82 1031.89 1427.99 1030.88 1426.72 1028.82C1424.76 1025.64 1422.46 1021.09 1420.3 1015.4C1415.98 1003.98 1412.67 989.164 1413.17 973.285C1413.66 957.575 1417.86 940.924 1428.46 925.062C1439.06 909.199 1456.81 892.997 1486.16 879.37C1504.94 870.648 1519.35 868.379 1531.95 869.433C1544.86 870.512 1557.75 875.217 1573.47 883.465C1582.36 888.129 1592.42 894.169 1603.77 900.989C1630.52 917.053 1664.47 937.445 1707.4 954.385C1823.04 1000.02 1876.63 1078.86 1868.21 1147.32C1861.53 1201.67 1818.55 1225.29 1798.89 1230.09L1803.83 1250.29L1798.89 1230.09Z" stroke="url(#paint53_linear)" stroke-width="41.7448"/>
</mask>
<g mask="url(#mask3)">
<g filter="url(#filter31_f)">
<path d="M1712.66 1226.77C1739.59 1253.93 1773.68 1257.75 1803.85 1250.37C1828.84 1244.26 1880.85 1215.6 1888.93 1149.87C1899.03 1067.71 1834.8 982.222 1715.06 934.97C1594.66 887.458 1562.98 820.688 1477.37 860.439C1348.4 920.322 1399.84 1036.94 1416.36 1048.82C1432.89 1060.7 1501.88 1075.64 1560.66 1095.54C1614.28 1113.69 1692.2 1206.13 1712.66 1226.77Z" stroke="url(#paint54_linear)" stroke-width="3.33958"/>
</g>
<g filter="url(#filter32_f)">
<path d="M1712.66 1226.77C1739.59 1253.93 1773.68 1257.75 1803.85 1250.37C1828.84 1244.26 1880.85 1215.6 1888.93 1149.87C1899.03 1067.71 1834.8 982.222 1715.06 934.97C1594.66 887.458 1562.98 820.688 1477.37 860.439C1348.4 920.322 1399.84 1036.94 1416.36 1048.82C1432.89 1060.7 1501.88 1075.64 1560.66 1095.54C1614.28 1113.69 1692.2 1206.13 1712.66 1226.77Z" stroke="url(#paint55_linear)" stroke-width="3.33958"/>
<path d="M1712.66 1226.77C1739.59 1253.93 1773.68 1257.75 1803.85 1250.37C1828.84 1244.26 1880.85 1215.6 1888.93 1149.87C1899.03 1067.71 1834.8 982.222 1715.06 934.97C1594.66 887.458 1562.98 820.688 1477.37 860.439C1348.4 920.322 1399.84 1036.94 1416.36 1048.82C1432.89 1060.7 1501.88 1075.64 1560.66 1095.54C1614.28 1113.69 1692.2 1206.13 1712.66 1226.77Z" stroke="url(#paint56_linear)" stroke-width="3.33958"/>
</g>
</g>
<path opacity="0.4" d="M1712.66 1226.77C1739.59 1253.93 1773.68 1257.75 1803.85 1250.37C1828.84 1244.26 1880.85 1215.6 1888.93 1149.87C1899.03 1067.71 1828.16 982.429 1706.41 940.626C1589.76 900.574 1570.19 841.918 1484.58 881.669C1355.61 941.553 1408.18 1028.26 1424.71 1040.14C1441.24 1052.02 1501.89 1075.64 1560.66 1095.54C1614.28 1113.69 1692.2 1206.13 1712.66 1226.77Z" stroke="#FFAB8B" stroke-opacity="0.5" stroke-width="0.834895"/>
<g opacity="0.3" filter="url(#filter33_f)">
<path d="M1712.66 1226.77C1739.59 1253.93 1773.68 1257.75 1803.85 1250.37C1828.84 1244.26 1880.85 1215.6 1888.93 1149.87C1899.03 1067.71 1828.16 982.429 1706.41 940.626C1589.76 900.574 1570.19 841.918 1484.58 881.669C1355.61 941.553 1408.18 1028.26 1424.71 1040.14C1441.24 1052.02 1501.89 1075.64 1560.66 1095.54C1614.28 1113.69 1692.2 1206.13 1712.66 1226.77Z" stroke="#FFDA69" stroke-width="8.34895"/>
</g>
<g opacity="0.35" filter="url(#filter34_f)">
<path d="M1725.94 1231.37C1750.68 1254.81 1781.69 1258.41 1809.01 1252.44C1831.65 1247.49 1871.67 1223.45 1878.32 1167.51C1886.64 1097.59 1816.92 1055.47 1705.89 1018.57C1599.52 983.223 1578.07 939.331 1513.64 962.738C1424.02 995.297 1447.31 1059.02 1462.44 1069.32C1477.58 1079.61 1532.91 1100.38 1586.5 1117.94C1635.4 1133.97 1707.13 1213.57 1725.94 1231.37Z" stroke="url(#paint57_linear)" stroke-width="0.834895"/>
</g>
<g filter="url(#filter35_bf)">
<path d="M1622.18 1293.64C1706.63 1323.8 1796.77 1269.31 1834.51 1235.52C1803.86 1255.04 1766.45 1266.63 1722.39 1234.03C1689.07 1209.38 1638.89 1136.93 1593.81 1111.67C1541.4 1082.32 1447.57 1061.64 1433.15 1056.92C1421.61 1053.15 1412.46 1044.58 1409.33 1040.77C1418.33 1052.85 1440.52 1081.49 1457.32 1099.44C1488.27 1132.52 1509.79 1253.5 1622.18 1293.64Z" fill="url(#paint58_radial)" fill-opacity="0.8"/>
<path d="M1622.18 1293.64C1706.63 1323.8 1796.77 1269.31 1834.51 1235.52C1803.86 1255.04 1766.45 1266.63 1722.39 1234.03C1689.07 1209.38 1638.89 1136.93 1593.81 1111.67C1541.4 1082.32 1447.57 1061.64 1433.15 1056.92C1421.61 1053.15 1412.46 1044.58 1409.33 1040.77C1418.33 1052.85 1440.52 1081.49 1457.32 1099.44C1488.27 1132.52 1509.79 1253.5 1622.18 1293.64Z" fill="url(#paint59_radial)" fill-opacity="0.8"/>
<path d="M1622.18 1293.64C1706.63 1323.8 1796.77 1269.31 1834.51 1235.52C1803.86 1255.04 1766.45 1266.63 1722.39 1234.03C1689.07 1209.38 1638.89 1136.93 1593.81 1111.67C1541.4 1082.32 1447.57 1061.64 1433.15 1056.92C1421.61 1053.15 1412.46 1044.58 1409.33 1040.77C1418.33 1052.85 1440.52 1081.49 1457.32 1099.44C1488.27 1132.52 1509.79 1253.5 1622.18 1293.64Z" fill="#FFDA92" fill-opacity="0.1"/>
<path d="M1622.18 1293.64C1706.63 1323.8 1796.77 1269.31 1834.51 1235.52C1803.86 1255.04 1766.45 1266.63 1722.39 1234.03C1689.07 1209.38 1638.89 1136.93 1593.81 1111.67C1541.4 1082.32 1447.57 1061.64 1433.15 1056.92C1421.61 1053.15 1412.46 1044.58 1409.33 1040.77C1418.33 1052.85 1440.52 1081.49 1457.32 1099.44C1488.27 1132.52 1509.79 1253.5 1622.18 1293.64Z" stroke="url(#paint60_linear)" stroke-opacity="0.8" stroke-width="1.66979"/>
</g>
<g filter="url(#filter36_d)">
<path d="M1834.51 1235.52C1796.77 1269.32 1715.49 1258.24 1650.86 1202.51C1608.72 1166.18 1589.63 1113.69 1491.29 1077.98C1468.18 1069.59 1418.33 1052.85 1409.33 1040.77C1412.46 1044.58 1421.61 1053.16 1433.15 1056.93C1447.57 1061.64 1541.4 1082.32 1593.81 1111.68C1638.89 1136.93 1689.07 1209.38 1722.39 1234.03C1766.45 1266.63 1803.86 1255.04 1834.51 1235.52Z" stroke="url(#paint61_radial)" stroke-opacity="0.5" stroke-width="0.834895"/>
</g>
<g filter="url(#filter37_f)">
<path d="M1393.04 961.508L1392.98 961.921L1393.8 962.043L1393.86 961.63L1393.04 961.508ZM1393.86 961.63C1395.85 948.227 1398.99 934.074 1408 919.047C1417.01 904.019 1431.92 888.088 1457.49 871.17L1457.03 870.473C1431.39 887.442 1416.38 903.458 1407.28 918.618C1398.19 933.78 1395.03 948.057 1393.04 961.508L1393.86 961.63Z" fill="url(#paint62_radial)"/>
</g>
<g filter="url(#filter38_f)">
<path d="M1393.04 961.508L1392.98 961.921L1393.8 962.043L1393.86 961.63L1393.04 961.508ZM1393.86 961.63C1395.85 948.227 1398.99 934.074 1408 919.047C1417.01 904.019 1431.92 888.088 1457.49 871.17L1457.03 870.473C1431.39 887.442 1416.38 903.458 1407.28 918.618C1398.19 933.78 1395.03 948.057 1393.04 961.508L1393.86 961.63Z" fill="url(#paint63_radial)"/>
</g>
<g filter="url(#filter39_f)">
<path d="M1703.05 1254.31C1692.43 1251.27 1668.41 1243.59 1657.35 1237.19" stroke="url(#paint64_radial)" stroke-opacity="0.5" stroke-width="0.834895"/>
</g>
<g filter="url(#filter40_f)">
<path d="M1553.83 1190.16C1535.48 1174.26 1528.16 1143.73 1517.09 1137.33" stroke="url(#paint65_radial)" stroke-width="0.834895"/>
</g>
<g filter="url(#filter41_f)">
<path d="M1795.04 1264.02C1773.16 1274.57 1742.23 1269.2 1731.98 1276.83" stroke="url(#paint66_radial)" stroke-width="1.66979"/>
</g>
<g opacity="0.4" filter="url(#filter42_f)">
<path d="M1547.9 1213.7C1547.08 1222.03 1552.49 1243.22 1555.3 1252.78C1534.43 1236.73 1500.93 1177.69 1493.88 1160.3C1486.82 1142.92 1414.92 1054.5 1481.45 1069C1547.97 1083.5 1598 1116.67 1635.13 1143.7C1632.64 1153.77 1624.87 1166.17 1628.71 1179.45C1613.96 1162.37 1623.1 1177.59 1604.99 1155.67C1598.98 1170.2 1607.37 1198.23 1607.29 1206.56C1606.32 1205.68 1600.62 1200.27 1585.59 1185.69C1581.62 1200.25 1585.01 1218.81 1587.21 1226.28C1585.88 1224.2 1574.45 1214.65 1561.58 1201.31C1562.02 1210.21 1567.49 1229.8 1570.17 1238.48C1567.5 1236.02 1559.31 1227.62 1547.9 1213.7Z" fill="url(#paint67_linear)"/>
<path d="M1547.9 1213.7C1547.08 1222.03 1552.49 1243.22 1555.3 1252.78C1534.43 1236.73 1500.93 1177.69 1493.88 1160.3C1486.82 1142.92 1414.92 1054.5 1481.45 1069C1547.97 1083.5 1598 1116.67 1635.13 1143.7C1632.64 1153.77 1624.87 1166.17 1628.71 1179.45C1613.96 1162.37 1623.1 1177.59 1604.99 1155.67C1598.98 1170.2 1607.37 1198.23 1607.29 1206.56C1606.32 1205.68 1600.62 1200.27 1585.59 1185.69C1581.62 1200.25 1585.01 1218.81 1587.21 1226.28C1585.88 1224.2 1574.45 1214.65 1561.58 1201.31C1562.02 1210.21 1567.49 1229.8 1570.17 1238.48C1567.5 1236.02 1559.31 1227.62 1547.9 1213.7Z" fill="url(#paint68_linear)"/>
</g>
<g opacity="0.9" filter="url(#filter43_f)">
<path d="M1617.69 1287.03C1660.77 1302.23 1720.87 1310.81 1807.68 1252.54C1716.35 1264.91 1728.94 1225.88 1677.52 1212.3C1704.98 1276.61 1563.85 1268.02 1617.69 1287.03Z" fill="url(#paint69_linear)"/>
</g>
</g>
<g filter="url(#filter44_f)">
<path d="M1478.53 803.006C1459.8 789.888 1469.47 772.252 1482.59 753.518C1495.7 734.784 1522.83 730.261 1541.57 743.379C1560.3 756.496 1559.68 779.579 1546.56 798.313C1533.44 817.048 1497.27 816.123 1478.53 803.006Z" fill="url(#paint70_linear)"/>
<path d="M1478.53 803.006C1459.8 789.888 1469.47 772.252 1482.59 753.518C1495.7 734.784 1522.83 730.261 1541.57 743.379C1560.3 756.496 1559.68 779.579 1546.56 798.313C1533.44 817.048 1497.27 816.123 1478.53 803.006Z" fill="url(#paint71_linear)"/>
<path d="M1478.53 803.006C1459.8 789.888 1469.47 772.252 1482.59 753.518C1495.7 734.784 1522.83 730.261 1541.57 743.379C1560.3 756.496 1559.68 779.579 1546.56 798.313C1533.44 817.048 1497.27 816.123 1478.53 803.006Z" fill="url(#paint72_linear)"/>
<path d="M1478.53 803.006C1459.8 789.888 1469.47 772.252 1482.59 753.518C1495.7 734.784 1522.83 730.261 1541.57 743.379C1560.3 756.496 1559.68 779.579 1546.56 798.313C1533.44 817.048 1497.27 816.123 1478.53 803.006Z" fill="url(#paint73_radial)"/>
<path d="M1478.53 803.006C1459.8 789.888 1469.47 772.252 1482.59 753.518C1495.7 734.784 1522.83 730.261 1541.57 743.379C1560.3 756.496 1559.68 779.579 1546.56 798.313C1533.44 817.048 1497.27 816.123 1478.53 803.006Z" fill="url(#paint74_radial)"/>
<path d="M1478.53 803.006C1459.8 789.888 1469.47 772.252 1482.59 753.518C1495.7 734.784 1522.83 730.261 1541.57 743.379C1560.3 756.496 1559.68 779.579 1546.56 798.313C1533.44 817.048 1497.27 816.123 1478.53 803.006Z" fill="url(#paint75_radial)"/>
</g>
<g filter="url(#filter45_f)">
<path d="M1482.53 802.006C1463.8 788.888 1473.47 771.252 1486.59 752.518C1499.7 733.784 1526.83 729.261 1545.57 742.379C1564.3 755.496 1563.68 778.579 1550.56 797.313C1537.44 816.048 1501.27 815.123 1482.53 802.006Z" stroke="url(#paint76_linear)"/>
<path d="M1482.53 802.006C1463.8 788.888 1473.47 771.252 1486.59 752.518C1499.7 733.784 1526.83 729.261 1545.57 742.379C1564.3 755.496 1563.68 778.579 1550.56 797.313C1537.44 816.048 1501.27 815.123 1482.53 802.006Z" stroke="url(#paint77_linear)"/>
</g>
<defs>
<filter id="filter0_d" x="877.179" y="367" width="458" height="498" filterUnits="userSpaceOnUse" color-interpolation-filters="sRGB">
<feFlood flood-opacity="0" result="BackgroundImageFix"/>
<feColorMatrix in="SourceAlpha" type="matrix" values="0 0 0 0 0 0 0 0 0 0 0 0 0 0 0 0 0 0 127 0"/>
<feOffset dy="2"/>
<feGaussianBlur stdDeviation="30"/>
<feColorMatrix type="matrix" values="0 0 0 0 0.0745098 0 0 0 0 0.121569 0 0 0 0 0.215686 0 0 0 0.24 0"/>
<feBlend mode="normal" in2="BackgroundImageFix" result="effect1_dropShadow"/>
<feBlend mode="normal" in="SourceGraphic" in2="effect1_dropShadow" result="shape"/>
</filter>
<filter id="filter1_f" x="776.327" y="279.315" width="650.051" height="592.712" filterUnits="userSpaceOnUse" color-interpolation-filters="sRGB">
<feFlood flood-opacity="0" result="BackgroundImageFix"/>
<feBlend mode="normal" in="SourceGraphic" in2="BackgroundImageFix" result="shape"/>
<feGaussianBlur stdDeviation="4.17447" result="effect1_foregroundBlur"/>
</filter>
<filter id="filter2_f" x="774.133" y="324.203" width="657.904" height="553.728" filterUnits="userSpaceOnUse" color-interpolation-filters="sRGB">
<feFlood flood-opacity="0" result="BackgroundImageFix"/>
<feBlend mode="normal" in="SourceGraphic" in2="BackgroundImageFix" result="shape"/>
<feGaussianBlur stdDeviation="12.5234" result="effect1_foregroundBlur"/>
</filter>
<filter id="filter3_f" x="808.454" y="371.081" width="514.185" height="397.599" filterUnits="userSpaceOnUse" color-interpolation-filters="sRGB">
<feFlood flood-opacity="0" result="BackgroundImageFix"/>
<feBlend mode="normal" in="SourceGraphic" in2="BackgroundImageFix" result="shape"/>
<feGaussianBlur stdDeviation="1.25234" result="effect1_foregroundBlur"/>
</filter>
<filter id="filter4_bf" x="812.142" y="292.405" width="510.07" height="365.949" filterUnits="userSpaceOnUse" color-interpolation-filters="sRGB">
<feFlood flood-opacity="0" result="BackgroundImageFix"/>
<feGaussianBlur in="BackgroundImage" stdDeviation="2.50468"/>
<feComposite in2="SourceAlpha" operator="in" result="effect1_backgroundBlur"/>
<feBlend mode="normal" in="SourceGraphic" in2="effect1_backgroundBlur" result="shape"/>
<feGaussianBlur stdDeviation="1.66979" result="effect2_foregroundBlur"/>
</filter>
<filter id="filter5_d" x="836.463" y="359.539" width="483.702" height="300.079" filterUnits="userSpaceOnUse" color-interpolation-filters="sRGB">
<feFlood flood-opacity="0" result="BackgroundImageFix"/>
<feColorMatrix in="SourceAlpha" type="matrix" values="0 0 0 0 0 0 0 0 0 0 0 0 0 0 0 0 0 0 127 0"/>
<feOffset dy="3.33958"/>
<feGaussianBlur stdDeviation="1.66979"/>
<feColorMatrix type="matrix" values="0 0 0 0 0 0 0 0 0 0.878431 0 0 0 0 0.792157 0 0 0 0.2 0"/>
<feBlend mode="normal" in2="BackgroundImageFix" result="effect1_dropShadow"/>
<feBlend mode="normal" in="SourceGraphic" in2="effect1_dropShadow" result="shape"/>
</filter>
<filter id="filter6_f" x="1323.73" y="557.416" width="82.4337" height="114.799" filterUnits="userSpaceOnUse" color-interpolation-filters="sRGB">
<feFlood flood-opacity="0" result="BackgroundImageFix"/>
<feBlend mode="normal" in="SourceGraphic" in2="BackgroundImageFix" result="shape"/>
<feGaussianBlur stdDeviation="0.834895" result="effect1_foregroundBlur"/>
</filter>
<filter id="filter7_f" x="1323.73" y="557.416" width="82.4337" height="114.799" filterUnits="userSpaceOnUse" color-interpolation-filters="sRGB">
<feFlood flood-opacity="0" result="BackgroundImageFix"/>
<feBlend mode="normal" in="SourceGraphic" in2="BackgroundImageFix" result="shape"/>
<feGaussianBlur stdDeviation="0.834895" result="effect1_foregroundBlur"/>
</filter>
<filter id="filter8_f" x="953.463" y="442.565" width="51.9227" height="28.6798" filterUnits="userSpaceOnUse" color-interpolation-filters="sRGB">
<feFlood flood-opacity="0" result="BackgroundImageFix"/>
<feBlend mode="normal" in="SourceGraphic" in2="BackgroundImageFix" result="shape"/>
<feGaussianBlur stdDeviation="0.834895" result="effect1_foregroundBlur"/>
</filter>
<filter id="filter9_f" x="1114.62" y="424.416" width="62.1584" height="62.3969" filterUnits="userSpaceOnUse" color-interpolation-filters="sRGB">
<feFlood flood-opacity="0" result="BackgroundImageFix"/>
<feBlend mode="normal" in="SourceGraphic" in2="BackgroundImageFix" result="shape"/>
<feGaussianBlur stdDeviation="0.834895" result="effect1_foregroundBlur"/>
</filter>
<filter id="filter10_f" x="868.38" y="451.119" width="53.0925" height="52.3501" filterUnits="userSpaceOnUse" color-interpolation-filters="sRGB">
<feFlood flood-opacity="0" result="BackgroundImageFix"/>
<feBlend mode="normal" in="SourceGraphic" in2="BackgroundImageFix" result="shape"/>
<feGaussianBlur stdDeviation="0.834895" result="effect1_foregroundBlur"/>
</filter>
<filter id="filter11_f" x="1018.25" y="333.95" width="256.038" height="242.498" filterUnits="userSpaceOnUse" color-interpolation-filters="sRGB">
<feFlood flood-opacity="0" result="BackgroundImageFix"/>
<feBlend mode="normal" in="SourceGraphic" in2="BackgroundImageFix" result="shape"/>
<feGaussianBlur stdDeviation="5.00937" result="effect1_foregroundBlur"/>
</filter>
<filter id="filter12_f" x="840.062" y="381.041" width="215.723" height="151.035" filterUnits="userSpaceOnUse" color-interpolation-filters="sRGB">
<feFlood flood-opacity="0" result="BackgroundImageFix"/>
<feBlend mode="normal" in="SourceGraphic" in2="BackgroundImageFix" result="shape"/>
<feGaussianBlur stdDeviation="0.834895" result="effect1_foregroundBlur"/>
</filter>
<filter id="filter13_f" x="24.7873" y="22.0651" width="668.207" height="622.547" filterUnits="userSpaceOnUse" color-interpolation-filters="sRGB">
<feFlood flood-opacity="0" result="BackgroundImageFix"/>
<feBlend mode="normal" in="SourceGraphic" in2="BackgroundImageFix" result="shape"/>
<feGaussianBlur stdDeviation="4.17447" result="effect1_foregroundBlur"/>
</filter>
<filter id="filter14_f" x="51.008" y="19.0047" width="648.652" height="569.988" filterUnits="userSpaceOnUse" color-interpolation-filters="sRGB">
<feFlood flood-opacity="0" result="BackgroundImageFix"/>
<feBlend mode="normal" in="SourceGraphic" in2="BackgroundImageFix" result="shape"/>
<feGaussianBlur stdDeviation="5.00937" result="effect1_foregroundBlur"/>
</filter>
<filter id="filter15_f" x="51.008" y="19.0047" width="648.652" height="569.988" filterUnits="userSpaceOnUse" color-interpolation-filters="sRGB">
<feFlood flood-opacity="0" result="BackgroundImageFix"/>
<feBlend mode="normal" in="SourceGraphic" in2="BackgroundImageFix" result="shape"/>
<feGaussianBlur stdDeviation="5.00937" result="effect1_foregroundBlur"/>
</filter>
<filter id="filter16_f" x="56.0174" y="24.0141" width="638.633" height="559.969" filterUnits="userSpaceOnUse" color-interpolation-filters="sRGB">
<feFlood flood-opacity="0" result="BackgroundImageFix"/>
<feBlend mode="normal" in="SourceGraphic" in2="BackgroundImageFix" result="shape"/>
<feGaussianBlur stdDeviation="2.50468" result="effect1_foregroundBlur"/>
</filter>
<filter id="filter17_f" x="40.9569" y="20.961" width="669.347" height="586.39" filterUnits="userSpaceOnUse" color-interpolation-filters="sRGB">
<feFlood flood-opacity="0" result="BackgroundImageFix"/>
<feBlend mode="normal" in="SourceGraphic" in2="BackgroundImageFix" result="shape"/>
<feGaussianBlur stdDeviation="12.5234" result="effect1_foregroundBlur"/>
</filter>
<filter id="filter18_f" x="120.019" y="149.073" width="520.203" height="427.365" filterUnits="userSpaceOnUse" color-interpolation-filters="sRGB">
<feFlood flood-opacity="0" result="BackgroundImageFix"/>
<feBlend mode="normal" in="SourceGraphic" in2="BackgroundImageFix" result="shape"/>
<feGaussianBlur stdDeviation="1.25234" result="effect1_foregroundBlur"/>
</filter>
<filter id="filter19_bf" x="55.9584" y="229.616" width="512.376" height="397.611" filterUnits="userSpaceOnUse" color-interpolation-filters="sRGB">
<feFlood flood-opacity="0" result="BackgroundImageFix"/>
<feGaussianBlur in="BackgroundImage" stdDeviation="2.50468"/>
<feComposite in2="SourceAlpha" operator="in" result="effect1_backgroundBlur"/>
<feBlend mode="normal" in="SourceGraphic" in2="effect1_backgroundBlur" result="shape"/>
<feGaussianBlur stdDeviation="1.66979" result="effect2_foregroundBlur"/>
</filter>
<filter id="filter20_d" x="85.9448" y="235.039" width="480.287" height="334.066" filterUnits="userSpaceOnUse" color-interpolation-filters="sRGB">
<feFlood flood-opacity="0" result="BackgroundImageFix"/>
<feColorMatrix in="SourceAlpha" type="matrix" values="0 0 0 0 0 0 0 0 0 0 0 0 0 0 0 0 0 0 127 0"/>
<feOffset dy="3.33958"/>
<feGaussianBlur stdDeviation="1.66979"/>
<feColorMatrix type="matrix" values="0 0 0 0 0 0 0 0 0 0.878431 0 0 0 0 0.792157 0 0 0 0.2 0"/>
<feBlend mode="normal" in2="BackgroundImageFix" result="effect1_dropShadow"/>
<feBlend mode="normal" in="SourceGraphic" in2="effect1_dropShadow" result="shape"/>
</filter>
<filter id="filter21_f" x="155.433" y="61.6349" width="89.5108" height="115.284" filterUnits="userSpaceOnUse" color-interpolation-filters="sRGB">
<feFlood flood-opacity="0" result="BackgroundImageFix"/>
<feBlend mode="normal" in="SourceGraphic" in2="BackgroundImageFix" result="shape"/>
<feGaussianBlur stdDeviation="0.834895" result="effect1_foregroundBlur"/>
</filter>
<filter id="filter22_f" x="155.433" y="61.6349" width="89.5108" height="115.284" filterUnits="userSpaceOnUse" color-interpolation-filters="sRGB">
<feFlood flood-opacity="0" result="BackgroundImageFix"/>
<feBlend mode="normal" in="SourceGraphic" in2="BackgroundImageFix" result="shape"/>
<feGaussianBlur stdDeviation="0.834895" result="effect1_foregroundBlur"/>
</filter>
<filter id="filter23_f" x="335.625" y="487.276" width="51.0223" height="32.5137" filterUnits="userSpaceOnUse" color-interpolation-filters="sRGB">
<feFlood flood-opacity="0" result="BackgroundImageFix"/>
<feBlend mode="normal" in="SourceGraphic" in2="BackgroundImageFix" result="shape"/>
<feGaussianBlur stdDeviation="0.834895" result="effect1_foregroundBlur"/>
</filter>
<filter id="filter24_f" x="210.383" y="354.526" width="64.5215" height="64.7114" filterUnits="userSpaceOnUse" color-interpolation-filters="sRGB">
<feFlood flood-opacity="0" result="BackgroundImageFix"/>
<feBlend mode="normal" in="SourceGraphic" in2="BackgroundImageFix" result="shape"/>
<feGaussianBlur stdDeviation="0.834895" result="effect1_foregroundBlur"/>
</filter>
<filter id="filter25_f" x="400.753" y="514.283" width="69.0949" height="69.1637" filterUnits="userSpaceOnUse" color-interpolation-filters="sRGB">
<feFlood flood-opacity="0" result="BackgroundImageFix"/>
<feBlend mode="normal" in="SourceGraphic" in2="BackgroundImageFix" result="shape"/>
<feGaussianBlur stdDeviation="0.834895" result="effect1_foregroundBlur"/>
</filter>
<filter id="filter26_f" x="110.075" y="260.278" width="263.756" height="252.973" filterUnits="userSpaceOnUse" color-interpolation-filters="sRGB">
<feFlood flood-opacity="0" result="BackgroundImageFix"/>
<feBlend mode="normal" in="SourceGraphic" in2="BackgroundImageFix" result="shape"/>
<feGaussianBlur stdDeviation="5.00937" result="effect1_foregroundBlur"/>
</filter>
<filter id="filter27_f" x="275.017" y="443.674" width="216.279" height="164.767" filterUnits="userSpaceOnUse" color-interpolation-filters="sRGB">
<feFlood flood-opacity="0" result="BackgroundImageFix"/>
<feBlend mode="normal" in="SourceGraphic" in2="BackgroundImageFix" result="shape"/>
<feGaussianBlur stdDeviation="0.834895" result="effect1_foregroundBlur"/>
</filter>
<filter id="filter28_f" x="1315.38" y="801.301" width="641.793" height="560.734" filterUnits="userSpaceOnUse" color-interpolation-filters="sRGB">
<feFlood flood-opacity="0" result="BackgroundImageFix"/>
<feBlend mode="normal" in="SourceGraphic" in2="BackgroundImageFix" result="shape"/>
<feGaussianBlur stdDeviation="12.5" result="effect1_foregroundBlur"/>
</filter>
<filter id="filter29_f" x="1332.03" y="818.499" width="603.794" height="526.885" filterUnits="userSpaceOnUse" color-interpolation-filters="sRGB">
<feFlood flood-opacity="0" result="BackgroundImageFix"/>
<feBlend mode="normal" in="SourceGraphic" in2="BackgroundImageFix" result="shape"/>
<feGaussianBlur stdDeviation="4.17447" result="effect1_foregroundBlur"/>
</filter>
<filter id="filter30_f" x="1341.94" y="815.313" width="600.549" height="468.047" filterUnits="userSpaceOnUse" color-interpolation-filters="sRGB">
<feFlood flood-opacity="0" result="BackgroundImageFix"/>
<feBlend mode="normal" in="SourceGraphic" in2="BackgroundImageFix" result="shape"/>
<feGaussianBlur stdDeviation="5.00937" result="effect1_foregroundBlur"/>
</filter>
<filter id="filter31_f" x="1341.94" y="815.313" width="600.549" height="468.047" filterUnits="userSpaceOnUse" color-interpolation-filters="sRGB">
<feFlood flood-opacity="0" result="BackgroundImageFix"/>
<feBlend mode="normal" in="SourceGraphic" in2="BackgroundImageFix" result="shape"/>
<feGaussianBlur stdDeviation="5.00937" result="effect1_foregroundBlur"/>
</filter>
<filter id="filter32_f" x="1346.95" y="820.323" width="590.531" height="458.029" filterUnits="userSpaceOnUse" color-interpolation-filters="sRGB">
<feFlood flood-opacity="0" result="BackgroundImageFix"/>
<feBlend mode="normal" in="SourceGraphic" in2="BackgroundImageFix" result="shape"/>
<feGaussianBlur stdDeviation="2.50468" result="effect1_foregroundBlur"/>
</filter>
<filter id="filter33_f" x="1333.04" y="816.848" width="624.178" height="484.446" filterUnits="userSpaceOnUse" color-interpolation-filters="sRGB">
<feFlood flood-opacity="0" result="BackgroundImageFix"/>
<feBlend mode="normal" in="SourceGraphic" in2="BackgroundImageFix" result="shape"/>
<feGaussianBlur stdDeviation="12.5234" result="effect1_foregroundBlur"/>
</filter>
<filter id="filter34_f" x="1415.9" y="936.894" width="492.293" height="335.916" filterUnits="userSpaceOnUse" color-interpolation-filters="sRGB">
<feFlood flood-opacity="0" result="BackgroundImageFix"/>
<feBlend mode="normal" in="SourceGraphic" in2="BackgroundImageFix" result="shape"/>
<feGaussianBlur stdDeviation="1.25234" result="effect1_foregroundBlur"/>
</filter>
<filter id="filter35_bf" x="1365.89" y="1035.03" width="494.999" height="301.689" filterUnits="userSpaceOnUse" color-interpolation-filters="sRGB">
<feFlood flood-opacity="0" result="BackgroundImageFix"/>
<feGaussianBlur in="BackgroundImage" stdDeviation="2.50468"/>
<feComposite in2="SourceAlpha" operator="in" result="effect1_backgroundBlur"/>
<feBlend mode="normal" in="SourceGraphic" in2="effect1_backgroundBlur" result="shape"/>
<feGaussianBlur stdDeviation="1.66979" result="effect2_foregroundBlur"/>
</filter>
<filter id="filter36_d" x="1379.5" y="1040.41" width="479.336" height="233.042" filterUnits="userSpaceOnUse" color-interpolation-filters="sRGB">
<feFlood flood-opacity="0" result="BackgroundImageFix"/>
<feColorMatrix in="SourceAlpha" type="matrix" values="0 0 0 0 0 0 0 0 0 0 0 0 0 0 0 0 0 0 127 0"/>
<feOffset dy="3.33958"/>
<feGaussianBlur stdDeviation="1.66979"/>
<feColorMatrix type="matrix" values="0 0 0 0 0 0 0 0 0 0.878431 0 0 0 0 0.792157 0 0 0 0.2 0"/>
<feBlend mode="normal" in2="BackgroundImageFix" result="effect1_dropShadow"/>
<feBlend mode="normal" in="SourceGraphic" in2="effect1_dropShadow" result="shape"/>
</filter>
<filter id="filter37_f" x="1391.19" y="860.49" width="68.0802" height="111.492" filterUnits="userSpaceOnUse" color-interpolation-filters="sRGB">
<feFlood flood-opacity="0" result="BackgroundImageFix"/>
<feBlend mode="normal" in="SourceGraphic" in2="BackgroundImageFix" result="shape"/>
<feGaussianBlur stdDeviation="0.834895" result="effect1_foregroundBlur"/>
</filter>
<filter id="filter38_f" x="1391.19" y="860.49" width="68.0802" height="111.492" filterUnits="userSpaceOnUse" color-interpolation-filters="sRGB">
<feFlood flood-opacity="0" result="BackgroundImageFix"/>
<feBlend mode="normal" in="SourceGraphic" in2="BackgroundImageFix" result="shape"/>
<feGaussianBlur stdDeviation="0.834895" result="effect1_foregroundBlur"/>
</filter>
<filter id="filter39_f" x="1653.92" y="1235.11" width="52.4636" height="21.2877" filterUnits="userSpaceOnUse" color-interpolation-filters="sRGB">
<feFlood flood-opacity="0" result="BackgroundImageFix"/>
<feBlend mode="normal" in="SourceGraphic" in2="BackgroundImageFix" result="shape"/>
<feGaussianBlur stdDeviation="0.834895" result="effect1_foregroundBlur"/>
</filter>
<filter id="filter40_f" x="1507.17" y="1135.25" width="56.6554" height="56.9753" filterUnits="userSpaceOnUse" color-interpolation-filters="sRGB">
<feFlood flood-opacity="0" result="BackgroundImageFix"/>
<feBlend mode="normal" in="SourceGraphic" in2="BackgroundImageFix" result="shape"/>
<feGaussianBlur stdDeviation="0.834895" result="effect1_foregroundBlur"/>
</filter>
<filter id="filter41_f" x="1729.5" y="1236.43" width="68.0465" height="67.8234" filterUnits="userSpaceOnUse" color-interpolation-filters="sRGB">
<feFlood flood-opacity="0" result="BackgroundImageFix"/>
<feBlend mode="normal" in="SourceGraphic" in2="BackgroundImageFix" result="shape"/>
<feGaussianBlur stdDeviation="0.834895" result="effect1_foregroundBlur"/>
</filter>
<filter id="filter42_f" x="1416.25" y="1054.34" width="237.104" height="218.942" filterUnits="userSpaceOnUse" color-interpolation-filters="sRGB">
<feFlood flood-opacity="0" result="BackgroundImageFix"/>
<feBlend mode="normal" in="SourceGraphic" in2="BackgroundImageFix" result="shape"/>
<feGaussianBlur stdDeviation="5.00937" result="effect1_foregroundBlur"/>
</filter>
<filter id="filter43_f" x="1602.21" y="1200.16" width="210.076" height="123.31" filterUnits="userSpaceOnUse" color-interpolation-filters="sRGB">
<feFlood flood-opacity="0" result="BackgroundImageFix"/>
<feBlend mode="normal" in="SourceGraphic" in2="BackgroundImageFix" result="shape"/>
<feGaussianBlur stdDeviation="0.834895" result="effect1_foregroundBlur"/>
</filter>
<filter id="filter44_f" x="1445" y="706" width="138.728" height="140.423" filterUnits="userSpaceOnUse" color-interpolation-filters="sRGB">
<feFlood flood-opacity="0" result="BackgroundImageFix"/>
<feBlend mode="normal" in="SourceGraphic" in2="BackgroundImageFix" result="shape"/>
<feGaussianBlur stdDeviation="6.5" result="effect1_foregroundBlur"/>
</filter>
<filter id="filter45_f" x="1451.3" y="707.305" width="134.121" height="135.816" filterUnits="userSpaceOnUse" color-interpolation-filters="sRGB">
<feFlood flood-opacity="0" result="BackgroundImageFix"/>
<feBlend mode="normal" in="SourceGraphic" in2="BackgroundImageFix" result="shape"/>
<feGaussianBlur stdDeviation="5" result="effect1_foregroundBlur"/>
</filter>
<linearGradient id="paint0_linear" x1="1260.42" y1="412.771" x2="1218.49" y2="589.914" gradientUnits="userSpaceOnUse">
<stop stop-color="white"/>
<stop offset="1" stop-color="white" stop-opacity="0"/>
</linearGradient>
<linearGradient id="paint1_linear" x1="1154.23" y1="812.203" x2="1179.27" y2="634.177" gradientUnits="userSpaceOnUse">
<stop stop-color="white"/>
<stop offset="1" stop-color="white" stop-opacity="0"/>
</linearGradient>
<linearGradient id="paint2_linear" x1="1381.84" y1="675.991" x2="1299.77" y2="627.731" gradientUnits="userSpaceOnUse">
<stop stop-color="white"/>
<stop offset="1" stop-color="white" stop-opacity="0"/>
</linearGradient>
<radialGradient id="paint3_radial" cx="0" cy="0" r="1" gradientUnits="userSpaceOnUse" gradientTransform="translate(1183.38 599.985) rotate(108.669) scale(148.524 73.516)">
<stop stop-color="white"/>
<stop offset="1" stop-color="white" stop-opacity="0"/>
</radialGradient>
<radialGradient id="paint4_radial" cx="0" cy="0" r="1" gradientUnits="userSpaceOnUse" gradientTransform="translate(1138.41 783.24) rotate(-84.9593) scale(131.114 160.511)">
<stop stop-color="#FFAB8B"/>
<stop offset="1" stop-color="white" stop-opacity="0"/>
</radialGradient>
<radialGradient id="paint5_radial" cx="0" cy="0" r="1" gradientUnits="userSpaceOnUse" gradientTransform="translate(840.013 542.424) rotate(60.3625) scale(183.446 224.577)">
<stop stop-color="#FFDA92"/>
<stop offset="1" stop-color="white" stop-opacity="0"/>
</radialGradient>
<radialGradient id="paint6_radial" cx="0" cy="0" r="1" gradientUnits="userSpaceOnUse" gradientTransform="translate(1110.48 608.043) rotate(-152.221) scale(308.414 450.003)">
<stop stop-color="#FFDA92"/>
<stop offset="1" stop-color="#FFDA92" stop-opacity="0"/>
</radialGradient>
<linearGradient id="paint7_linear" x1="1088.44" y1="696.334" x2="1277.21" y2="613.303" gradientUnits="userSpaceOnUse">
<stop stop-color="#FFDA92" stop-opacity="0"/>
<stop offset="0.588542" stop-color="#FFD691"/>
<stop offset="1" stop-color="#FFAB8B"/>
</linearGradient>
<radialGradient id="paint8_radial" cx="0" cy="0" r="1" gradientUnits="userSpaceOnUse" gradientTransform="translate(858.009 499.994) rotate(-23.1841) scale(205.741 436.99)">
<stop stop-color="#FFDA92"/>
<stop offset="1" stop-color="#FFDA92" stop-opacity="0"/>
</radialGradient>
<radialGradient id="paint9_radial" cx="0" cy="0" r="1" gradientUnits="userSpaceOnUse" gradientTransform="translate(1207.21 464.273) rotate(173.558) scale(139.02 295.276)">
<stop stop-color="#FFDA92"/>
<stop offset="1" stop-color="white" stop-opacity="0"/>
</radialGradient>
<linearGradient id="paint10_linear" x1="1031.12" y1="375.146" x2="1103.39" y2="575.771" gradientUnits="userSpaceOnUse">
<stop stop-color="#FFAB8B"/>
<stop offset="0.59375" stop-color="#FFDA92" stop-opacity="0.942708"/>
<stop offset="1" stop-color="#FFDA92" stop-opacity="0"/>
</linearGradient>
<radialGradient id="paint11_radial" cx="0" cy="0" r="1" gradientUnits="userSpaceOnUse" gradientTransform="translate(1004.65 491.984) rotate(160.681) scale(97.2689 298.204)">
<stop stop-color="#FFAB8B"/>
<stop offset="1" stop-color="#FFDA92" stop-opacity="0"/>
</radialGradient>
<radialGradient id="paint12_radial" cx="0" cy="0" r="1" gradientUnits="userSpaceOnUse" gradientTransform="translate(1379.19 615.3) rotate(84.7904) scale(51.3342 23.9099)">
<stop stop-color="#FFDA92"/>
<stop offset="1" stop-color="#FFDA92" stop-opacity="0"/>
</radialGradient>
<radialGradient id="paint13_radial" cx="0" cy="0" r="1" gradientUnits="userSpaceOnUse" gradientTransform="translate(1379.19 615.3) rotate(84.7904) scale(51.3342 23.9099)">
<stop stop-color="#FFDA92"/>
<stop offset="1" stop-color="#FFDA92" stop-opacity="0"/>
</radialGradient>
<radialGradient id="paint14_radial" cx="0" cy="0" r="1" gradientUnits="userSpaceOnUse" gradientTransform="translate(979.381 456.934) rotate(71.408) scale(9.81224 53.7337)">
<stop stop-color="#FFAB8B"/>
<stop offset="1" stop-color="#FFDA92" stop-opacity="0.35"/>
</radialGradient>
<radialGradient id="paint15_radial" cx="0" cy="0" r="1" gradientUnits="userSpaceOnUse" gradientTransform="translate(1145.6 437.999) rotate(71.408) scale(9.81224 53.7337)">
<stop stop-color="#FFDA92"/>
<stop offset="1" stop-color="#FFDA92" stop-opacity="0"/>
</radialGradient>
<radialGradient id="paint16_radial" cx="0" cy="0" r="1" gradientUnits="userSpaceOnUse" gradientTransform="translate(878.701 470.369) rotate(4.73851) scale(9.81224 53.7337)">
<stop stop-color="#FFDA92"/>
<stop offset="1" stop-color="#FFDA92" stop-opacity="0"/>
</radialGradient>
<linearGradient id="paint17_linear" x1="953.872" y1="395.358" x2="1133.29" y2="459.845" gradientUnits="userSpaceOnUse">
<stop stop-color="#FFAB8B"/>
<stop offset="1" stop-color="#FFAB8B" stop-opacity="0"/>
</linearGradient>
<linearGradient id="paint18_linear" x1="1176.97" y1="475.169" x2="1050.82" y2="462.486" gradientUnits="userSpaceOnUse">
<stop stop-color="#FFAB8B" stop-opacity="0.1"/>
<stop offset="0.473543" stop-color="#FFAB8B" stop-opacity="0.38"/>
<stop offset="0.671875" stop-color="#FFAB8B" stop-opacity="0"/>
</linearGradient>
<linearGradient id="paint19_linear" x1="917.959" y1="406.526" x2="993.547" y2="425.441" gradientUnits="userSpaceOnUse">
<stop stop-color="#FFAB8B"/>
<stop offset="1" stop-color="#FFAB8B" stop-opacity="0"/>
</linearGradient>
<linearGradient id="paint20_linear" x1="131.229" y1="336.051" x2="286.135" y2="240.44" gradientUnits="userSpaceOnUse">
<stop stop-color="white"/>
<stop offset="1" stop-color="white" stop-opacity="0"/>
</linearGradient>
<linearGradient id="paint21_linear" x1="488.758" y1="128.698" x2="345.163" y2="236.871" gradientUnits="userSpaceOnUse">
<stop stop-color="white"/>
<stop offset="1" stop-color="white" stop-opacity="0"/>
</linearGradient>
<linearGradient id="paint22_linear" x1="231.492" y1="64.0654" x2="255.403" y2="156.226" gradientUnits="userSpaceOnUse">
<stop stop-color="white"/>
<stop offset="1" stop-color="white" stop-opacity="0"/>
</linearGradient>
<radialGradient id="paint23_radial" cx="0" cy="0" r="1" gradientUnits="userSpaceOnUse" gradientTransform="translate(318.085 258.147) rotate(-26.3308) scale(148.524 73.516)">
<stop stop-color="white"/>
<stop offset="1" stop-color="white" stop-opacity="0"/>
</radialGradient>
<radialGradient id="paint24_radial" cx="0" cy="0" r="1" gradientUnits="userSpaceOnUse" gradientTransform="translate(479.461 160.361) rotate(140.041) scale(131.114 160.511)">
<stop stop-color="#FFAB8B"/>
<stop offset="1" stop-color="white" stop-opacity="0"/>
</radialGradient>
<radialGradient id="paint25_radial" cx="0" cy="0" r="1" gradientUnits="userSpaceOnUse" gradientTransform="translate(520.178 541.644) rotate(-74.6376) scale(183.446 224.577)">
<stop stop-color="#FFDA92"/>
<stop offset="1" stop-color="white" stop-opacity="0"/>
</radialGradient>
<radialGradient id="paint26_radial" cx="0" cy="0" r="1" gradientUnits="userSpaceOnUse" gradientTransform="translate(375.335 303.996) rotate(72.779) scale(308.413 450.003)">
<stop stop-color="#FFDA92"/>
<stop offset="1" stop-color="#FFDA92" stop-opacity="0"/>
</radialGradient>
<linearGradient id="paint27_linear" x1="586.692" y1="403.169" x2="441.752" y2="464.167" gradientUnits="userSpaceOnUse">
<stop stop-color="#00E0CA"/>
<stop offset="1" stop-color="#00E0CA" stop-opacity="0"/>
</linearGradient>
<linearGradient id="paint28_linear" x1="299.257" y1="465.747" x2="451.411" y2="142.246" gradientUnits="userSpaceOnUse">
<stop stop-color="#FFAB8B"/>
<stop offset="1" stop-color="#00E0CA" stop-opacity="0"/>
</linearGradient>
<linearGradient id="paint29_linear" x1="284.409" y1="78.7758" x2="334.286" y2="273.844" gradientUnits="userSpaceOnUse">
<stop stop-color="#FFDA92"/>
<stop offset="1" stop-color="#FFDA92" stop-opacity="0"/>
</linearGradient>
<linearGradient id="paint30_linear" x1="160.197" y1="240.863" x2="334.285" y2="273.844" gradientUnits="userSpaceOnUse">
<stop stop-color="#E97C52"/>
<stop offset="1" stop-color="#FFDA92" stop-opacity="0"/>
</linearGradient>
<linearGradient id="paint31_linear" x1="461.982" y1="521.198" x2="416.608" y2="288.113" gradientUnits="userSpaceOnUse">
<stop stop-color="#FFAB8B"/>
<stop offset="1" stop-color="white" stop-opacity="0"/>
</linearGradient>
<linearGradient id="paint32_linear" x1="453.349" y1="257.15" x2="261.157" y2="182.383" gradientUnits="userSpaceOnUse">
<stop stop-color="#FFDA92" stop-opacity="0"/>
<stop offset="0.588542" stop-color="#FFD691"/>
<stop offset="1" stop-color="#FFAB8B"/>
</linearGradient>
<radialGradient id="paint33_radial" cx="0" cy="0" r="1" gradientUnits="userSpaceOnUse" gradientTransform="translate(477.456 558.919) rotate(-158.184) scale(205.741 436.99)">
<stop stop-color="#FFDA92"/>
<stop offset="1" stop-color="#FFDA92" stop-opacity="0"/>
</radialGradient>
<radialGradient id="paint34_radial" cx="0" cy="0" r="1" gradientUnits="userSpaceOnUse" gradientTransform="translate(205.278 337.257) rotate(38.5578) scale(139.02 295.276)">
<stop stop-color="#FFDA92"/>
<stop offset="1" stop-color="white" stop-opacity="0"/>
</radialGradient>
<linearGradient id="paint35_linear" x1="266.77" y1="524.794" x2="357.529" y2="331.826" gradientUnits="userSpaceOnUse">
<stop stop-color="#FFAB8B"/>
<stop offset="0.59375" stop-color="#FFDA92" stop-opacity="0.942708"/>
<stop offset="1" stop-color="#FFDA92" stop-opacity="0"/>
</linearGradient>
<radialGradient id="paint36_radial" cx="0" cy="0" r="1" gradientUnits="userSpaceOnUse" gradientTransform="translate(368.098 460.897) rotate(25.681) scale(97.2689 298.204)">
<stop stop-color="#FFAB8B"/>
<stop offset="1" stop-color="#FFDA92" stop-opacity="0"/>
</radialGradient>
<radialGradient id="paint37_radial" cx="0" cy="0" r="1" gradientUnits="userSpaceOnUse" gradientTransform="translate(190.454 108.859) rotate(-50.2096) scale(51.3342 23.9099)">
<stop stop-color="#FFDA92"/>
<stop offset="1" stop-color="#FFDA92" stop-opacity="0"/>
</radialGradient>
<radialGradient id="paint38_radial" cx="0" cy="0" r="1" gradientUnits="userSpaceOnUse" gradientTransform="translate(190.454 108.859) rotate(-50.2096) scale(51.3342 23.9099)">
<stop stop-color="#FFDA92"/>
<stop offset="1" stop-color="#FFDA92" stop-opacity="0"/>
</radialGradient>
<radialGradient id="paint39_radial" cx="0" cy="0" r="1" gradientUnits="userSpaceOnUse" gradientTransform="translate(361.186 503.544) rotate(-63.592) scale(9.81224 53.7337)">
<stop stop-color="#FFAB8B"/>
<stop offset="1" stop-color="#FFDA92" stop-opacity="0.35"/>
</radialGradient>
<radialGradient id="paint40_radial" cx="0" cy="0" r="1" gradientUnits="userSpaceOnUse" gradientTransform="translate(230.256 399.399) rotate(-63.592) scale(9.81224 53.7337)">
<stop stop-color="#FFDA92"/>
<stop offset="1" stop-color="#FFDA92" stop-opacity="0"/>
</radialGradient>
<radialGradient id="paint41_radial" cx="0" cy="0" r="1" gradientUnits="userSpaceOnUse" gradientTransform="translate(441.876 565.236) rotate(-130.261) scale(9.81224 53.7337)">
<stop stop-color="#FFDA92"/>
<stop offset="1" stop-color="#FFDA92" stop-opacity="0"/>
</radialGradient>
<linearGradient id="paint42_linear" x1="335.68" y1="565.126" x2="254.413" y2="392.661" gradientUnits="userSpaceOnUse">
<stop stop-color="#FFAB8B"/>
<stop offset="1" stop-color="#FFAB8B" stop-opacity="0"/>
</linearGradient>
<linearGradient id="paint43_linear" x1="234.363" y1="350.939" x2="314.592" y2="449.106" gradientUnits="userSpaceOnUse">
<stop stop-color="#FFAB8B" stop-opacity="0.1"/>
<stop offset="0.473543" stop-color="#FFAB8B" stop-opacity="0.38"/>
<stop offset="0.671875" stop-color="#FFAB8B" stop-opacity="0"/>
</linearGradient>
<linearGradient id="paint44_linear" x1="368.967" y1="582.625" x2="328.894" y2="515.8" gradientUnits="userSpaceOnUse">
<stop stop-color="#FFAB8B"/>
<stop offset="1" stop-color="#FFAB8B" stop-opacity="0"/>
</linearGradient>
<linearGradient id="paint45_linear" x1="1414.73" y1="1143.48" x2="1539.61" y2="1011.04" gradientUnits="userSpaceOnUse">
<stop stop-color="white"/>
<stop offset="1" stop-color="white" stop-opacity="0"/>
</linearGradient>
<linearGradient id="paint46_linear" x1="1706.41" y1="850.659" x2="1595.7" y2="992.311" gradientUnits="userSpaceOnUse">
<stop stop-color="white"/>
<stop offset="1" stop-color="white" stop-opacity="0"/>
</linearGradient>
<linearGradient id="paint47_linear" x1="1441.18" y1="854.814" x2="1488.13" y2="937.646" gradientUnits="userSpaceOnUse">
<stop stop-color="white"/>
<stop offset="1" stop-color="white" stop-opacity="0"/>
</linearGradient>
<radialGradient id="paint48_radial" cx="0" cy="0" r="1" gradientUnits="userSpaceOnUse" gradientTransform="translate(1575.05 1019.87) rotate(-41.3308) scale(148.524 73.516)">
<stop stop-color="white"/>
<stop offset="1" stop-color="white" stop-opacity="0"/>
</radialGradient>
<radialGradient id="paint49_radial" cx="0" cy="0" r="1" gradientUnits="userSpaceOnUse" gradientTransform="translate(1705.62 883.65) rotate(125.041) scale(131.114 160.511)">
<stop stop-color="#FFAB8B"/>
<stop offset="1" stop-color="white" stop-opacity="0"/>
</radialGradient>
<radialGradient id="paint50_radial" cx="0" cy="0" r="1" gradientUnits="userSpaceOnUse" gradientTransform="translate(1843.64 1241.4) rotate(-89.6376) scale(183.446 224.577)">
<stop stop-color="#FFDA92"/>
<stop offset="1" stop-color="white" stop-opacity="0"/>
</radialGradient>
<radialGradient id="paint51_radial" cx="0" cy="0" r="1" gradientUnits="userSpaceOnUse" gradientTransform="translate(1642.22 1049.34) rotate(57.779) scale(308.414 450.003)">
<stop stop-color="#FFDA92"/>
<stop offset="1" stop-color="#FFDA92" stop-opacity="0"/>
</radialGradient>
<linearGradient id="paint52_linear" x1="1872.04" y1="1090.43" x2="1747.83" y2="1186.86" gradientUnits="userSpaceOnUse">
<stop stop-color="#00E0CA"/>
<stop offset="1" stop-color="#00E0CA" stop-opacity="0"/>
</linearGradient>
<linearGradient id="paint53_linear" x1="1610.6" y1="1225.27" x2="1673.84" y2="873.407" gradientUnits="userSpaceOnUse">
<stop stop-color="#FFAB8B"/>
<stop offset="1" stop-color="#00E0CA" stop-opacity="0"/>
</linearGradient>
<linearGradient id="paint54_linear" x1="1496.1" y1="855.323" x2="1594.76" y2="1030.83" gradientUnits="userSpaceOnUse">
<stop stop-color="#FFDA92"/>
<stop offset="1" stop-color="#FFDA92" stop-opacity="0"/>
</linearGradient>
<linearGradient id="paint55_linear" x1="1418.07" y1="1044.04" x2="1594.76" y2="1030.83" gradientUnits="userSpaceOnUse">
<stop stop-color="#E97C52"/>
<stop offset="1" stop-color="#FFDA92" stop-opacity="0"/>
</linearGradient>
<linearGradient id="paint56_linear" x1="1782.13" y1="1236.71" x2="1677.97" y2="1023.31" gradientUnits="userSpaceOnUse">
<stop stop-color="#FFAB8B"/>
<stop offset="1" stop-color="white" stop-opacity="0"/>
</linearGradient>
<linearGradient id="paint57_linear" x1="1705.45" y1="983.895" x2="1500.46" y2="961.418" gradientUnits="userSpaceOnUse">
<stop stop-color="#FFDA92" stop-opacity="0"/>
<stop offset="0.588542" stop-color="#FFD691"/>
<stop offset="1" stop-color="#FFAB8B"/>
</linearGradient>
<radialGradient id="paint58_radial" cx="0" cy="0" r="1" gradientUnits="userSpaceOnUse" gradientTransform="translate(1806.84 1269.14) rotate(-173.184) scale(205.741 436.99)">
<stop stop-color="#FFDA92"/>
<stop offset="1" stop-color="#FFDA92" stop-opacity="0"/>
</radialGradient>
<radialGradient id="paint59_radial" cx="0" cy="0" r="1" gradientUnits="userSpaceOnUse" gradientTransform="translate(1486.57 1125.48) rotate(23.5578) scale(139.02 295.276)">
<stop stop-color="#FFDA92"/>
<stop offset="1" stop-color="white" stop-opacity="0"/>
</radialGradient>
<linearGradient id="paint60_linear" x1="1594.5" y1="1290.71" x2="1632.22" y2="1080.83" gradientUnits="userSpaceOnUse">
<stop stop-color="#FFAB8B"/>
<stop offset="0.59375" stop-color="#FFDA92" stop-opacity="0.942708"/>
<stop offset="1" stop-color="#FFDA92" stop-opacity="0"/>
</linearGradient>
<radialGradient id="paint61_radial" cx="0" cy="0" r="1" gradientUnits="userSpaceOnUse" gradientTransform="translate(1675.84 1202.76) rotate(10.681) scale(97.2689 298.204)">
<stop stop-color="#FFAB8B"/>
<stop offset="1" stop-color="#FFDA92" stop-opacity="0"/>
</radialGradient>
<radialGradient id="paint62_radial" cx="0" cy="0" r="1" gradientUnits="userSpaceOnUse" gradientTransform="translate(1413.13 908.697) rotate(-65.2096) scale(51.3342 23.9099)">
<stop stop-color="#FFDA92"/>
<stop offset="1" stop-color="#FFDA92" stop-opacity="0"/>
</radialGradient>
<radialGradient id="paint63_radial" cx="0" cy="0" r="1" gradientUnits="userSpaceOnUse" gradientTransform="translate(1413.13 908.697) rotate(-65.2096) scale(51.3342 23.9099)">
<stop stop-color="#FFDA92"/>
<stop offset="1" stop-color="#FFDA92" stop-opacity="0"/>
</radialGradient>
<radialGradient id="paint64_radial" cx="0" cy="0" r="1" gradientUnits="userSpaceOnUse" gradientTransform="translate(1680.2 1245.75) rotate(-78.592) scale(9.81224 53.7337)">
<stop stop-color="#FFAB8B"/>
<stop offset="1" stop-color="#FFDA92" stop-opacity="0.35"/>
</radialGradient>
<radialGradient id="paint65_radial" cx="0" cy="0" r="1" gradientUnits="userSpaceOnUse" gradientTransform="translate(1526.78 1179.04) rotate(-78.592) scale(9.81224 53.7337)">
<stop stop-color="#FFDA92"/>
<stop offset="1" stop-color="#FFDA92" stop-opacity="0"/>
</radialGradient>
<radialGradient id="paint66_radial" cx="0" cy="0" r="1" gradientUnits="userSpaceOnUse" gradientTransform="translate(1774.11 1284.45) rotate(-145.261) scale(9.81224 53.7337)">
<stop stop-color="#FFDA92"/>
<stop offset="1" stop-color="#FFDA92" stop-opacity="0"/>
</radialGradient>
<linearGradient id="paint67_linear" x1="1671.5" y1="1311.83" x2="1548.37" y2="1166.28" gradientUnits="userSpaceOnUse">
<stop stop-color="#FFAB8B"/>
<stop offset="1" stop-color="#FFAB8B" stop-opacity="0"/>
</linearGradient>
<linearGradient id="paint68_linear" x1="1518.2" y1="1131.17" x2="1621.1" y2="1205.22" gradientUnits="userSpaceOnUse">
<stop stop-color="#FFAB8B" stop-opacity="0.1"/>
<stop offset="0.473543" stop-color="#FFAB8B" stop-opacity="0.38"/>
<stop offset="0.671875" stop-color="#FFAB8B" stop-opacity="0"/>
</linearGradient>
<linearGradient id="paint69_linear" x1="1708.18" y1="1320.12" x2="1652.18" y2="1265.95" gradientUnits="userSpaceOnUse">
<stop stop-color="#FFAB8B"/>
<stop offset="1" stop-color="#FFAB8B" stop-opacity="0"/>
</linearGradient>
<linearGradient id="paint70_linear" x1="1510.12" y1="814.111" x2="1499.78" y2="783.605" gradientUnits="userSpaceOnUse">
<stop stop-color="white"/>
<stop offset="1" stop-color="white" stop-opacity="0"/>
</linearGradient>
<linearGradient id="paint71_linear" x1="1481.01" y1="746.789" x2="1494.24" y2="776.072" gradientUnits="userSpaceOnUse">
<stop stop-color="white"/>
<stop offset="1" stop-color="white" stop-opacity="0"/>
</linearGradient>
<linearGradient id="paint72_linear" x1="1464.29" y1="787.013" x2="1480.75" y2="784.678" gradientUnits="userSpaceOnUse">
<stop stop-color="white"/>
<stop offset="1" stop-color="white" stop-opacity="0"/>
</linearGradient>
<radialGradient id="paint73_radial" cx="0" cy="0" r="1" gradientUnits="userSpaceOnUse" gradientTransform="translate(1500.27 780.097) rotate(-109.752) scale(26.1695 12.5332)">
<stop stop-color="white"/>
<stop offset="1" stop-color="white" stop-opacity="0"/>
</radialGradient>
<radialGradient id="paint74_radial" cx="0" cy="0" r="1" gradientUnits="userSpaceOnUse" gradientTransform="translate(1478.09 738.4) rotate(54.8852) scale(54.4654 61.5577)">
<stop stop-color="#FFAB8B"/>
<stop offset="1" stop-color="white" stop-opacity="0"/>
</radialGradient>
<radialGradient id="paint75_radial" cx="0" cy="0" r="1" gradientUnits="userSpaceOnUse" gradientTransform="translate(1554.4 757.444) rotate(-152.487) scale(65.6346 71.8737)">
<stop stop-color="#FFDA92"/>
<stop offset="1" stop-color="white" stop-opacity="0"/>
</radialGradient>
<linearGradient id="paint76_linear" x1="1503.82" y1="809.101" x2="1515.78" y2="782.375" gradientUnits="userSpaceOnUse">
<stop stop-color="#E97C52"/>
<stop offset="1" stop-color="#FFDA92" stop-opacity="0"/>
</linearGradient>
<linearGradient id="paint77_linear" x1="1562.91" y1="772.414" x2="1517.65" y2="779.957" gradientUnits="userSpaceOnUse">
<stop stop-color="#FFAB8B"/>
<stop offset="1" stop-color="white" stop-opacity="0"/>
</linearGradient>
<clipPath id="clip0">
<rect width="734" height="560" fill="white" transform="translate(739 309)"/>
</clipPath>
</defs>
</svg>
