<svg width="884" height="134" viewBox="0 0 884 134" fill="none" xmlns="http://www.w3.org/2000/svg">
<path d="M261.332 61.9501H301.263V55.7104H271.862L287.026 42.5564C296.798 34.1244 300.674 27.8847 300.674 20.0429C300.674 9.67145 292.249 3.01013 282.224 3.01013C273.126 3.01013 266.639 7.31048 261.837 14.1404L266.471 17.9349C270.43 12.5383 275.232 8.91257 281.971 8.91257C288.121 8.91257 294.018 13.0443 294.018 20.1272C294.018 25.861 290.649 31.4261 282.477 38.4247L261.332 56.4693V61.9501Z" fill="#FF7733"/>
<path d="M321.808 61.585C324.251 61.585 326.272 59.477 326.272 56.9474C326.272 54.5864 324.251 52.4784 321.808 52.4784C319.196 52.4784 317.174 54.5864 317.174 56.9474C317.174 59.477 319.196 61.585 321.808 61.585Z" fill="#FF7733"/>
<path d="M365.608 61.585C379.677 61.585 389.618 49.1899 389.618 31.5669C389.618 14.0283 379.677 1.63318 365.608 1.63318C351.455 1.63318 341.515 14.0283 341.515 31.5669C341.515 49.1899 351.455 61.585 365.608 61.585ZM365.608 55.5139C355.415 55.5139 348.17 45.5641 348.17 31.5669C348.17 17.5697 355.415 7.70425 365.608 7.70425C375.802 7.70425 382.963 17.5697 382.963 31.5669C382.963 45.5641 375.802 55.5139 365.608 55.5139Z" fill="#FF7733"/>
<path d="M439.104 61.9499H458.649C477.014 61.9499 489.987 49.8921 489.987 32.9437C489.987 15.9953 477.014 4.02179 458.649 4.02179H439.104V61.9499ZM445.675 55.9632V10.0085H458.649C473.139 10.0085 483.332 19.5368 483.332 32.9437C483.332 46.435 473.139 55.9632 458.649 55.9632H445.675Z" fill="#485776"/>
<path d="M564.604 10.2615V4.02179H523.071V61.9499H564.604V55.7102H529.727V35.5576H561.15V29.3179H529.727V10.2615H564.604Z" fill="#485776"/>
<path d="M644.042 4.02179L622.138 53.8552L600.151 4.02179H592.99L618.516 61.9499H625.676L651.202 4.02179H644.042Z" fill="#485776"/>
<path d="M682.868 61.9499H689.439V14.8148L725.327 61.9499H731.898V4.02179H725.327V51.1569L689.439 4.02179H682.868V61.9499Z" fill="#485776"/>
<path d="M809.026 10.2615V4.02179H767.494V61.9499H809.026V55.7102H774.149V35.5576H805.572V29.3179H774.149V10.2615H809.026Z" fill="#485776"/>
<path d="M857.968 61.9499H864.539V10.2615H883.999V4.02179H838.507V10.2615H857.968V61.9499Z" fill="#485776"/>
<path fill-rule="evenodd" clip-rule="evenodd" d="M60.2667 0C43.4923 0 29.2282 14.3579 29.2282 31.3113C29.2282 48.3717 43.5896 62.7198 60.2667 62.6226C77.0411 62.6226 91.1982 48.3717 91.1982 31.3113C91.1982 14.251 77.1384 0 60.2667 0ZM60.2667 6.42558C73.3243 6.42558 84.2705 17.8672 84.2705 31.3113C84.2705 44.8624 73.3243 56.2943 60.2667 56.2943C47.2091 56.2943 36.1656 44.8624 36.1656 31.3113C36.1656 17.8672 47.2091 6.42558 60.2667 6.42558Z" fill="#485776"/>
<path d="M0 1.44697H6.9277V61.9504H0V1.44697Z" fill="#485776"/>
<path d="M126.752 7.63125H106.368V1.10847H153.977V7.63125H133.583V61.6119H126.655L126.752 7.63125Z" fill="#485776"/>
<path d="M167.325 61.9504L190.327 9.87507L213.134 61.9504H220.665L195.454 4.85904C194.55 2.74959 192.535 1.44697 190.229 1.44697C188.021 1.44697 185.909 2.74959 185.004 4.85904L159.794 61.9504H167.325Z" fill="#485776"/>
<path d="M215 132.96H218.12V110.6L235.16 132.96H238.28V105.48H235.16V127.84L218.12 105.48H215V132.96Z" fill="#677695"/>
<path d="M274.901 108.44V105.48H255.181V132.96H274.901V130H258.341V120.44H273.261V117.48H258.341V108.44H274.901Z" fill="#677695"/>
<path d="M303.259 133.44C307.059 133.44 310.579 131.8 313.139 129.24L311.019 127.08C309.019 129.2 306.259 130.56 303.259 130.56C297.339 130.56 292.339 125.36 292.339 119.2C292.339 113.08 297.339 107.88 303.259 107.88C306.259 107.88 309.019 109.24 311.019 111.36L313.139 109.2C310.579 106.6 307.059 105 303.259 105C295.659 105 289.179 111.48 289.179 119.2C289.179 126.92 295.659 133.44 303.259 133.44Z" fill="#677695"/>
<path d="M335.327 132.96H338.447V108.44H347.687V105.48H326.087V108.44H335.327V132.96Z" fill="#677695"/>
<path d="M382.19 132.96H385.59L373.47 105.48H370.07L357.95 132.96H361.35L364.11 126.72H379.43L382.19 132.96ZM365.39 123.76L371.79 109.32L378.15 123.76H365.39Z" fill="#677695"/>
<path d="M421.305 114.28C421.305 109.12 416.865 105.48 411.185 105.48H400.025V132.96H403.145V123.08H410.425L417.385 132.96H420.945L413.825 122.8C418.185 121.88 421.305 118.6 421.305 114.28ZM403.145 108.44H410.625C415.105 108.44 418.145 110.6 418.145 114.28C418.145 117.96 415.105 120.12 410.625 120.12H403.145V108.44Z" fill="#677695"/>
<path d="M465.362 132.96H468.442L476.122 109.56L483.762 132.96H486.842L496.242 105.48H492.722L485.122 127.72L477.842 105.48H474.362L467.082 127.72L459.482 105.48H455.962L465.362 132.96Z" fill="#677695"/>
<path d="M531.643 132.96H535.043L522.923 105.48H519.523L507.403 132.96H510.803L513.563 126.72H528.883L531.643 132.96ZM514.843 123.76L521.243 109.32L527.603 123.76H514.843Z" fill="#677695"/>
<path d="M552.158 130V105.48H549.038V132.96H567.158V130H552.158Z" fill="#677695"/>
<path d="M584.346 130V105.48H581.226V132.96H599.346V130H584.346Z" fill="#677695"/>
<path d="M633.573 108.44V105.48H613.853V132.96H633.573V130H617.013V120.44H631.933V117.48H617.013V108.44H633.573Z" fill="#677695"/>
<path d="M656.811 132.96H659.931V108.44H669.171V105.48H647.571V108.44H656.811V132.96Z" fill="#677695"/>
</svg>
