<svg width="261" height="40" viewBox="0 0 261 40" fill="none" xmlns="http://www.w3.org/2000/svg">
<path d="M62.9434 39.8622H63.8303V33.43L68.6741 39.8622H69.561V31.9572H68.6741V38.3894L63.8303 31.9572H62.9434V39.8622Z" fill="#485776"/>
<path d="M79.9712 32.8087V31.9572H74.3655V39.8622H79.9712V39.0107H75.2638V36.2606H79.505V35.4092H75.2638V32.8087H79.9712Z" fill="#485776"/>
<path d="M88.0324 40.0003C89.1126 40.0003 90.1132 39.5285 90.8409 38.7921L90.2383 38.1707C89.6698 38.7806 88.8852 39.1718 88.0324 39.1718C86.3496 39.1718 84.9282 37.676 84.9282 35.9039C84.9282 34.1434 86.3496 32.6476 88.0324 32.6476C88.8852 32.6476 89.6698 33.0388 90.2383 33.6487L90.8409 33.0273C90.1132 32.2794 89.1126 31.8191 88.0324 31.8191C85.872 31.8191 84.03 33.6832 84.03 35.9039C84.03 38.1247 85.872 40.0003 88.0324 40.0003Z" fill="#485776"/>
<path d="M97.1481 39.8622H98.035V32.8087H100.662V31.9572H94.5215V32.8087H97.1481V39.8622Z" fill="#485776"/>
<path d="M110.47 39.8622H111.436L107.991 31.9572H107.024L103.579 39.8622H104.545L105.33 38.0672H109.685L110.47 39.8622ZM105.694 37.2157L107.513 33.0618L109.321 37.2157H105.694Z" fill="#485776"/>
<path d="M121.589 34.4886C121.589 33.0043 120.326 31.9572 118.712 31.9572H115.539V39.8622H116.426V37.0201H118.496L120.474 39.8622H121.486L119.462 36.9395C120.702 36.6749 121.589 35.7313 121.589 34.4886ZM116.426 32.8087H118.553C119.826 32.8087 120.69 33.43 120.69 34.4886C120.69 35.5472 119.826 36.1686 118.553 36.1686H116.426V32.8087Z" fill="#485776"/>
<path d="M137.967 34.4886C137.967 33.0043 136.705 31.9572 135.09 31.9572H131.918V39.8622H132.805V37.0201H134.874L136.853 39.8622H137.865L135.841 36.9395C137.08 36.6749 137.967 35.7313 137.967 34.4886ZM132.805 32.8087H134.931C136.205 32.8087 137.069 33.43 137.069 34.4886C137.069 35.5472 136.205 36.1686 134.931 36.1686H132.805V32.8087Z" fill="#485776"/>
<path d="M147.762 32.8087V31.9572H142.156V39.8622H147.762V39.0107H143.054V36.2606H147.296V35.4092H143.054V32.8087H147.762Z" fill="#485776"/>
<path d="M152.889 39.0107V31.9572H152.002V39.8622H157.153V39.0107H152.889Z" fill="#485776"/>
<path d="M166.883 32.8087V31.9572H161.277V39.8622H166.883V39.0107H162.176V36.2606H166.417V35.4092H162.176V32.8087H166.883Z" fill="#485776"/>
<path d="M177.605 39.8622H178.571L175.126 31.9572H174.16L170.714 39.8622H171.681L172.465 38.0672H176.82L177.605 39.8622ZM172.829 37.2157L174.649 33.0618L176.456 37.2157H172.829Z" fill="#485776"/>
<path d="M185.381 39.9888C187.2 39.9888 188.133 38.9647 188.133 37.7105C188.133 36.3182 187.064 35.7774 185.574 35.4207C184.244 35.0985 183.471 34.8108 183.471 33.9939C183.471 33.2689 184.176 32.6246 185.142 32.6246C185.961 32.6246 186.734 33.0043 187.382 33.6372L187.928 32.9353C187.212 32.2679 186.348 31.8076 185.188 31.8076C183.687 31.8076 182.573 32.7972 182.573 34.0629C182.573 35.4322 183.562 35.927 185.131 36.2952C186.495 36.6174 187.234 36.951 187.234 37.791C187.234 38.5044 186.62 39.1718 185.415 39.1718C184.324 39.1718 183.516 38.7 182.857 38.0327L182.3 38.7346C183.084 39.517 184.096 39.9888 185.381 39.9888Z" fill="#485776"/>
<path d="M198.097 32.8087V31.9572H192.491V39.8622H198.097V39.0107H193.389V36.2606H197.63V35.4092H193.389V32.8087H198.097Z" fill="#485776"/>
<path d="M77.1582 18.4924H88.948V16.6298H80.2673L84.7444 12.7032C87.6297 10.1862 88.7739 8.32357 88.7739 5.98273C88.7739 2.88679 86.2866 0.898336 83.3267 0.898336C80.6404 0.898336 78.7252 2.18202 77.3074 4.22081L78.6755 5.35348C79.8445 3.74258 81.2622 2.66026 83.2521 2.66026C85.0678 2.66026 86.8089 3.8936 86.8089 6.0079C86.8089 7.71948 85.814 9.38072 83.4013 11.4699L77.1582 16.8563V18.4924Z" fill="#FF7733"/>
<path d="M95.0136 18.3834C95.735 18.3834 96.3319 17.7541 96.3319 16.999C96.3319 16.2942 95.735 15.665 95.0136 15.665C94.2426 15.665 93.6456 16.2942 93.6456 16.999C93.6456 17.7541 94.2426 18.3834 95.0136 18.3834Z" fill="#FF7733"/>
<path d="M107.946 18.3834C112.1 18.3834 115.035 14.6833 115.035 9.42276C115.035 4.18734 112.1 0.487305 107.946 0.487305C103.767 0.487305 100.832 4.18734 100.832 9.42276C100.832 14.6833 103.767 18.3834 107.946 18.3834ZM107.946 16.5711C104.936 16.5711 102.797 13.601 102.797 9.42276C102.797 5.24449 104.936 2.29957 107.946 2.29957C110.955 2.29957 113.07 5.24449 113.07 9.42276C113.07 13.601 110.955 16.5711 107.946 16.5711Z" fill="#FF7733"/>
<path d="M129.645 18.4922H135.415C140.837 18.4922 144.668 14.8928 144.668 9.8336C144.668 4.77438 140.837 1.2002 135.415 1.2002H129.645V18.4922ZM131.585 16.7051V2.98729H135.415C139.693 2.98729 142.703 5.83153 142.703 9.8336C142.703 13.8609 139.693 16.7051 135.415 16.7051H131.585Z" fill="#485776"/>
<path d="M166.698 3.0628V1.2002H154.436V18.4922H166.698V16.6296H156.401V10.6139H165.678V8.75128H156.401V3.0628H166.698Z" fill="#485776"/>
<path d="M190.152 1.2002L183.685 16.0758L177.193 1.2002H175.079L182.616 18.4922H184.73L192.266 1.2002H190.152Z" fill="#485776"/>
<path d="M201.616 18.4922H203.556V4.42199L214.152 18.4922H216.092V1.2002H214.152V15.2704L203.556 1.2002H201.616V18.4922Z" fill="#485776"/>
<path d="M238.864 3.0628V1.2002H226.601V18.4922H238.864V16.6296H228.566V10.6139H237.844V8.75128H228.566V3.0628H238.864Z" fill="#485776"/>
<path d="M253.314 18.4922H255.254V3.0628H260.999V1.2002H247.568V3.0628H253.314V18.4922Z" fill="#485776"/>
<path fill-rule="evenodd" clip-rule="evenodd" d="M17.7937 0C12.841 0 8.62958 4.28594 8.62958 9.34666C8.62958 14.4393 12.8698 18.7223 17.7937 18.6933C22.7463 18.6933 26.9262 14.4393 26.9262 9.34666C26.9262 4.25402 22.775 0 17.7937 0ZM17.7937 1.91808C21.6489 1.91808 24.8808 5.33349 24.8808 9.34666C24.8808 13.3918 21.6489 16.8043 17.7937 16.8043C13.9384 16.8043 10.6779 13.3918 10.6779 9.34666C10.6779 5.33349 13.9384 1.91808 17.7937 1.91808Z" fill="#485776"/>
<path d="M0 0.431933H2.04539V18.4927H0V0.431933Z" fill="#485776"/>
<path d="M37.4235 2.27799H31.4051V0.330885H45.4615V2.27799H39.4402V18.3916H37.3948L37.4235 2.27799Z" fill="#485776"/>
<path d="M49.4026 18.4927L56.1938 2.94778L62.9275 18.4927H65.151L57.7077 1.45046C57.4405 0.820772 56.8459 0.431933 56.165 0.431933C55.5129 0.431933 54.8895 0.820772 54.6224 1.45046L47.179 18.4927H49.4026Z" fill="#485776"/>
</svg>
