<svg width="99" height="75" viewBox="0 0 99 75" fill="none" xmlns="http://www.w3.org/2000/svg">
<path d="M31.9038 20.1474C26.631 18.7407 22.1363 20.7056 18.9264 23.7616C16.2672 26.2932 11.8708 33.5139 15.559 42.1433C20.1693 52.93 33.455 57.1495 51.6559 54.3961C69.9567 51.6277 79.6694 61.1304 87.4365 50.153C99.1373 33.6158 89.4518 23.6624 81.2953 20.8106C75.8195 18.896 68.7901 23.6255 60.0918 25.3811C52.1551 26.9829 35.9112 21.2165 31.9038 20.1474Z" stroke="#FFBF9F" stroke-width="0.4044"/>
<path d="M15.8525 18.794C11.3187 22.9208 10.4252 29.074 10.7413 31.64C11.0545 39.4224 14.534 43.6992 20.6116 49.095C26.6893 54.4908 43.1228 57.6893 46.0368 58.0089C53.0889 58.7825 61.4469 64.6129 69.326 62.8669C73.7543 61.8856 79.937 58.3588 83.9414 51.1705C87.9459 43.9822 85.0735 37.491 83.2676 34.4301C81.4617 31.3691 72.9078 27.1512 69.7449 23.5334C66.5821 19.9155 59.6868 9.22511 50.0693 5.38827C37.8426 0.510478 27.3026 7.74244 23.9446 10.8077C21.9384 12.639 20.3448 14.7048 15.8525 18.794Z" stroke="#FF9763" stroke-width="0.4044"/>
<path d="M41.7288 40.316C43.7287 40.316 44.9434 39.2766 45.6989 38.0888L44.2175 37.3316C43.7435 38.1631 42.7954 38.7718 41.7288 38.7718C39.7734 38.7718 38.3216 37.2722 38.3216 35.1936C38.3216 33.1149 39.7734 31.6153 41.7288 31.6153C42.7954 31.6153 43.7435 32.2389 44.2175 33.0555L45.6989 32.2983C44.9582 31.1105 43.7287 30.0712 41.7288 30.0712C38.8105 30.0712 36.5439 32.1498 36.5439 35.1936C36.5439 38.2373 38.8105 40.316 41.7288 40.316Z" fill="#131F37"/>
<path d="M60.0631 40.1378V31.7638H63.0555V30.2345H55.3374V31.7638H58.3298V40.1378H60.0631Z" fill="#131F37"/>
<path d="M81.3316 40.1378L77.4504 30.2345H75.2876L71.4063 40.1378H73.3766L74.1025 38.2373H78.6355L79.3614 40.1378H81.3316ZM78.1466 36.708H74.5913L76.369 31.9865L78.1466 36.708Z" fill="#131F37"/>
<path d="M98.9431 40.1378L96.5285 36.2477C97.7136 36.0547 98.8691 35.1045 98.8691 33.3376C98.8691 31.5114 97.5951 30.2345 95.6396 30.2345H91.2992V40.1378H93.0324V36.4408H94.7508L96.9433 40.1378H98.9431ZM95.4026 34.9115H93.0324V31.7638H95.4026C96.3803 31.7638 97.0914 32.3874 97.0914 33.3376C97.0914 34.2879 96.3803 34.9115 95.4026 34.9115Z" fill="#131F37"/>
<path d="M8.56242 40.1377V30.2344H6.8292V37.1088L1.77767 30.2344H0V40.1377H1.73322V33.0703L6.88845 40.1377H8.56242Z" fill="#131F37"/>
<path d="M26.3202 40.1377V38.6084H21.2835V35.8616H26.2165V34.3323H21.2835V31.7637H26.3202V30.2344H19.5503V40.1377H26.3202Z" fill="#131F37"/>
</svg>
