<svg width="180" height="48" viewBox="0 0 180 48" fill="none" xmlns="http://www.w3.org/2000/svg">
<path d="M32.3205 10.3169C33.5157 10.3169 34.4845 9.35055 34.4845 8.15848C34.4845 6.9664 33.5157 6.00003 32.3205 6.00003C31.1254 6.00003 30.1565 6.9664 30.1565 8.15848C30.1565 9.35055 31.1254 10.3169 32.3205 10.3169Z" fill="#F6F8FC"/>
<path d="M34.7551 40.8053C35.9502 40.8053 36.9191 39.8389 36.9191 38.6469C36.9191 37.4548 35.9502 36.4884 34.7551 36.4884C33.5599 36.4884 32.5911 37.4548 32.5911 38.6469C32.5911 39.8389 33.5599 40.8053 34.7551 40.8053Z" fill="#F6F8FC"/>
<path d="M32.939 15.7132C33.9421 15.7132 34.7553 14.9021 34.7553 13.9016C34.7553 12.9011 33.9421 12.0901 32.939 12.0901C31.936 12.0901 31.1228 12.9011 31.1228 13.9016C31.1228 14.9021 31.936 15.7132 32.939 15.7132Z" fill="#F6F8FC"/>
<path d="M37.7698 16.4068C38.7729 16.4068 39.5861 15.5957 39.5861 14.5952C39.5861 13.5947 38.7729 12.7837 37.7698 12.7837C36.7668 12.7837 35.9536 13.5947 35.9536 14.5952C35.9536 15.5957 36.7668 16.4068 37.7698 16.4068Z" fill="#F6F8FC"/>
<path d="M32.3209 20.2997C33.1746 20.2997 33.8666 19.6095 33.8666 18.758C33.8666 17.9065 33.1746 17.2162 32.3209 17.2162C31.4672 17.2162 30.7751 17.9065 30.7751 18.758C30.7751 19.6095 31.4672 20.2997 32.3209 20.2997Z" fill="#F6F8FC"/>
<path d="M37.151 20.9553C38.0046 20.9553 38.6967 20.265 38.6967 19.4135C38.6967 18.5621 38.0046 17.8718 37.151 17.8718C36.2973 17.8718 35.6052 18.5621 35.6052 19.4135C35.6052 20.265 36.2973 20.9553 37.151 20.9553Z" fill="#F6F8FC"/>
<path d="M41.0155 22.4583C41.8691 22.4583 42.5612 21.7681 42.5612 20.9166C42.5612 20.0651 41.8691 19.3748 41.0155 19.3748C40.1618 19.3748 39.4697 20.0651 39.4697 20.9166C39.4697 21.7681 40.1618 22.4583 41.0155 22.4583Z" fill="#F6F8FC"/>
<path d="M35.7212 24.6552C36.4681 24.6552 37.0737 24.0513 37.0737 23.3062C37.0737 22.5612 36.4681 21.9572 35.7212 21.9572C34.9742 21.9572 34.3687 22.5612 34.3687 23.3062C34.3687 24.0513 34.9742 24.6552 35.7212 24.6552Z" fill="#F6F8FC"/>
<path d="M30.8911 23.9997C31.6381 23.9997 32.2436 23.3957 32.2436 22.6507C32.2436 21.9056 31.6381 21.3016 30.8911 21.3016C30.1441 21.3016 29.5386 21.9056 29.5386 22.6507C29.5386 23.3957 30.1441 23.9997 30.8911 23.9997Z" fill="#F6F8FC"/>
<path d="M39.624 26.1583C40.371 26.1583 40.9765 25.5543 40.9765 24.8093C40.9765 24.0642 40.371 23.4602 39.624 23.4602C38.877 23.4602 38.2715 24.0642 38.2715 24.8093C38.2715 25.5543 38.877 26.1583 39.624 26.1583Z" fill="#F6F8FC"/>
<path d="M33.7894 27.4687C34.4297 27.4687 34.9487 26.951 34.9487 26.3124C34.9487 25.6738 34.4297 25.1561 33.7894 25.1561C33.1492 25.1561 32.6301 25.6738 32.6301 26.3124C32.6301 26.951 33.1492 27.4687 33.7894 27.4687Z" fill="#F6F8FC"/>
<path d="M37.6923 28.9335C38.3325 28.9335 38.8516 28.4158 38.8516 27.7772C38.8516 27.1386 38.3325 26.6209 37.6923 26.6209C37.052 26.6209 36.533 27.1386 36.533 27.7772C36.533 28.4158 37.052 28.9335 37.6923 28.9335Z" fill="#F6F8FC"/>
<path d="M28.9972 26.7747C29.6375 26.7747 30.1565 26.257 30.1565 25.6184C30.1565 24.9798 29.6375 24.4621 28.9972 24.4621C28.3569 24.4621 27.8379 24.9798 27.8379 25.6184C27.8379 26.257 28.3569 26.7747 28.9972 26.7747Z" fill="#F6F8FC"/>
<path d="M31.6636 29.3577C32.1971 29.3577 32.6297 28.9263 32.6297 28.3941C32.6297 27.8619 32.1971 27.4305 31.6636 27.4305C31.13 27.4305 30.6975 27.8619 30.6975 28.3941C30.6975 28.9263 31.13 29.3577 31.6636 29.3577Z" fill="#F6F8FC"/>
<path d="M33.3252 32.0171C33.7948 32.0171 34.1754 31.6374 34.1754 31.1691C34.1754 30.7008 33.7948 30.3212 33.3252 30.3212C32.8557 30.3212 32.4751 30.7008 32.4751 31.1691C32.4751 31.6374 32.8557 32.0171 33.3252 32.0171Z" fill="#F6F8FC"/>
<path d="M31.2771 32.5569C31.6613 32.5569 31.9727 32.2463 31.9727 31.8632C31.9727 31.48 31.6613 31.1694 31.2771 31.1694C30.893 31.1694 30.5815 31.48 30.5815 31.8632C30.5815 32.2463 30.893 32.5569 31.2771 32.5569Z" fill="#F6F8FC"/>
<path d="M29.461 30.5523C29.9305 30.5523 30.3111 30.1727 30.3111 29.7043C30.3111 29.236 29.9305 28.8564 29.461 28.8564C28.9915 28.8564 28.6108 29.236 28.6108 29.7043C28.6108 30.1727 28.9915 30.5523 29.461 30.5523Z" fill="#F6F8FC"/>
<path d="M26.8335 28.7024C27.3671 28.7024 27.7996 28.271 27.7996 27.7389C27.7996 27.2067 27.3671 26.7753 26.8335 26.7753C26.3 26.7753 25.8674 27.2067 25.8674 27.7389C25.8674 28.271 26.3 28.7024 26.8335 28.7024Z" fill="#F6F8FC"/>
<path d="M26.7947 21.4557C27.3282 21.4557 27.7608 21.0242 27.7608 20.4921C27.7608 19.9599 27.3282 19.5285 26.7947 19.5285C26.2611 19.5285 25.8286 19.9599 25.8286 20.4921C25.8286 21.0242 26.2611 21.4557 26.7947 21.4557Z" fill="#F6F8FC"/>
<path d="M27.2198 18.064C27.6893 18.064 28.0699 17.6844 28.0699 17.216C28.0699 16.7477 27.6893 16.3681 27.2198 16.3681C26.7503 16.3681 26.3696 16.7477 26.3696 17.216C26.3696 17.6844 26.7503 18.064 27.2198 18.064Z" fill="#F6F8FC"/>
<path d="M28.1472 15.2888C28.5314 15.2888 28.8428 14.9782 28.8428 14.595C28.8428 14.2118 28.5314 13.9012 28.1472 13.9012C27.7631 13.9012 27.4517 14.2118 27.4517 14.595C27.4517 14.9782 27.7631 15.2888 28.1472 15.2888Z" fill="#F6F8FC"/>
<path d="M26.5242 13.9786C26.9937 13.9786 27.3744 13.599 27.3744 13.1306C27.3744 12.6623 26.9937 12.2827 26.5242 12.2827C26.0547 12.2827 25.6741 12.6623 25.6741 13.1306C25.6741 13.599 26.0547 13.9786 26.5242 13.9786Z" fill="#F6F8FC"/>
<path d="M35.5281 30.8219C36.0616 30.8219 36.4942 30.3905 36.4942 29.8583C36.4942 29.3261 36.0616 28.8947 35.5281 28.8947C34.9945 28.8947 34.562 29.3261 34.562 29.8583C34.562 30.3905 34.9945 30.8219 35.5281 30.8219Z" fill="#F6F8FC"/>
<path d="M24.3216 12.8608C24.8551 12.8608 25.2876 12.4294 25.2876 11.8972C25.2876 11.365 24.8551 10.9336 24.3216 10.9336C23.788 10.9336 23.3555 11.365 23.3555 11.8972C23.3555 12.4294 23.788 12.8608 24.3216 12.8608Z" fill="#F6F8FC"/>
<path d="M24.9785 16.9466C25.5121 16.9466 25.9446 16.5151 25.9446 15.983C25.9446 15.4508 25.5121 15.0194 24.9785 15.0194C24.445 15.0194 24.0125 15.4508 24.0125 15.983C24.0125 16.5151 24.445 16.9466 24.9785 16.9466Z" fill="#F6F8FC"/>
<path d="M23.8968 20.8393C24.5371 20.8393 25.0561 20.3216 25.0561 19.683C25.0561 19.0443 24.5371 18.5266 23.8968 18.5266C23.2566 18.5266 22.7375 19.0443 22.7375 19.683C22.7375 20.3216 23.2566 20.8393 23.8968 20.8393Z" fill="#F6F8FC"/>
<path d="M20.3799 20.839C21.1268 20.839 21.7324 20.235 21.7324 19.49C21.7324 18.7449 21.1268 18.141 20.3799 18.141C19.6329 18.141 19.0273 18.7449 19.0273 19.49C19.0273 20.235 19.6329 20.839 20.3799 20.839Z" fill="#F6F8FC"/>
<path d="M16.284 21.7645C17.1377 21.7645 17.8297 21.0742 17.8297 20.2227C17.8297 19.3713 17.1377 18.681 16.284 18.681C15.4303 18.681 14.7383 19.3713 14.7383 20.2227C14.7383 21.0742 15.4303 21.7645 16.284 21.7645Z" fill="#F6F8FC"/>
<path d="M11.8013 23.9617C12.8044 23.9617 13.6176 23.1507 13.6176 22.1502C13.6176 21.1497 12.8044 20.3386 11.8013 20.3386C10.7983 20.3386 9.98511 21.1497 9.98511 22.1502C9.98511 23.1507 10.7983 23.9617 11.8013 23.9617Z" fill="#F6F8FC"/>
<path d="M7.16403 27.6616C8.35918 27.6616 9.32805 26.6952 9.32805 25.5031C9.32805 24.3111 8.35918 23.3447 7.16403 23.3447C5.96887 23.3447 5 24.3111 5 25.5031C5 26.6952 5.96887 27.6616 7.16403 27.6616Z" fill="#F6F8FC"/>
<path d="M9.98542 19.4519C10.9885 19.4519 11.8017 18.6408 11.8017 17.6403C11.8017 16.6399 10.9885 15.8288 9.98542 15.8288C8.98234 15.8288 8.16919 16.6399 8.16919 17.6403C8.16919 18.6408 8.98234 19.4519 9.98542 19.4519Z" fill="#F6F8FC"/>
<path d="M14.4674 17.2547C15.321 17.2547 16.0131 16.5644 16.0131 15.7129C16.0131 14.8614 15.321 14.1712 14.4674 14.1712C13.6137 14.1712 12.9216 14.8614 12.9216 15.7129C12.9216 16.5644 13.6137 17.2547 14.4674 17.2547Z" fill="#F6F8FC"/>
<path d="M13.8104 13.1689C14.6641 13.1689 15.3561 12.4787 15.3561 11.6272C15.3561 10.7757 14.6641 10.0854 13.8104 10.0854C12.9567 10.0854 12.2646 10.7757 12.2646 11.6272C12.2646 12.4787 12.9567 13.1689 13.8104 13.1689Z" fill="#F6F8FC"/>
<path d="M17.907 12.244C18.6539 12.244 19.2595 11.64 19.2595 10.895C19.2595 10.1499 18.6539 9.54593 17.907 9.54593C17.16 9.54593 16.5544 10.1499 16.5544 10.895C16.5544 11.64 17.16 12.244 17.907 12.244Z" fill="#F6F8FC"/>
<path d="M21.4232 12.244C22.0635 12.244 22.5825 11.7263 22.5825 11.0877C22.5825 10.4491 22.0635 9.9314 21.4232 9.9314C20.783 9.9314 20.2639 10.4491 20.2639 11.0877C20.2639 11.7263 20.783 12.244 21.4232 12.244Z" fill="#F6F8FC"/>
<path d="M22.0802 16.3293C22.7205 16.3293 23.2395 15.8116 23.2395 15.173C23.2395 14.5344 22.7205 14.0167 22.0802 14.0167C21.4399 14.0167 20.9209 14.5344 20.9209 15.173C20.9209 15.8116 21.4399 16.3293 22.0802 16.3293Z" fill="#F6F8FC"/>
<path d="M18.5639 16.3683C19.3109 16.3683 19.9165 15.7644 19.9165 15.0193C19.9165 14.2743 19.3109 13.6703 18.5639 13.6703C17.817 13.6703 17.2114 14.2743 17.2114 15.0193C17.2114 15.7644 17.817 16.3683 18.5639 16.3683Z" fill="#F6F8FC"/>
<path d="M14.7381 26.6208C15.1222 26.6208 15.4336 26.3101 15.4336 25.927C15.4336 25.5438 15.1222 25.2332 14.7381 25.2332C14.3539 25.2332 14.0425 25.5438 14.0425 25.927C14.0425 26.3101 14.3539 26.6208 14.7381 26.6208Z" fill="#F6F8FC"/>
<path d="M17.5206 26.2742C17.9901 26.2742 18.3707 25.8945 18.3707 25.4262C18.3707 24.9579 17.9901 24.5782 17.5206 24.5782C17.051 24.5782 16.6704 24.9579 16.6704 25.4262C16.6704 25.8945 17.051 26.2742 17.5206 26.2742Z" fill="#F6F8FC"/>
<path d="M20.573 25.1181C21.1066 25.1181 21.5391 24.6867 21.5391 24.1545C21.5391 23.6223 21.1066 23.1909 20.573 23.1909C20.0395 23.1909 19.6069 23.6223 19.6069 24.1545C19.6069 24.6867 20.0395 25.1181 20.573 25.1181Z" fill="#F6F8FC"/>
<path d="M21.3072 28.2012C21.9475 28.2012 22.4665 27.6835 22.4665 27.0449C22.4665 26.4063 21.9475 25.8886 21.3072 25.8886C20.667 25.8886 20.1479 26.4063 20.1479 27.0449C20.1479 27.6835 20.667 28.2012 21.3072 28.2012Z" fill="#F6F8FC"/>
<path d="M17.5979 28.9333C18.1315 28.9333 18.564 28.5018 18.564 27.9697C18.564 27.4375 18.1315 27.0061 17.5979 27.0061C17.0644 27.0061 16.6318 27.4375 16.6318 27.9697C16.6318 28.5018 17.0644 28.9333 17.5979 28.9333Z" fill="#F6F8FC"/>
<path d="M14.3128 28.8948C14.7823 28.8948 15.163 28.5151 15.163 28.0468C15.163 27.5785 14.7823 27.1988 14.3128 27.1988C13.8433 27.1988 13.4626 27.5785 13.4626 28.0468C13.4626 28.5151 13.8433 28.8948 14.3128 28.8948Z" fill="#F6F8FC"/>
<path d="M14.3513 31.5545C14.8849 31.5545 15.3174 31.1231 15.3174 30.5909C15.3174 30.0588 14.8849 29.6273 14.3513 29.6273C13.8178 29.6273 13.3853 30.0588 13.3853 30.5909C13.3853 31.1231 13.8178 31.5545 14.3513 31.5545Z" fill="#F6F8FC"/>
<path d="M18.2931 32.0555C18.9334 32.0555 19.4524 31.5378 19.4524 30.8992C19.4524 30.2606 18.9334 29.7429 18.2931 29.7429C17.6528 29.7429 17.1338 30.2606 17.1338 30.8992C17.1338 31.5378 17.6528 32.0555 18.2931 32.0555Z" fill="#F6F8FC"/>
<path d="M22.8921 31.5544C23.639 31.5544 24.2446 30.9505 24.2446 30.2054C24.2446 29.4604 23.639 28.8564 22.8921 28.8564C22.1451 28.8564 21.5396 29.4604 21.5396 30.2054C21.5396 30.9505 22.1451 31.5544 22.8921 31.5544Z" fill="#F6F8FC"/>
<path d="M25.5965 34.9075C26.4502 34.9075 27.1422 34.2172 27.1422 33.3657C27.1422 32.5142 26.4502 31.824 25.5965 31.824C24.7428 31.824 24.0508 32.5142 24.0508 33.3657C24.0508 34.2172 24.7428 34.9075 25.5965 34.9075Z" fill="#F6F8FC"/>
<path d="M19.9162 35.3703C20.6632 35.3703 21.2687 34.7663 21.2687 34.0212C21.2687 33.2762 20.6632 32.6722 19.9162 32.6722C19.1693 32.6722 18.5637 33.2762 18.5637 34.0212C18.5637 34.7663 19.1693 35.3703 19.9162 35.3703Z" fill="#F6F8FC"/>
<path d="M16.7087 37.9911C17.4557 37.9911 18.0612 37.3871 18.0612 36.642C18.0612 35.897 17.4557 35.293 16.7087 35.293C15.9617 35.293 15.3562 35.897 15.3562 36.642C15.3562 37.3871 15.9617 37.9911 16.7087 37.9911Z" fill="#F6F8FC"/>
<path d="M19.3751 41.3832C20.2288 41.3832 20.9208 40.6929 20.9208 39.8414C20.9208 38.9899 20.2288 38.2997 19.3751 38.2997C18.5214 38.2997 17.8293 38.9899 17.8293 39.8414C17.8293 40.6929 18.5214 41.3832 19.3751 41.3832Z" fill="#F6F8FC"/>
<path d="M26.4857 42C27.4887 42 28.3019 41.1889 28.3019 40.1884C28.3019 39.188 27.4887 38.3769 26.4857 38.3769C25.4826 38.3769 24.6694 39.188 24.6694 40.1884C24.6694 41.1889 25.4826 42 26.4857 42Z" fill="#F6F8FC"/>
<path d="M22.5826 38.7619C23.4363 38.7619 24.1283 38.0717 24.1283 37.2202C24.1283 36.3687 23.4363 35.6784 22.5826 35.6784C21.7289 35.6784 21.0369 36.3687 21.0369 37.2202C21.0369 38.0717 21.7289 38.7619 22.5826 38.7619Z" fill="#F6F8FC"/>
<path d="M29.4613 38.1457C30.4643 38.1457 31.2775 37.3347 31.2775 36.3342C31.2775 35.3337 30.4643 34.5226 29.4613 34.5226C28.4582 34.5226 27.645 35.3337 27.645 36.3342C27.645 37.3347 28.4582 38.1457 29.4613 38.1457Z" fill="#F6F8FC"/>
<path d="M15.0856 34.6767C15.7258 34.6767 16.2449 34.159 16.2449 33.5204C16.2449 32.8818 15.7258 32.3641 15.0856 32.3641C14.4453 32.3641 13.9263 32.8818 13.9263 33.5204C13.9263 34.159 14.4453 34.6767 15.0856 34.6767Z" fill="#F6F8FC"/>
<path d="M60 8H61V40H60V8Z" fill="#F6F8FC"/>
<path d="M79.328 20.5V16.708H82.048C84.352 16.708 85.632 15.124 85.632 13.268C85.632 11.396 84.368 9.828 82.048 9.828H77.056V20.5H79.328ZM81.744 14.708H79.328V11.828H81.744C82.64 11.828 83.312 12.372 83.312 13.268C83.312 14.148 82.64 14.708 81.744 14.708ZM94.8964 20.692C98.1284 20.692 100.48 18.388 100.48 15.172C100.48 11.956 98.1284 9.652 94.8964 9.652C91.6804 9.652 89.3284 11.956 89.3284 15.172C89.3284 18.388 91.6804 20.692 94.8964 20.692ZM94.8964 18.676C92.9284 18.676 91.6644 17.156 91.6644 15.172C91.6644 13.172 92.9284 11.668 94.8964 11.668C96.8644 11.668 98.1444 13.172 98.1444 15.172C98.1444 17.156 96.8644 18.676 94.8964 18.676ZM111.659 20.5V18.5H107.147V9.828H104.875V20.5H111.659ZM122.834 20.5V18.5H118.322V9.828H116.05V20.5H122.834ZM134.777 20.5V18.5H129.497V16.084H134.665V14.084H129.497V11.828H134.777V9.828H127.225V20.5H134.777ZM148.905 20.5V9.828H146.633V16.532L141.689 9.828H139.353V20.5H141.625V13.54L146.713 20.5H148.905ZM87.632 37.5L90.672 26.828H88.112L86.256 34.54L84.24 26.828H82.464L80.432 34.54L78.56 26.828H76.016L79.072 37.5H81.488L83.344 30.172L85.216 37.5H87.632ZM103.792 37.5L99.6804 26.828H96.8324L92.7044 37.5H95.2964L95.9684 35.692H100.544L101.2 37.5H103.792ZM99.9204 33.692H96.5924L98.2564 29.1L99.9204 33.692ZM114.362 37.5V35.5H109.85V26.828H107.578V37.5H114.362ZM125.537 37.5V35.5H121.025V26.828H118.753V37.5H125.537ZM137.48 37.5V35.5H132.2V33.084H137.368V31.084H132.2V28.828H137.48V26.828H129.928V37.5H137.48ZM146.808 37.5V28.828H149.912V26.828H141.4V28.828H144.52V37.5H146.808Z" fill="#F6F8FC"/>
</svg>
