<svg width="261" height="40" viewBox="0 0 261 40" fill="none" xmlns="http://www.w3.org/2000/svg">
<path d="M62.9443 39.8619H63.8312V33.4298L68.6751 39.8619H69.562V31.9569H68.6751V38.3891L63.8312 31.9569H62.9443V39.8619Z" fill="#485776"/>
<path d="M79.9722 32.8084V31.9569H74.3665V39.8619H79.9722V39.0104H75.2647V36.2604H79.506V35.4089H75.2647V32.8084H79.9722Z" fill="#485776"/>
<path d="M88.0334 40C89.1136 40 90.1142 39.5282 90.8419 38.7918L90.2393 38.1705C89.6707 38.7803 88.8862 39.1715 88.0334 39.1715C86.3505 39.1715 84.9292 37.6757 84.9292 35.9037C84.9292 34.1432 86.3505 32.6473 88.0334 32.6473C88.8862 32.6473 89.6707 33.0385 90.2393 33.6484L90.8419 33.027C90.1142 32.2791 89.1136 31.8188 88.0334 31.8188C85.873 31.8188 84.0309 33.6829 84.0309 35.9037C84.0309 38.1244 85.873 40 88.0334 40Z" fill="#485776"/>
<path d="M97.149 39.8619H98.036V32.8084H100.663V31.9569H94.5224V32.8084H97.149V39.8619Z" fill="#485776"/>
<path d="M110.471 39.8619H111.437L107.992 31.9569H107.025L103.58 39.8619H104.546L105.331 38.0669H109.686L110.471 39.8619ZM105.695 37.2154L107.514 33.0616L109.322 37.2154H105.695Z" fill="#485776"/>
<path d="M121.59 34.4884C121.59 33.004 120.327 31.9569 118.713 31.9569H115.54V39.8619H116.427V37.0198H118.497L120.475 39.8619H121.487L119.463 36.9393C120.703 36.6746 121.59 35.7311 121.59 34.4884ZM116.427 32.8084H118.554C119.827 32.8084 120.691 33.4298 120.691 34.4884C120.691 35.547 119.827 36.1683 118.554 36.1683H116.427V32.8084Z" fill="#485776"/>
<path d="M137.968 34.4884C137.968 33.004 136.706 31.9569 135.091 31.9569H131.919V39.8619H132.806V37.0198H134.875L136.854 39.8619H137.866L135.842 36.9393C137.081 36.6746 137.968 35.7311 137.968 34.4884ZM132.806 32.8084H134.932C136.206 32.8084 137.07 33.4298 137.07 34.4884C137.07 35.547 136.206 36.1683 134.932 36.1683H132.806V32.8084Z" fill="#485776"/>
<path d="M147.763 32.8084V31.9569H142.157V39.8619H147.763V39.0104H143.055V36.2604H147.296V35.4089H143.055V32.8084H147.763Z" fill="#485776"/>
<path d="M152.89 39.0104V31.9569H152.003V39.8619H157.154V39.0104H152.89Z" fill="#485776"/>
<path d="M166.884 32.8084V31.9569H161.278V39.8619H166.884V39.0104H162.177V36.2604H166.418V35.4089H162.177V32.8084H166.884Z" fill="#485776"/>
<path d="M177.606 39.8619H178.572L175.127 31.9569H174.161L170.715 39.8619H171.682L172.466 38.0669H176.821L177.606 39.8619ZM172.83 37.2154L174.65 33.0616L176.457 37.2154H172.83Z" fill="#485776"/>
<path d="M185.382 39.9885C187.201 39.9885 188.134 38.9644 188.134 37.7102C188.134 36.3179 187.065 35.7771 185.575 35.4204C184.245 35.0982 183.472 34.8106 183.472 33.9936C183.472 33.2687 184.177 32.6243 185.143 32.6243C185.962 32.6243 186.735 33.004 187.383 33.6369L187.929 32.935C187.213 32.2676 186.349 31.8073 185.189 31.8073C183.688 31.8073 182.574 32.7969 182.574 34.0626C182.574 35.4319 183.563 35.9267 185.132 36.2949C186.496 36.6171 187.235 36.9508 187.235 37.7907C187.235 38.5041 186.621 39.1715 185.416 39.1715C184.325 39.1715 183.517 38.6998 182.858 38.0324L182.301 38.7343C183.085 39.5167 184.097 39.9885 185.382 39.9885Z" fill="#485776"/>
<path d="M198.098 32.8084V31.9569H192.492V39.8619H198.098V39.0104H193.39V36.2604H197.631V35.4089H193.39V32.8084H198.098Z" fill="#485776"/>
<path d="M77.158 18.4927H88.9478V16.6301H80.2671L84.7443 12.7035C87.6295 10.1865 88.7737 8.32388 88.7737 5.98304C88.7737 2.88709 86.2864 0.898641 83.3265 0.898641C80.6402 0.898641 78.725 2.18233 77.3073 4.22112L78.6753 5.35378C79.8443 3.74288 81.262 2.66056 83.2519 2.66056C85.0676 2.66056 86.8087 3.89391 86.8087 6.00821C86.8087 7.71979 85.8138 9.38103 83.4011 11.4702L77.158 16.8566V18.4927Z" fill="#FF7733"/>
<path d="M95.0135 18.3837C95.7348 18.3837 96.3317 17.7544 96.3317 16.9993C96.3317 16.2946 95.7348 15.6653 95.0135 15.6653C94.2424 15.6653 93.6455 16.2946 93.6455 16.9993C93.6455 17.7544 94.2424 18.3837 95.0135 18.3837Z" fill="#FF7733"/>
<path d="M107.946 18.3837C112.099 18.3837 115.034 14.6837 115.034 9.42306C115.034 4.18764 112.099 0.48761 107.946 0.48761C103.767 0.48761 100.832 4.18764 100.832 9.42306C100.832 14.6837 103.767 18.3837 107.946 18.3837ZM107.946 16.5714C104.936 16.5714 102.797 13.6013 102.797 9.42306C102.797 5.24479 104.936 2.29987 107.946 2.29987C110.955 2.29987 113.069 5.24479 113.069 9.42306C113.069 13.6013 110.955 16.5714 107.946 16.5714Z" fill="#FF7733"/>
<path d="M129.645 18.4926H135.416C140.838 18.4926 144.668 14.8932 144.668 9.834C144.668 4.77477 140.838 1.20059 135.416 1.20059H129.645V18.4926ZM131.585 16.7055V2.98768H135.416C139.694 2.98768 142.704 5.83193 142.704 9.834C142.704 13.8612 139.694 16.7055 135.416 16.7055H131.585Z" fill="#485776"/>
<path d="M166.699 3.06319V1.20059H154.437V18.4926H166.699V16.63H156.402V10.6143H165.679V8.75168H156.402V3.06319H166.699Z" fill="#485776"/>
<path d="M190.153 1.20059L183.686 16.0762L177.194 1.20059H175.08L182.616 18.4926H184.731L192.267 1.20059H190.153Z" fill="#485776"/>
<path d="M201.616 18.4926H203.556V4.42239L214.152 18.4926H216.092V1.20059H214.152V15.2708L203.556 1.20059H201.616V18.4926Z" fill="#485776"/>
<path d="M238.864 3.06319V1.20059H226.602V18.4926H238.864V16.63H228.567V10.6143H237.844V8.75168H228.567V3.06319H238.864Z" fill="#485776"/>
<path d="M253.314 18.4926H255.254V3.06319H261V1.20059H247.569V3.06319H253.314V18.4926Z" fill="#485776"/>
<path fill-rule="evenodd" clip-rule="evenodd" d="M17.7937 0C12.841 0 8.62958 4.28594 8.62958 9.34666C8.62958 14.4393 12.8698 18.7223 17.7937 18.6933C22.7463 18.6933 26.9262 14.4393 26.9262 9.34666C26.9262 4.25402 22.775 0 17.7937 0ZM17.7937 1.91808C21.6489 1.91808 24.8808 5.33349 24.8808 9.34666C24.8808 13.3918 21.6489 16.8043 17.7937 16.8043C13.9384 16.8043 10.6779 13.3918 10.6779 9.34666C10.6779 5.33349 13.9384 1.91808 17.7937 1.91808Z" fill="#485776"/>
<path d="M0 0.431933H2.04539V18.4927H0V0.431933Z" fill="#485776"/>
<path d="M37.4235 2.27799H31.4051V0.330885H45.4615V2.27799H39.4402V18.3916H37.3948L37.4235 2.27799Z" fill="#485776"/>
<path d="M49.4026 18.4927L56.1938 2.94778L62.9275 18.4927H65.151L57.7077 1.45046C57.4405 0.820772 56.8459 0.431933 56.165 0.431933C55.5129 0.431933 54.8895 0.820772 54.6224 1.45046L47.179 18.4927H49.4026Z" fill="#485776"/>
</svg>
