<svg width="693" height="637" viewBox="0 0 693 637" fill="none" xmlns="http://www.w3.org/2000/svg">
<path d="M379.456 478.616C398.437 511.822 430.381 524.331 461.43 525.013C487.152 525.578 544.8 511.358 569.618 449.959C600.642 373.209 560.727 274.013 457.296 197.38C353.297 120.326 339.973 47.6298 246.992 63.8687C106.919 88.3322 126.422 214.291 139.312 230.041C152.202 245.791 214.975 278.084 266.596 312.512C313.698 343.926 365.031 453.378 379.456 478.616Z" stroke="url(#paint0_radial)" stroke-width="1.66979"/>
<mask id="mask0" mask-type="alpha" maskUnits="userSpaceOnUse" x="45" y="16" width="625" height="546">
<path d="M461.887 504.146C436.161 503.581 412.027 493.54 397.576 468.258C395.385 464.424 392.304 458.548 388.273 450.857C386.07 446.655 383.583 441.91 380.802 436.661C373.158 422.233 363.731 404.853 353.209 387.196C342.714 369.583 330.95 351.386 318.58 335.397C306.402 319.656 292.729 304.853 278.176 295.147C257.166 281.134 234.281 267.428 214.02 255.293C208.893 252.223 203.935 249.253 199.217 246.405C187.359 239.244 177.11 232.905 169.11 227.468C161.402 222.229 157.428 218.898 155.904 217.312C155.725 216.919 155.183 215.727 154.49 213.408C153.42 209.824 152.377 204.831 151.766 198.778C150.542 186.634 151.18 171.463 155.771 156.254C160.313 141.206 168.679 126.21 183.022 113.631C197.365 101.052 218.706 89.9968 250.582 84.4299C270.983 80.8668 285.484 82.4032 297.389 86.6843C309.577 91.0674 320.809 98.9479 333.862 110.984C341.244 117.791 349.394 126.228 358.596 135.754C380.272 158.193 407.789 186.678 444.869 214.151C544.76 288.162 576.116 378.185 550.266 442.136C529.747 492.9 482.117 504.59 461.887 504.146L461.43 524.932L461.887 504.146Z" stroke="url(#paint1_linear)" stroke-width="41.7448"/>
</mask>
<g mask="url(#mask0)">
<g filter="url(#filter0_f)">
<path d="M379.455 478.616C398.435 511.822 430.38 524.331 461.429 525.013C487.15 525.578 544.798 511.358 569.617 449.959C600.64 373.209 560.725 274.013 457.294 197.38C353.296 120.326 339.972 47.6298 246.991 63.8687C106.917 88.3322 126.42 214.291 139.31 230.041C152.2 245.791 214.974 278.084 266.595 312.512C313.696 343.926 365.03 453.378 379.455 478.616Z" stroke="#FFDA69" stroke-width="3.33958"/>
</g>
</g>
<mask id="mask1" mask-type="alpha" maskUnits="userSpaceOnUse" x="45" y="16" width="625" height="546">
<path d="M461.887 504.146C436.161 503.581 412.027 493.54 397.576 468.258C395.385 464.424 392.304 458.548 388.273 450.857C386.07 446.655 383.583 441.91 380.802 436.661C373.158 422.233 363.731 404.853 353.209 387.196C342.714 369.583 330.95 351.386 318.58 335.397C306.402 319.656 292.729 304.853 278.176 295.147C257.166 281.134 234.281 267.428 214.02 255.293C208.893 252.223 203.935 249.253 199.217 246.405C187.359 239.244 177.11 232.905 169.11 227.468C161.402 222.229 157.428 218.898 155.904 217.312C155.725 216.919 155.183 215.727 154.49 213.408C153.42 209.824 152.377 204.831 151.766 198.778C150.542 186.634 151.18 171.463 155.771 156.254C160.313 141.206 168.679 126.21 183.022 113.631C197.365 101.052 218.706 89.9968 250.582 84.4299C270.983 80.8668 285.484 82.4032 297.389 86.6843C309.577 91.0674 320.809 98.9479 333.862 110.984C341.244 117.791 349.394 126.228 358.596 135.754C380.272 158.193 407.789 186.678 444.869 214.151C544.76 288.162 576.116 378.185 550.266 442.136C529.747 492.9 482.117 504.59 461.887 504.146L461.43 524.932L461.887 504.146Z" stroke="url(#paint2_linear)" stroke-width="41.7448"/>
</mask>
<g mask="url(#mask1)">
<g filter="url(#filter1_f)">
<path d="M379.455 478.616C398.435 511.822 430.38 524.331 461.429 525.013C487.15 525.578 544.798 511.358 569.617 449.959C600.64 373.209 560.725 274.013 457.294 197.38C353.296 120.326 339.972 47.6298 246.991 63.8687C106.917 88.3322 126.42 214.291 139.31 230.041C152.2 245.791 214.974 278.084 266.595 312.512C313.696 343.926 365.03 453.378 379.455 478.616Z" stroke="url(#paint3_linear)" stroke-width="3.33958"/>
</g>
<g filter="url(#filter2_f)">
<path d="M379.455 478.616C398.435 511.822 430.38 524.331 461.429 525.013C487.15 525.578 544.798 511.358 569.617 449.959C600.64 373.209 560.725 274.013 457.294 197.38C353.296 120.326 339.972 47.6298 246.991 63.8687C106.917 88.3322 126.42 214.291 139.31 230.041C152.2 245.791 214.974 278.084 266.595 312.512C313.696 343.926 365.03 453.378 379.455 478.616Z" stroke="url(#paint4_linear)" stroke-width="3.33958"/>
<path d="M379.455 478.616C398.435 511.822 430.38 524.331 461.429 525.013C487.15 525.578 544.798 511.358 569.617 449.959C600.64 373.209 560.725 274.013 457.294 197.38C353.296 120.326 339.972 47.6298 246.991 63.8687C106.917 88.3322 126.42 214.291 139.31 230.041C152.2 245.791 214.974 278.084 266.595 312.512C313.696 343.926 365.03 453.378 379.455 478.616Z" stroke="url(#paint5_linear)" stroke-width="3.33958"/>
</g>
</g>
<path opacity="0.4" d="M379.456 478.616C398.437 511.822 430.381 524.331 461.43 525.013C487.152 525.578 544.8 511.358 569.618 449.959C600.642 373.209 554.258 272.494 447.476 200.604C345.167 131.726 341.444 70.0035 248.463 86.2424C108.39 110.706 136.73 208.067 149.62 223.818C162.51 239.568 214.975 278.084 266.596 312.512C313.698 343.926 365.031 453.378 379.456 478.616Z" stroke="#FFAB8B" stroke-opacity="0.5" stroke-width="0.834895"/>
<g opacity="0.3" filter="url(#filter3_f)">
<path d="M379.456 478.616C398.437 511.822 430.381 524.331 461.43 525.013C487.152 525.578 544.8 511.358 569.618 449.959C600.642 373.209 554.258 272.494 447.476 200.604C345.167 131.726 341.444 70.0035 248.463 86.2424C108.39 110.706 136.73 208.067 149.62 223.818C162.51 239.568 214.975 278.084 266.596 312.512C313.698 343.926 365.031 453.378 379.456 478.616Z" stroke="#FFDA69" stroke-width="8.34895"/>
</g>
<g opacity="0.35" filter="url(#filter4_f)">
<path d="M391.087 486.5C408.922 515.536 437.939 527.045 465.879 528.347C489.025 529.425 533.902 516.559 554.809 464.251C580.943 398.866 524.493 340.134 426.802 275.761C333.205 214.085 323.845 166.137 255.553 172.07C160.556 180.324 166.56 247.906 178.515 261.767C190.471 275.629 238.543 310.008 285.761 340.847C328.845 368.986 377.533 464.433 391.087 486.5Z" stroke="url(#paint6_linear)" stroke-width="0.834895"/>
</g>
<g filter="url(#filter5_bf)">
<path d="M274.75 519.784C348.52 570.772 449.688 541.477 494.89 518.605C460.232 529.521 421.095 531.039 386.969 488.143C361.166 455.71 331.455 372.738 294.442 336.677C251.418 294.76 166.134 250.496 153.423 242.211C143.255 235.583 136.637 224.936 134.6 220.441C140.165 234.437 154.189 267.851 165.765 289.534C187.102 329.5 176.574 451.927 274.75 519.784Z" fill="url(#paint7_radial)" fill-opacity="0.8"/>
<path d="M274.75 519.784C348.52 570.772 449.688 541.477 494.89 518.605C460.232 529.521 421.095 531.039 386.969 488.143C361.166 455.71 331.455 372.738 294.442 336.677C251.418 294.76 166.134 250.496 153.423 242.211C143.255 235.583 136.637 224.936 134.6 220.441C140.165 234.437 154.189 267.851 165.765 289.534C187.102 329.5 176.574 451.927 274.75 519.784Z" fill="url(#paint8_radial)" fill-opacity="0.8"/>
<path d="M274.75 519.784C348.52 570.772 449.688 541.477 494.89 518.605C460.232 529.521 421.095 531.039 386.969 488.143C361.166 455.71 331.455 372.738 294.442 336.677C251.418 294.76 166.134 250.496 153.423 242.211C143.255 235.583 136.637 224.936 134.6 220.441C140.165 234.437 154.189 267.851 165.765 289.534C187.102 329.5 176.574 451.927 274.75 519.784Z" fill="#FFDA92" fill-opacity="0.1"/>
<path d="M274.75 519.784C348.52 570.772 449.688 541.477 494.89 518.605C460.232 529.521 421.095 531.039 386.969 488.143C361.166 455.71 331.455 372.738 294.442 336.677C251.418 294.76 166.134 250.496 153.423 242.211C143.255 235.583 136.637 224.936 134.6 220.441C140.165 234.437 154.189 267.851 165.765 289.534C187.102 329.5 176.574 451.927 274.75 519.784Z" stroke="url(#paint9_linear)" stroke-opacity="0.8" stroke-width="1.66979"/>
</g>
<g filter="url(#filter6_d)">
<path d="M494.89 518.61C449.688 541.482 374.042 509.748 326.036 439.192C294.734 393.187 289.885 337.543 204.133 277.6C183.988 263.518 140.165 234.443 134.6 220.446C136.637 224.941 143.255 235.588 153.423 242.216C166.134 250.501 251.418 294.765 294.442 336.682C331.455 372.743 361.166 455.715 386.969 488.149C421.095 531.044 460.232 529.526 494.89 518.61Z" stroke="url(#paint10_radial)" stroke-opacity="0.5" stroke-width="0.834895"/>
</g>
<g filter="url(#filter7_f)">
<path d="M139.376 139.669L139.21 140.053L139.976 140.384L140.142 140.001L139.376 139.669ZM140.142 140.001C145.529 127.569 152.223 114.71 164.819 102.528C177.415 90.3449 195.94 78.8153 225.018 69.0922L224.753 68.3004C195.588 78.0528 176.945 89.6382 164.238 101.928C151.529 114.22 144.782 127.193 139.376 139.669L140.142 140.001Z" fill="url(#paint11_radial)"/>
</g>
<g filter="url(#filter8_f)">
<path d="M139.376 139.669L139.21 140.053L139.976 140.384L140.142 140.001L139.376 139.669ZM140.142 140.001C145.529 127.569 152.223 114.71 164.819 102.528C177.415 90.3449 195.94 78.8153 225.018 69.0922L224.753 68.3004C195.588 78.0528 176.945 89.6382 164.238 101.928C151.529 114.22 144.782 127.193 139.376 139.669L140.142 140.001Z" fill="url(#paint12_radial)"/>
</g>
<g filter="url(#filter9_f)">
<path d="M363.042 502.727C353.569 497.041 332.364 483.407 323.332 474.362" stroke="url(#paint13_radial)" stroke-opacity="0.5" stroke-width="0.834895"/>
</g>
<g filter="url(#filter10_f)">
<path d="M235.509 402.148C221.904 382.034 222.732 350.653 213.7 341.608" stroke="url(#paint14_radial)" stroke-width="0.834895"/>
</g>
<g filter="url(#filter11_f)">
<path d="M449.384 535.914C425.526 540.441 397.039 527.253 385.156 531.964" stroke="url(#paint15_radial)" stroke-width="1.66979"/>
</g>
<defs>
<filter id="filter0_f" x="33.0086" y="4.0047" width="648.652" height="569.988" filterUnits="userSpaceOnUse" color-interpolation-filters="sRGB">
<feFlood flood-opacity="0" result="BackgroundImageFix"/>
<feBlend mode="normal" in="SourceGraphic" in2="BackgroundImageFix" result="shape"/>
<feGaussianBlur stdDeviation="5.00937" result="effect1_foregroundBlur"/>
</filter>
<filter id="filter1_f" x="33.0086" y="4.0047" width="648.652" height="569.988" filterUnits="userSpaceOnUse" color-interpolation-filters="sRGB">
<feFlood flood-opacity="0" result="BackgroundImageFix"/>
<feBlend mode="normal" in="SourceGraphic" in2="BackgroundImageFix" result="shape"/>
<feGaussianBlur stdDeviation="5.00937" result="effect1_foregroundBlur"/>
</filter>
<filter id="filter2_f" x="38.018" y="9.01407" width="638.633" height="559.969" filterUnits="userSpaceOnUse" color-interpolation-filters="sRGB">
<feFlood flood-opacity="0" result="BackgroundImageFix"/>
<feBlend mode="normal" in="SourceGraphic" in2="BackgroundImageFix" result="shape"/>
<feGaussianBlur stdDeviation="2.50468" result="effect1_foregroundBlur"/>
</filter>
<filter id="filter3_f" x="22.9575" y="5.96096" width="669.347" height="586.39" filterUnits="userSpaceOnUse" color-interpolation-filters="sRGB">
<feFlood flood-opacity="0" result="BackgroundImageFix"/>
<feBlend mode="normal" in="SourceGraphic" in2="BackgroundImageFix" result="shape"/>
<feGaussianBlur stdDeviation="12.5234" result="effect1_foregroundBlur"/>
</filter>
<filter id="filter4_f" x="102.02" y="134.073" width="520.203" height="427.365" filterUnits="userSpaceOnUse" color-interpolation-filters="sRGB">
<feFlood flood-opacity="0" result="BackgroundImageFix"/>
<feBlend mode="normal" in="SourceGraphic" in2="BackgroundImageFix" result="shape"/>
<feGaussianBlur stdDeviation="1.25234" result="effect1_foregroundBlur"/>
</filter>
<filter id="filter5_bf" x="37.9594" y="214.616" width="512.376" height="397.611" filterUnits="userSpaceOnUse" color-interpolation-filters="sRGB">
<feFlood flood-opacity="0" result="BackgroundImageFix"/>
<feGaussianBlur in="BackgroundImage" stdDeviation="2.50468"/>
<feComposite in2="SourceAlpha" operator="in" result="effect1_backgroundBlur"/>
<feBlend mode="normal" in="SourceGraphic" in2="effect1_backgroundBlur" result="shape"/>
<feGaussianBlur stdDeviation="1.66979" result="effect2_foregroundBlur"/>
</filter>
<filter id="filter6_d" x="67.9461" y="220.039" width="480.287" height="334.066" filterUnits="userSpaceOnUse" color-interpolation-filters="sRGB">
<feFlood flood-opacity="0" result="BackgroundImageFix"/>
<feColorMatrix in="SourceAlpha" type="matrix" values="0 0 0 0 0 0 0 0 0 0 0 0 0 0 0 0 0 0 127 0"/>
<feOffset dy="3.33958"/>
<feGaussianBlur stdDeviation="1.66979"/>
<feColorMatrix type="matrix" values="0 0 0 0 0 0 0 0 0 0.878431 0 0 0 0 0.792157 0 0 0 0.2 0"/>
<feBlend mode="normal" in2="BackgroundImageFix" result="effect1_dropShadow"/>
<feBlend mode="normal" in="SourceGraphic" in2="effect1_dropShadow" result="shape"/>
</filter>
<filter id="filter7_f" x="137.434" y="46.6349" width="89.5108" height="115.284" filterUnits="userSpaceOnUse" color-interpolation-filters="sRGB">
<feFlood flood-opacity="0" result="BackgroundImageFix"/>
<feBlend mode="normal" in="SourceGraphic" in2="BackgroundImageFix" result="shape"/>
<feGaussianBlur stdDeviation="0.834895" result="effect1_foregroundBlur"/>
</filter>
<filter id="filter8_f" x="137.434" y="46.6349" width="89.5108" height="115.284" filterUnits="userSpaceOnUse" color-interpolation-filters="sRGB">
<feFlood flood-opacity="0" result="BackgroundImageFix"/>
<feBlend mode="normal" in="SourceGraphic" in2="BackgroundImageFix" result="shape"/>
<feGaussianBlur stdDeviation="0.834895" result="effect1_foregroundBlur"/>
</filter>
<filter id="filter9_f" x="317.626" y="472.276" width="51.0223" height="32.5137" filterUnits="userSpaceOnUse" color-interpolation-filters="sRGB">
<feFlood flood-opacity="0" result="BackgroundImageFix"/>
<feBlend mode="normal" in="SourceGraphic" in2="BackgroundImageFix" result="shape"/>
<feGaussianBlur stdDeviation="0.834895" result="effect1_foregroundBlur"/>
</filter>
<filter id="filter10_f" x="192.383" y="339.526" width="64.5215" height="64.7114" filterUnits="userSpaceOnUse" color-interpolation-filters="sRGB">
<feFlood flood-opacity="0" result="BackgroundImageFix"/>
<feBlend mode="normal" in="SourceGraphic" in2="BackgroundImageFix" result="shape"/>
<feGaussianBlur stdDeviation="0.834895" result="effect1_foregroundBlur"/>
</filter>
<filter id="filter11_f" x="382.754" y="499.283" width="69.0949" height="69.1637" filterUnits="userSpaceOnUse" color-interpolation-filters="sRGB">
<feFlood flood-opacity="0" result="BackgroundImageFix"/>
<feBlend mode="normal" in="SourceGraphic" in2="BackgroundImageFix" result="shape"/>
<feGaussianBlur stdDeviation="0.834895" result="effect1_foregroundBlur"/>
</filter>
<radialGradient id="paint0_radial" cx="0" cy="0" r="1" gradientUnits="userSpaceOnUse" gradientTransform="translate(357.336 288.996) rotate(72.779) scale(308.413 450.003)">
<stop stop-color="#FFDA92"/>
<stop offset="1" stop-color="#FFDA92" stop-opacity="0"/>
</radialGradient>
<linearGradient id="paint1_linear" x1="568.693" y1="388.169" x2="423.752" y2="449.167" gradientUnits="userSpaceOnUse">
<stop stop-color="#00E0CA"/>
<stop offset="1" stop-color="#00E0CA" stop-opacity="0"/>
</linearGradient>
<linearGradient id="paint2_linear" x1="281.258" y1="450.747" x2="433.411" y2="127.246" gradientUnits="userSpaceOnUse">
<stop stop-color="#FFAB8B"/>
<stop offset="1" stop-color="#00E0CA" stop-opacity="0"/>
</linearGradient>
<linearGradient id="paint3_linear" x1="266.409" y1="63.7758" x2="316.286" y2="258.844" gradientUnits="userSpaceOnUse">
<stop stop-color="#FFDA92"/>
<stop offset="1" stop-color="#FFDA92" stop-opacity="0"/>
</linearGradient>
<linearGradient id="paint4_linear" x1="142.198" y1="225.863" x2="316.286" y2="258.844" gradientUnits="userSpaceOnUse">
<stop stop-color="#E97C52"/>
<stop offset="1" stop-color="#FFDA92" stop-opacity="0"/>
</linearGradient>
<linearGradient id="paint5_linear" x1="443.983" y1="506.198" x2="398.609" y2="273.113" gradientUnits="userSpaceOnUse">
<stop stop-color="#FFAB8B"/>
<stop offset="1" stop-color="white" stop-opacity="0"/>
</linearGradient>
<linearGradient id="paint6_linear" x1="435.35" y1="242.15" x2="243.158" y2="167.383" gradientUnits="userSpaceOnUse">
<stop stop-color="#FFDA92" stop-opacity="0"/>
<stop offset="0.588542" stop-color="#FFD691"/>
<stop offset="1" stop-color="#FFAB8B"/>
</linearGradient>
<radialGradient id="paint7_radial" cx="0" cy="0" r="1" gradientUnits="userSpaceOnUse" gradientTransform="translate(459.457 543.919) rotate(-158.184) scale(205.741 436.99)">
<stop stop-color="#FFDA92"/>
<stop offset="1" stop-color="#FFDA92" stop-opacity="0"/>
</radialGradient>
<radialGradient id="paint8_radial" cx="0" cy="0" r="1" gradientUnits="userSpaceOnUse" gradientTransform="translate(187.279 322.257) rotate(38.5578) scale(139.02 295.276)">
<stop stop-color="#FFDA92"/>
<stop offset="1" stop-color="white" stop-opacity="0"/>
</radialGradient>
<linearGradient id="paint9_linear" x1="248.771" y1="509.794" x2="339.53" y2="316.826" gradientUnits="userSpaceOnUse">
<stop stop-color="#FFAB8B"/>
<stop offset="0.59375" stop-color="#FFDA92" stop-opacity="0.942708"/>
<stop offset="1" stop-color="#FFDA92" stop-opacity="0"/>
</linearGradient>
<radialGradient id="paint10_radial" cx="0" cy="0" r="1" gradientUnits="userSpaceOnUse" gradientTransform="translate(350.099 445.897) rotate(25.681) scale(97.2689 298.204)">
<stop stop-color="#FFAB8B"/>
<stop offset="1" stop-color="#FFDA92" stop-opacity="0"/>
</radialGradient>
<radialGradient id="paint11_radial" cx="0" cy="0" r="1" gradientUnits="userSpaceOnUse" gradientTransform="translate(172.455 93.8586) rotate(-50.2096) scale(51.3342 23.9099)">
<stop stop-color="#FFDA92"/>
<stop offset="1" stop-color="#FFDA92" stop-opacity="0"/>
</radialGradient>
<radialGradient id="paint12_radial" cx="0" cy="0" r="1" gradientUnits="userSpaceOnUse" gradientTransform="translate(172.455 93.8586) rotate(-50.2096) scale(51.3342 23.9099)">
<stop stop-color="#FFDA92"/>
<stop offset="1" stop-color="#FFDA92" stop-opacity="0"/>
</radialGradient>
<radialGradient id="paint13_radial" cx="0" cy="0" r="1" gradientUnits="userSpaceOnUse" gradientTransform="translate(343.187 488.544) rotate(-63.592) scale(9.81224 53.7337)">
<stop stop-color="#FFAB8B"/>
<stop offset="1" stop-color="#FFDA92" stop-opacity="0.35"/>
</radialGradient>
<radialGradient id="paint14_radial" cx="0" cy="0" r="1" gradientUnits="userSpaceOnUse" gradientTransform="translate(212.257 384.399) rotate(-63.592) scale(9.81224 53.7337)">
<stop stop-color="#FFDA92"/>
<stop offset="1" stop-color="#FFDA92" stop-opacity="0"/>
</radialGradient>
<radialGradient id="paint15_radial" cx="0" cy="0" r="1" gradientUnits="userSpaceOnUse" gradientTransform="translate(423.877 550.236) rotate(-130.261) scale(9.81224 53.7337)">
<stop stop-color="#FFDA92"/>
<stop offset="1" stop-color="#FFDA92" stop-opacity="0"/>
</radialGradient>
</defs>
</svg>
