<svg width="866" height="831" viewBox="0 0 866 831" fill="none" xmlns="http://www.w3.org/2000/svg">
<g filter="url(#filter0_f)">
<g filter="url(#filter1_f)">
<path d="M630.908 566.913C667.955 545.593 683.353 504.793 685.098 486.72C694.771 432.9 677.626 398.242 644.534 351.924C611.442 305.606 504.689 258.44 485.384 251.773C438.665 235.638 390.745 182.838 334.59 182.701C303.028 182.625 255.693 197.3 217.598 240.416C179.503 283.531 189.167 332.433 196.79 356.187C204.413 379.94 256.108 421.989 272.101 451.644C288.095 481.298 318.712 565.161 378.208 606.232C453.846 658.445 536.39 625.069 563.843 609.219C580.244 599.749 594.199 588.039 630.908 566.913Z" fill="url(#paint0_linear)"/>
<path d="M630.908 566.913C667.955 545.593 683.353 504.793 685.098 486.72C694.771 432.9 677.626 398.242 644.534 351.924C611.442 305.606 504.689 258.44 485.384 251.773C438.665 235.638 390.745 182.838 334.59 182.701C303.028 182.625 255.693 197.3 217.598 240.416C179.503 283.531 189.167 332.433 196.79 356.187C204.413 379.94 256.108 421.989 272.101 451.644C288.095 481.298 318.712 565.161 378.208 606.232C453.846 658.445 536.39 625.069 563.843 609.219C580.244 599.749 594.199 588.039 630.908 566.913Z" fill="url(#paint1_linear)"/>
<path d="M630.908 566.913C667.955 545.593 683.353 504.793 685.098 486.72C694.771 432.9 677.626 398.242 644.534 351.924C611.442 305.606 504.689 258.44 485.384 251.773C438.665 235.638 390.745 182.838 334.59 182.701C303.028 182.625 255.693 197.3 217.598 240.416C179.503 283.531 189.167 332.433 196.79 356.187C204.413 379.94 256.108 421.989 272.101 451.644C288.095 481.298 318.712 565.161 378.208 606.232C453.846 658.445 536.39 625.069 563.843 609.219C580.244 599.749 594.199 588.039 630.908 566.913Z" fill="url(#paint2_linear)"/>
<path d="M630.908 566.913C667.955 545.593 683.353 504.793 685.098 486.72C694.771 432.9 677.626 398.242 644.534 351.924C611.442 305.606 504.689 258.44 485.384 251.773C438.665 235.638 390.745 182.838 334.59 182.701C303.028 182.625 255.693 197.3 217.598 240.416C179.503 283.531 189.167 332.433 196.79 356.187C204.413 379.94 256.108 421.989 272.101 451.644C288.095 481.298 318.712 565.161 378.208 606.232C453.846 658.445 536.39 625.069 563.843 609.219C580.244 599.749 594.199 588.039 630.908 566.913Z" fill="url(#paint3_radial)"/>
<path d="M630.908 566.913C667.955 545.593 683.353 504.793 685.098 486.72C694.771 432.9 677.626 398.242 644.534 351.924C611.442 305.606 504.689 258.44 485.384 251.773C438.665 235.638 390.745 182.838 334.59 182.701C303.028 182.625 255.693 197.3 217.598 240.416C179.503 283.531 189.167 332.433 196.79 356.187C204.413 379.94 256.108 421.989 272.101 451.644C288.095 481.298 318.712 565.161 378.208 606.232C453.846 658.445 536.39 625.069 563.843 609.219C580.244 599.749 594.199 588.039 630.908 566.913Z" fill="url(#paint4_radial)"/>
<path d="M630.908 566.913C667.955 545.593 683.353 504.793 685.098 486.72C694.771 432.9 677.626 398.242 644.534 351.924C611.442 305.606 504.689 258.44 485.384 251.773C438.665 235.638 390.745 182.838 334.59 182.701C303.028 182.625 255.693 197.3 217.598 240.416C179.503 283.531 189.167 332.433 196.79 356.187C204.413 379.94 256.108 421.989 272.101 451.644C288.095 481.298 318.712 565.161 378.208 606.232C453.846 658.445 536.39 625.069 563.843 609.219C580.244 599.749 594.199 588.039 630.908 566.913Z" fill="url(#paint5_radial)"/>
</g>
<path d="M512.663 559.773C539.591 586.936 573.685 590.75 603.852 583.373C628.844 577.261 680.847 548.605 688.929 482.875C699.031 400.711 634.802 315.226 515.061 267.974C394.663 220.462 362.978 153.692 277.368 193.442C148.399 253.326 199.838 369.945 216.365 381.822C232.893 393.7 301.885 408.645 360.658 428.539C414.285 446.692 492.198 539.129 512.663 559.773Z" stroke="url(#paint6_radial)" stroke-width="1.66979"/>
<mask id="mask0" mask-type="alpha" maskUnits="userSpaceOnUse" x="153" y="160" width="578" height="445">
<path d="M598.893 563.098C573.897 569.211 547.987 565.759 527.485 545.078C524.376 541.942 519.88 537.063 513.995 530.678C510.78 527.189 507.149 523.249 503.104 518.899C491.986 506.941 478.382 492.594 463.649 478.261C448.953 463.965 432.88 449.433 416.794 437.19C400.956 425.137 383.917 414.377 367.349 408.769C343.428 400.672 317.775 393.355 295.063 386.878C289.317 385.239 283.759 383.654 278.465 382.123C265.157 378.276 253.617 374.806 244.483 371.624C235.681 368.558 230.98 366.37 229.097 365.233C228.824 364.899 227.991 363.888 226.722 361.827C224.76 358.642 222.46 354.089 220.304 348.401C215.979 336.988 212.668 322.168 213.166 306.289C213.659 290.579 217.858 273.928 228.457 258.066C239.056 242.203 256.809 226.001 286.157 212.374C304.941 203.651 319.346 201.383 331.953 202.437C344.86 203.516 357.749 208.221 373.472 216.468C382.364 221.133 392.42 227.173 403.774 233.993C430.52 250.057 464.471 270.449 507.398 287.389C623.041 333.024 676.628 411.864 668.211 480.328C661.529 534.672 618.548 558.291 598.893 563.098L603.832 583.294L598.893 563.098Z" stroke="url(#paint7_linear)" stroke-width="41.7448"/>
</mask>
<g mask="url(#mask0)">
<g filter="url(#filter2_f)">
<path d="M512.662 559.773C539.59 586.936 573.684 590.75 603.851 583.373C628.842 577.261 680.846 548.605 688.927 482.875C699.029 400.711 634.8 315.226 515.06 267.974C394.662 220.462 362.976 153.692 277.367 193.442C148.398 253.326 199.837 369.945 216.364 381.822C232.891 393.7 301.884 408.645 360.656 428.539C414.283 446.692 492.196 539.129 512.662 559.773Z" stroke="#FFDA69" stroke-width="3.33958"/>
</g>
</g>
<mask id="mask1" mask-type="alpha" maskUnits="userSpaceOnUse" x="153" y="160" width="578" height="445">
<path d="M598.893 563.098C573.897 569.211 547.987 565.759 527.485 545.078C524.376 541.942 519.88 537.063 513.995 530.678C510.78 527.189 507.149 523.249 503.104 518.899C491.986 506.941 478.382 492.594 463.649 478.261C448.953 463.965 432.88 449.433 416.794 437.19C400.956 425.137 383.917 414.377 367.349 408.769C343.428 400.672 317.775 393.355 295.063 386.878C289.317 385.239 283.759 383.654 278.465 382.123C265.157 378.276 253.617 374.806 244.483 371.624C235.681 368.558 230.98 366.37 229.097 365.233C228.824 364.899 227.991 363.888 226.722 361.827C224.76 358.642 222.46 354.089 220.304 348.401C215.979 336.988 212.668 322.168 213.166 306.289C213.659 290.579 217.858 273.928 228.457 258.066C239.056 242.203 256.809 226.001 286.157 212.374C304.941 203.651 319.346 201.383 331.953 202.437C344.86 203.516 357.749 208.221 373.472 216.468C382.364 221.133 392.42 227.173 403.774 233.993C430.52 250.057 464.471 270.449 507.398 287.389C623.041 333.024 676.628 411.864 668.211 480.328C661.529 534.672 618.548 558.291 598.893 563.098L603.832 583.294L598.893 563.098Z" stroke="url(#paint8_linear)" stroke-width="41.7448"/>
</mask>
<g mask="url(#mask1)">
<g filter="url(#filter3_f)">
<path d="M512.662 559.773C539.59 586.936 573.684 590.75 603.851 583.373C628.842 577.261 680.846 548.605 688.927 482.875C699.029 400.711 634.8 315.226 515.06 267.974C394.662 220.462 362.976 153.692 277.367 193.442C148.398 253.326 199.837 369.945 216.364 381.822C232.891 393.7 301.884 408.645 360.656 428.539C414.283 446.692 492.196 539.129 512.662 559.773Z" stroke="url(#paint9_linear)" stroke-width="3.33958"/>
</g>
<g filter="url(#filter4_f)">
<path d="M512.662 559.773C539.59 586.936 573.684 590.75 603.851 583.373C628.842 577.261 680.846 548.605 688.927 482.875C699.029 400.711 634.8 315.226 515.06 267.974C394.662 220.462 362.976 153.692 277.367 193.442C148.398 253.326 199.837 369.945 216.364 381.822C232.891 393.7 301.884 408.645 360.656 428.539C414.283 446.692 492.196 539.129 512.662 559.773Z" stroke="url(#paint10_linear)" stroke-width="3.33958"/>
<path d="M512.662 559.773C539.59 586.936 573.684 590.75 603.851 583.373C628.842 577.261 680.846 548.605 688.927 482.875C699.029 400.711 634.8 315.226 515.06 267.974C394.662 220.462 362.976 153.692 277.367 193.442C148.398 253.326 199.837 369.945 216.364 381.822C232.891 393.7 301.884 408.645 360.656 428.539C414.283 446.692 492.196 539.129 512.662 559.773Z" stroke="url(#paint11_linear)" stroke-width="3.33958"/>
</g>
</g>
<path opacity="0.4" d="M512.663 559.773C539.591 586.936 573.685 590.75 603.852 583.373C628.844 577.261 680.847 548.605 688.929 482.875C699.031 400.711 628.16 315.433 506.41 273.629C389.761 233.578 370.19 174.922 284.58 214.673C155.611 274.557 208.184 361.266 224.711 373.143C241.239 385.021 301.885 408.645 360.658 428.539C414.285 446.692 492.198 539.129 512.663 559.773Z" stroke="#FFAB8B" stroke-opacity="0.5" stroke-width="0.834895"/>
<g opacity="0.3" filter="url(#filter5_f)">
<path d="M512.663 559.773C539.591 586.936 573.685 590.75 603.852 583.373C628.844 577.261 680.847 548.605 688.929 482.875C699.031 400.711 628.16 315.433 506.41 273.629C389.761 233.578 370.19 174.922 284.58 214.673C155.611 274.557 208.184 361.266 224.711 373.143C241.239 385.021 301.885 408.645 360.658 428.539C414.285 446.692 492.198 539.129 512.663 559.773Z" stroke="#FFDA69" stroke-width="8.34895"/>
</g>
<g opacity="0.35" filter="url(#filter6_f)">
<path d="M525.938 564.379C550.68 587.809 581.687 591.415 609.012 585.442C631.649 580.493 671.666 556.45 678.323 500.513C686.643 430.592 616.916 388.471 505.893 351.576C399.522 316.227 378.071 272.335 313.642 295.741C224.018 328.301 247.309 392.026 262.444 402.321C277.58 412.616 332.912 433.381 386.503 450.949C435.402 466.978 507.134 546.571 525.938 564.379Z" stroke="url(#paint12_linear)" stroke-width="0.834895"/>
</g>
<g filter="url(#filter7_bf)">
<path d="M422.18 626.641C506.633 656.799 596.772 602.318 634.514 568.526C603.862 588.04 566.451 599.636 522.386 567.034C489.068 542.384 438.894 469.93 393.809 444.677C341.403 415.323 247.568 394.641 233.147 389.928C221.609 386.158 212.461 377.586 209.33 373.772C218.328 385.851 240.522 414.497 257.315 432.444C288.269 465.526 309.787 586.506 422.18 626.641Z" fill="url(#paint13_radial)" fill-opacity="0.8"/>
<path d="M422.18 626.641C506.633 656.799 596.772 602.318 634.514 568.526C603.862 588.04 566.451 599.636 522.386 567.034C489.068 542.384 438.894 469.93 393.809 444.677C341.403 415.323 247.568 394.641 233.147 389.928C221.609 386.158 212.461 377.586 209.33 373.772C218.328 385.851 240.522 414.497 257.315 432.444C288.269 465.526 309.787 586.506 422.18 626.641Z" fill="url(#paint14_radial)" fill-opacity="0.8"/>
<path d="M422.18 626.641C506.633 656.799 596.772 602.318 634.514 568.526C603.862 588.04 566.451 599.636 522.386 567.034C489.068 542.384 438.894 469.93 393.809 444.677C341.403 415.323 247.568 394.641 233.147 389.928C221.609 386.158 212.461 377.586 209.33 373.772C218.328 385.851 240.522 414.497 257.315 432.444C288.269 465.526 309.787 586.506 422.18 626.641Z" fill="#FFDA92" fill-opacity="0.1"/>
<path d="M422.18 626.641C506.633 656.799 596.772 602.318 634.514 568.526C603.862 588.04 566.451 599.636 522.386 567.034C489.068 542.384 438.894 469.93 393.809 444.677C341.403 415.323 247.568 394.641 233.147 389.928C221.609 386.158 212.461 377.586 209.33 373.772C218.328 385.851 240.522 414.497 257.315 432.444C288.269 465.526 309.787 586.506 422.18 626.641Z" stroke="url(#paint15_linear)" stroke-opacity="0.8" stroke-width="1.66979"/>
</g>
<g filter="url(#filter8_d)">
<path d="M634.515 568.528C596.772 602.32 515.49 591.246 450.858 535.519C408.716 499.183 389.631 446.69 291.287 410.984C268.183 402.595 218.328 385.853 209.33 373.774C212.462 377.589 221.609 386.16 233.147 389.93C247.569 394.643 341.403 415.326 393.81 444.679C438.895 469.932 489.069 542.386 522.386 567.037C566.452 599.639 603.862 588.043 634.515 568.528Z" stroke="url(#paint16_radial)" stroke-opacity="0.5" stroke-width="0.834895"/>
</g>
<g filter="url(#filter9_f)">
<path d="M193.037 294.512L192.976 294.925L193.802 295.047L193.863 294.634L193.037 294.512ZM193.863 294.634C195.849 281.231 198.987 267.078 208 252.051C217.014 237.023 231.923 221.092 257.494 204.174L257.034 203.477C231.386 220.446 216.377 236.462 207.284 251.622C198.19 266.784 195.03 281.061 193.037 294.512L193.863 294.634Z" fill="url(#paint17_radial)"/>
</g>
<g filter="url(#filter10_f)">
<path d="M193.037 294.512L192.976 294.925L193.802 295.047L193.863 294.634L193.037 294.512ZM193.863 294.634C195.849 281.231 198.987 267.078 208 252.051C217.014 237.023 231.923 221.092 257.494 204.174L257.034 203.477C231.386 220.446 216.377 236.462 207.284 251.622C198.19 266.784 195.03 281.061 193.037 294.512L193.863 294.634Z" fill="url(#paint18_radial)"/>
</g>
<g filter="url(#filter11_f)">
<path d="M503.049 587.312C492.426 584.272 468.415 576.592 457.35 570.192" stroke="url(#paint19_radial)" stroke-opacity="0.5" stroke-width="0.834895"/>
</g>
<g filter="url(#filter12_f)">
<path d="M353.83 523.168C335.482 507.26 328.16 476.734 317.095 470.335" stroke="url(#paint20_radial)" stroke-width="0.834895"/>
</g>
<g filter="url(#filter13_f)">
<path d="M595.038 597.023C573.165 607.571 542.235 602.205 531.976 609.831" stroke="url(#paint21_radial)" stroke-width="1.66979"/>
</g>
<g opacity="0.4" filter="url(#filter14_f)">
<path d="M347.901 546.702C347.082 555.037 352.491 576.227 355.298 585.78C334.432 569.729 300.932 510.691 293.878 493.306C286.823 475.921 214.919 387.501 281.447 402.003C347.975 416.505 397.999 449.672 435.13 476.704C432.642 486.775 424.87 499.177 428.706 512.449C413.96 495.378 423.101 510.594 404.986 488.676C398.981 503.205 407.374 531.236 407.291 539.562C406.319 538.681 400.617 533.273 385.593 518.697C381.62 533.252 385.013 551.817 387.206 559.28C385.883 557.204 374.45 547.656 361.579 534.315C362.015 543.216 367.486 562.805 370.167 571.486C367.499 569.028 359.31 560.628 347.901 546.702Z" fill="url(#paint22_linear)"/>
<path d="M347.901 546.702C347.082 555.037 352.491 576.227 355.298 585.78C334.432 569.729 300.932 510.691 293.878 493.306C286.823 475.921 214.919 387.501 281.447 402.003C347.975 416.505 397.999 449.672 435.13 476.704C432.642 486.775 424.87 499.177 428.706 512.449C413.96 495.378 423.101 510.594 404.986 488.676C398.981 503.205 407.374 531.236 407.291 539.562C406.319 538.681 400.617 533.273 385.593 518.697C381.62 533.252 385.013 551.817 387.206 559.28C385.883 557.204 374.45 547.656 361.579 534.315C362.015 543.216 367.486 562.805 370.167 571.486C367.499 569.028 359.31 560.628 347.901 546.702Z" fill="url(#paint23_linear)"/>
</g>
<g opacity="0.9" filter="url(#filter15_f)">
<path d="M417.693 620.029C460.766 635.236 520.872 643.811 607.684 585.544C516.353 597.915 528.94 558.881 477.516 545.301C504.977 609.616 363.851 601.021 417.693 620.029Z" fill="url(#paint24_linear)"/>
</g>
</g>
<g filter="url(#filter16_f)">
<path d="M278.531 136.01C259.797 122.892 269.468 105.256 282.585 86.5218C295.703 67.7876 322.834 63.2646 341.568 76.3824C360.302 89.5003 359.678 112.583 346.56 131.317C333.442 150.051 297.266 149.127 278.531 136.01Z" fill="url(#paint25_linear)"/>
<path d="M278.531 136.01C259.797 122.892 269.468 105.256 282.585 86.5218C295.703 67.7876 322.834 63.2646 341.568 76.3824C360.302 89.5003 359.678 112.583 346.56 131.317C333.442 150.051 297.266 149.127 278.531 136.01Z" fill="url(#paint26_linear)"/>
<path d="M278.531 136.01C259.797 122.892 269.468 105.256 282.585 86.5218C295.703 67.7876 322.834 63.2646 341.568 76.3824C360.302 89.5003 359.678 112.583 346.56 131.317C333.442 150.051 297.266 149.127 278.531 136.01Z" fill="url(#paint27_linear)"/>
<path d="M278.531 136.01C259.797 122.892 269.468 105.256 282.585 86.5218C295.703 67.7876 322.834 63.2646 341.568 76.3824C360.302 89.5003 359.678 112.583 346.56 131.317C333.442 150.051 297.266 149.127 278.531 136.01Z" fill="url(#paint28_radial)"/>
<path d="M278.531 136.01C259.797 122.892 269.468 105.256 282.585 86.5218C295.703 67.7876 322.834 63.2646 341.568 76.3824C360.302 89.5003 359.678 112.583 346.56 131.317C333.442 150.051 297.266 149.127 278.531 136.01Z" fill="url(#paint29_radial)"/>
<path d="M278.531 136.01C259.797 122.892 269.468 105.256 282.585 86.5218C295.703 67.7876 322.834 63.2646 341.568 76.3824C360.302 89.5003 359.678 112.583 346.56 131.317C333.442 150.051 297.266 149.127 278.531 136.01Z" fill="url(#paint30_radial)"/>
</g>
<defs>
<filter id="filter0_f" x="115.383" y="134.305" width="641.793" height="560.734" filterUnits="userSpaceOnUse" color-interpolation-filters="sRGB">
<feFlood flood-opacity="0" result="BackgroundImageFix"/>
<feBlend mode="normal" in="SourceGraphic" in2="BackgroundImageFix" result="shape"/>
<feGaussianBlur stdDeviation="12.5" result="effect1_foregroundBlur"/>
</filter>
<filter id="filter1_f" x="132.034" y="151.503" width="603.794" height="526.885" filterUnits="userSpaceOnUse" color-interpolation-filters="sRGB">
<feFlood flood-opacity="0" result="BackgroundImageFix"/>
<feBlend mode="normal" in="SourceGraphic" in2="BackgroundImageFix" result="shape"/>
<feGaussianBlur stdDeviation="4.17447" result="effect1_foregroundBlur"/>
</filter>
<filter id="filter2_f" x="141.944" y="148.317" width="600.549" height="468.047" filterUnits="userSpaceOnUse" color-interpolation-filters="sRGB">
<feFlood flood-opacity="0" result="BackgroundImageFix"/>
<feBlend mode="normal" in="SourceGraphic" in2="BackgroundImageFix" result="shape"/>
<feGaussianBlur stdDeviation="5.00937" result="effect1_foregroundBlur"/>
</filter>
<filter id="filter3_f" x="141.944" y="148.317" width="600.549" height="468.047" filterUnits="userSpaceOnUse" color-interpolation-filters="sRGB">
<feFlood flood-opacity="0" result="BackgroundImageFix"/>
<feBlend mode="normal" in="SourceGraphic" in2="BackgroundImageFix" result="shape"/>
<feGaussianBlur stdDeviation="5.00937" result="effect1_foregroundBlur"/>
</filter>
<filter id="filter4_f" x="146.953" y="153.327" width="590.531" height="458.029" filterUnits="userSpaceOnUse" color-interpolation-filters="sRGB">
<feFlood flood-opacity="0" result="BackgroundImageFix"/>
<feBlend mode="normal" in="SourceGraphic" in2="BackgroundImageFix" result="shape"/>
<feGaussianBlur stdDeviation="2.50468" result="effect1_foregroundBlur"/>
</filter>
<filter id="filter5_f" x="133.045" y="149.852" width="624.178" height="484.446" filterUnits="userSpaceOnUse" color-interpolation-filters="sRGB">
<feFlood flood-opacity="0" result="BackgroundImageFix"/>
<feBlend mode="normal" in="SourceGraphic" in2="BackgroundImageFix" result="shape"/>
<feGaussianBlur stdDeviation="12.5234" result="effect1_foregroundBlur"/>
</filter>
<filter id="filter6_f" x="215.903" y="269.898" width="492.293" height="335.916" filterUnits="userSpaceOnUse" color-interpolation-filters="sRGB">
<feFlood flood-opacity="0" result="BackgroundImageFix"/>
<feBlend mode="normal" in="SourceGraphic" in2="BackgroundImageFix" result="shape"/>
<feGaussianBlur stdDeviation="1.25234" result="effect1_foregroundBlur"/>
</filter>
<filter id="filter7_bf" x="165.888" y="368.038" width="494.999" height="301.689" filterUnits="userSpaceOnUse" color-interpolation-filters="sRGB">
<feFlood flood-opacity="0" result="BackgroundImageFix"/>
<feGaussianBlur in="BackgroundImage" stdDeviation="2.50468"/>
<feComposite in2="SourceAlpha" operator="in" result="effect1_backgroundBlur"/>
<feBlend mode="normal" in="SourceGraphic" in2="effect1_backgroundBlur" result="shape"/>
<feGaussianBlur stdDeviation="1.66979" result="effect2_foregroundBlur"/>
</filter>
<filter id="filter8_d" x="179.501" y="373.41" width="479.336" height="233.042" filterUnits="userSpaceOnUse" color-interpolation-filters="sRGB">
<feFlood flood-opacity="0" result="BackgroundImageFix"/>
<feColorMatrix in="SourceAlpha" type="matrix" values="0 0 0 0 0 0 0 0 0 0 0 0 0 0 0 0 0 0 127 0"/>
<feOffset dy="3.33958"/>
<feGaussianBlur stdDeviation="1.66979"/>
<feColorMatrix type="matrix" values="0 0 0 0 0 0 0 0 0 0.878431 0 0 0 0 0.792157 0 0 0 0.2 0"/>
<feBlend mode="normal" in2="BackgroundImageFix" result="effect1_dropShadow"/>
<feBlend mode="normal" in="SourceGraphic" in2="effect1_dropShadow" result="shape"/>
</filter>
<filter id="filter9_f" x="191.191" y="193.494" width="68.0802" height="111.492" filterUnits="userSpaceOnUse" color-interpolation-filters="sRGB">
<feFlood flood-opacity="0" result="BackgroundImageFix"/>
<feBlend mode="normal" in="SourceGraphic" in2="BackgroundImageFix" result="shape"/>
<feGaussianBlur stdDeviation="0.834895" result="effect1_foregroundBlur"/>
</filter>
<filter id="filter10_f" x="191.191" y="193.494" width="68.0802" height="111.492" filterUnits="userSpaceOnUse" color-interpolation-filters="sRGB">
<feFlood flood-opacity="0" result="BackgroundImageFix"/>
<feBlend mode="normal" in="SourceGraphic" in2="BackgroundImageFix" result="shape"/>
<feGaussianBlur stdDeviation="0.834895" result="effect1_foregroundBlur"/>
</filter>
<filter id="filter11_f" x="453.917" y="568.111" width="52.4636" height="21.2877" filterUnits="userSpaceOnUse" color-interpolation-filters="sRGB">
<feFlood flood-opacity="0" result="BackgroundImageFix"/>
<feBlend mode="normal" in="SourceGraphic" in2="BackgroundImageFix" result="shape"/>
<feGaussianBlur stdDeviation="0.834895" result="effect1_foregroundBlur"/>
</filter>
<filter id="filter12_f" x="307.173" y="468.252" width="56.6554" height="56.9753" filterUnits="userSpaceOnUse" color-interpolation-filters="sRGB">
<feFlood flood-opacity="0" result="BackgroundImageFix"/>
<feBlend mode="normal" in="SourceGraphic" in2="BackgroundImageFix" result="shape"/>
<feGaussianBlur stdDeviation="0.834895" result="effect1_foregroundBlur"/>
</filter>
<filter id="filter13_f" x="529.495" y="569.436" width="68.0465" height="67.8234" filterUnits="userSpaceOnUse" color-interpolation-filters="sRGB">
<feFlood flood-opacity="0" result="BackgroundImageFix"/>
<feBlend mode="normal" in="SourceGraphic" in2="BackgroundImageFix" result="shape"/>
<feGaussianBlur stdDeviation="0.834895" result="effect1_foregroundBlur"/>
</filter>
<filter id="filter14_f" x="216.253" y="387.341" width="237.104" height="218.942" filterUnits="userSpaceOnUse" color-interpolation-filters="sRGB">
<feFlood flood-opacity="0" result="BackgroundImageFix"/>
<feBlend mode="normal" in="SourceGraphic" in2="BackgroundImageFix" result="shape"/>
<feGaussianBlur stdDeviation="5.00937" result="effect1_foregroundBlur"/>
</filter>
<filter id="filter15_f" x="402.211" y="533.162" width="210.076" height="123.31" filterUnits="userSpaceOnUse" color-interpolation-filters="sRGB">
<feFlood flood-opacity="0" result="BackgroundImageFix"/>
<feBlend mode="normal" in="SourceGraphic" in2="BackgroundImageFix" result="shape"/>
<feGaussianBlur stdDeviation="0.834895" result="effect1_foregroundBlur"/>
</filter>
<filter id="filter16_f" x="245" y="39.0078" width="138.728" height="140.423" filterUnits="userSpaceOnUse" color-interpolation-filters="sRGB">
<feFlood flood-opacity="0" result="BackgroundImageFix"/>
<feBlend mode="normal" in="SourceGraphic" in2="BackgroundImageFix" result="shape"/>
<feGaussianBlur stdDeviation="6.5" result="effect1_foregroundBlur"/>
</filter>
<linearGradient id="paint0_linear" x1="214.728" y1="476.486" x2="339.611" y2="344.041" gradientUnits="userSpaceOnUse">
<stop stop-color="white"/>
<stop offset="1" stop-color="white" stop-opacity="0"/>
</linearGradient>
<linearGradient id="paint1_linear" x1="506.408" y1="183.663" x2="395.703" y2="325.315" gradientUnits="userSpaceOnUse">
<stop stop-color="white"/>
<stop offset="1" stop-color="white" stop-opacity="0"/>
</linearGradient>
<linearGradient id="paint2_linear" x1="241.18" y1="187.818" x2="288.129" y2="270.65" gradientUnits="userSpaceOnUse">
<stop stop-color="white"/>
<stop offset="1" stop-color="white" stop-opacity="0"/>
</linearGradient>
<radialGradient id="paint3_radial" cx="0" cy="0" r="1" gradientUnits="userSpaceOnUse" gradientTransform="translate(375.054 352.875) rotate(-41.3308) scale(148.524 73.516)">
<stop stop-color="white"/>
<stop offset="1" stop-color="white" stop-opacity="0"/>
</radialGradient>
<radialGradient id="paint4_radial" cx="0" cy="0" r="1" gradientUnits="userSpaceOnUse" gradientTransform="translate(505.622 216.654) rotate(125.041) scale(131.114 160.511)">
<stop stop-color="#FFAB8B"/>
<stop offset="1" stop-color="white" stop-opacity="0"/>
</radialGradient>
<radialGradient id="paint5_radial" cx="0" cy="0" r="1" gradientUnits="userSpaceOnUse" gradientTransform="translate(643.636 574.407) rotate(-89.6376) scale(183.446 224.577)">
<stop stop-color="#FFDA92"/>
<stop offset="1" stop-color="white" stop-opacity="0"/>
</radialGradient>
<radialGradient id="paint6_radial" cx="0" cy="0" r="1" gradientUnits="userSpaceOnUse" gradientTransform="translate(442.22 382.34) rotate(57.779) scale(308.414 450.003)">
<stop stop-color="#FFDA92"/>
<stop offset="1" stop-color="#FFDA92" stop-opacity="0"/>
</radialGradient>
<linearGradient id="paint7_linear" x1="672.043" y1="423.43" x2="547.828" y2="519.863" gradientUnits="userSpaceOnUse">
<stop stop-color="#00E0CA"/>
<stop offset="1" stop-color="#00E0CA" stop-opacity="0"/>
</linearGradient>
<linearGradient id="paint8_linear" x1="410.598" y1="558.269" x2="473.838" y2="206.411" gradientUnits="userSpaceOnUse">
<stop stop-color="#FFAB8B"/>
<stop offset="1" stop-color="#00E0CA" stop-opacity="0"/>
</linearGradient>
<linearGradient id="paint9_linear" x1="296.1" y1="188.327" x2="394.764" y2="363.839" gradientUnits="userSpaceOnUse">
<stop stop-color="#FFDA92"/>
<stop offset="1" stop-color="#FFDA92" stop-opacity="0"/>
</linearGradient>
<linearGradient id="paint10_linear" x1="218.072" y1="377.04" x2="394.764" y2="363.839" gradientUnits="userSpaceOnUse">
<stop stop-color="#E97C52"/>
<stop offset="1" stop-color="#FFDA92" stop-opacity="0"/>
</linearGradient>
<linearGradient id="paint11_linear" x1="582.13" y1="569.714" x2="477.975" y2="356.315" gradientUnits="userSpaceOnUse">
<stop stop-color="#FFAB8B"/>
<stop offset="1" stop-color="white" stop-opacity="0"/>
</linearGradient>
<linearGradient id="paint12_linear" x1="505.45" y1="316.899" x2="300.457" y2="294.422" gradientUnits="userSpaceOnUse">
<stop stop-color="#FFDA92" stop-opacity="0"/>
<stop offset="0.588542" stop-color="#FFD691"/>
<stop offset="1" stop-color="#FFAB8B"/>
</linearGradient>
<radialGradient id="paint13_radial" cx="0" cy="0" r="1" gradientUnits="userSpaceOnUse" gradientTransform="translate(606.84 602.148) rotate(-173.184) scale(205.741 436.99)">
<stop stop-color="#FFDA92"/>
<stop offset="1" stop-color="#FFDA92" stop-opacity="0"/>
</radialGradient>
<radialGradient id="paint14_radial" cx="0" cy="0" r="1" gradientUnits="userSpaceOnUse" gradientTransform="translate(286.566 458.485) rotate(23.5578) scale(139.02 295.276)">
<stop stop-color="#FFDA92"/>
<stop offset="1" stop-color="white" stop-opacity="0"/>
</radialGradient>
<linearGradient id="paint15_linear" x1="394.501" y1="623.716" x2="432.223" y2="413.833" gradientUnits="userSpaceOnUse">
<stop stop-color="#FFAB8B"/>
<stop offset="0.59375" stop-color="#FFDA92" stop-opacity="0.942708"/>
<stop offset="1" stop-color="#FFDA92" stop-opacity="0"/>
</linearGradient>
<radialGradient id="paint16_radial" cx="0" cy="0" r="1" gradientUnits="userSpaceOnUse" gradientTransform="translate(475.838 535.767) rotate(10.681) scale(97.2689 298.204)">
<stop stop-color="#FFAB8B"/>
<stop offset="1" stop-color="#FFDA92" stop-opacity="0"/>
</radialGradient>
<radialGradient id="paint17_radial" cx="0" cy="0" r="1" gradientUnits="userSpaceOnUse" gradientTransform="translate(213.133 241.7) rotate(-65.2096) scale(51.3342 23.9099)">
<stop stop-color="#FFDA92"/>
<stop offset="1" stop-color="#FFDA92" stop-opacity="0"/>
</radialGradient>
<radialGradient id="paint18_radial" cx="0" cy="0" r="1" gradientUnits="userSpaceOnUse" gradientTransform="translate(213.133 241.7) rotate(-65.2096) scale(51.3342 23.9099)">
<stop stop-color="#FFDA92"/>
<stop offset="1" stop-color="#FFDA92" stop-opacity="0"/>
</radialGradient>
<radialGradient id="paint19_radial" cx="0" cy="0" r="1" gradientUnits="userSpaceOnUse" gradientTransform="translate(480.2 578.752) rotate(-78.592) scale(9.81224 53.7337)">
<stop stop-color="#FFAB8B"/>
<stop offset="1" stop-color="#FFDA92" stop-opacity="0.35"/>
</radialGradient>
<radialGradient id="paint20_radial" cx="0" cy="0" r="1" gradientUnits="userSpaceOnUse" gradientTransform="translate(326.776 512.042) rotate(-78.592) scale(9.81224 53.7337)">
<stop stop-color="#FFDA92"/>
<stop offset="1" stop-color="#FFDA92" stop-opacity="0"/>
</radialGradient>
<radialGradient id="paint21_radial" cx="0" cy="0" r="1" gradientUnits="userSpaceOnUse" gradientTransform="translate(574.107 617.459) rotate(-145.261) scale(9.81224 53.7337)">
<stop stop-color="#FFDA92"/>
<stop offset="1" stop-color="#FFDA92" stop-opacity="0"/>
</radialGradient>
<linearGradient id="paint22_linear" x1="471.501" y1="644.837" x2="348.366" y2="499.282" gradientUnits="userSpaceOnUse">
<stop stop-color="#FFAB8B"/>
<stop offset="1" stop-color="#FFAB8B" stop-opacity="0"/>
</linearGradient>
<linearGradient id="paint23_linear" x1="318.201" y1="464.171" x2="421.103" y2="538.228" gradientUnits="userSpaceOnUse">
<stop stop-color="#FFAB8B" stop-opacity="0.1"/>
<stop offset="0.473543" stop-color="#FFAB8B" stop-opacity="0.38"/>
<stop offset="0.671875" stop-color="#FFAB8B" stop-opacity="0"/>
</linearGradient>
<linearGradient id="paint24_linear" x1="508.184" y1="653.126" x2="452.18" y2="598.95" gradientUnits="userSpaceOnUse">
<stop stop-color="#FFAB8B"/>
<stop offset="1" stop-color="#FFAB8B" stop-opacity="0"/>
</linearGradient>
<linearGradient id="paint25_linear" x1="310.121" y1="147.115" x2="299.783" y2="116.609" gradientUnits="userSpaceOnUse">
<stop stop-color="white"/>
<stop offset="1" stop-color="white" stop-opacity="0"/>
</linearGradient>
<linearGradient id="paint26_linear" x1="281.01" y1="79.7933" x2="294.237" y2="109.076" gradientUnits="userSpaceOnUse">
<stop stop-color="white"/>
<stop offset="1" stop-color="white" stop-opacity="0"/>
</linearGradient>
<linearGradient id="paint27_linear" x1="264.291" y1="120.017" x2="280.75" y2="117.682" gradientUnits="userSpaceOnUse">
<stop stop-color="white"/>
<stop offset="1" stop-color="white" stop-opacity="0"/>
</linearGradient>
<radialGradient id="paint28_radial" cx="0" cy="0" r="1" gradientUnits="userSpaceOnUse" gradientTransform="translate(300.273 113.101) rotate(-109.752) scale(26.1695 12.5332)">
<stop stop-color="white"/>
<stop offset="1" stop-color="white" stop-opacity="0"/>
</radialGradient>
<radialGradient id="paint29_radial" cx="0" cy="0" r="1" gradientUnits="userSpaceOnUse" gradientTransform="translate(278.094 71.4039) rotate(54.8852) scale(54.4654 61.5577)">
<stop stop-color="#FFAB8B"/>
<stop offset="1" stop-color="white" stop-opacity="0"/>
</radialGradient>
<radialGradient id="paint30_radial" cx="0" cy="0" r="1" gradientUnits="userSpaceOnUse" gradientTransform="translate(354.401 90.4478) rotate(-152.487) scale(65.6346 71.8737)">
<stop stop-color="#FFDA92"/>
<stop offset="1" stop-color="white" stop-opacity="0"/>
</radialGradient>
</defs>
</svg>
