<svg width="734" height="560" viewBox="0 0 734 560" fill="none" xmlns="http://www.w3.org/2000/svg">
<g filter="url(#filter0_f)">
<path d="M115.782 233.549C94.3588 270.537 101.424 313.57 108.949 330.093C127.482 381.54 159.658 402.982 211.476 426.548C263.294 450.114 379.328 437.585 399.38 433.707C447.907 424.321 515.807 446.086 564.507 418.127C591.879 402.413 625.535 366.036 636.968 309.649C648.401 253.263 615.581 215.744 597.103 198.985C578.624 182.225 512.831 171.657 484.153 153.972C455.474 136.287 387.028 78.9689 314.967 73.1484C223.357 65.7489 168.559 135.925 152.709 163.379C143.24 179.78 137.01 196.9 115.782 233.549Z" fill="url(#paint0_linear)"/>
<path d="M115.782 233.549C94.3588 270.537 101.424 313.57 108.949 330.093C127.482 381.54 159.658 402.982 211.476 426.548C263.294 450.114 379.328 437.585 399.38 433.707C447.907 424.321 515.807 446.086 564.507 418.127C591.879 402.413 625.535 366.036 636.968 309.649C648.401 253.263 615.581 215.744 597.103 198.985C578.624 182.225 512.831 171.657 484.153 153.972C455.474 136.287 387.028 78.9689 314.967 73.1484C223.357 65.7489 168.559 135.925 152.709 163.379C143.24 179.78 137.01 196.9 115.782 233.549Z" fill="url(#paint1_linear)"/>
<path d="M115.782 233.549C94.3588 270.537 101.424 313.57 108.949 330.093C127.482 381.54 159.658 402.982 211.476 426.548C263.294 450.114 379.328 437.585 399.38 433.707C447.907 424.321 515.807 446.086 564.507 418.127C591.879 402.413 625.535 366.036 636.968 309.649C648.401 253.263 615.581 215.744 597.103 198.985C578.624 182.225 512.831 171.657 484.153 153.972C455.474 136.287 387.028 78.9689 314.967 73.1484C223.357 65.7489 168.559 135.925 152.709 163.379C143.24 179.78 137.01 196.9 115.782 233.549Z" fill="url(#paint2_linear)"/>
<path d="M115.782 233.549C94.3588 270.537 101.424 313.57 108.949 330.093C127.482 381.54 159.658 402.982 211.476 426.548C263.294 450.114 379.328 437.585 399.38 433.707C447.907 424.321 515.807 446.086 564.507 418.127C591.879 402.413 625.535 366.036 636.968 309.649C648.401 253.263 615.581 215.744 597.103 198.985C578.624 182.225 512.831 171.657 484.153 153.972C455.474 136.287 387.028 78.9689 314.967 73.1484C223.357 65.7489 168.559 135.925 152.709 163.379C143.24 179.78 137.01 196.9 115.782 233.549Z" fill="url(#paint3_radial)"/>
<path d="M115.782 233.549C94.3588 270.537 101.424 313.57 108.949 330.093C127.482 381.54 159.658 402.982 211.476 426.548C263.294 450.114 379.328 437.585 399.38 433.707C447.907 424.321 515.807 446.086 564.507 418.127C591.879 402.413 625.535 366.036 636.968 309.649C648.401 253.263 615.581 215.744 597.103 198.985C578.624 182.225 512.831 171.657 484.153 153.972C455.474 136.287 387.028 78.9689 314.967 73.1484C223.357 65.7489 168.559 135.925 152.709 163.379C143.24 179.78 137.01 196.9 115.782 233.549Z" fill="url(#paint4_radial)"/>
<path d="M115.782 233.549C94.3588 270.537 101.424 313.57 108.949 330.093C127.482 381.54 159.658 402.982 211.476 426.548C263.294 450.114 379.328 437.585 399.38 433.707C447.907 424.321 515.807 446.086 564.507 418.127C591.879 402.413 625.535 366.036 636.968 309.649C648.401 253.263 615.581 215.744 597.103 198.985C578.624 182.225 512.831 171.657 484.153 153.972C455.474 136.287 387.028 78.9689 314.967 73.1484C223.357 65.7489 168.559 135.925 152.709 163.379C143.24 179.78 137.01 196.9 115.782 233.549Z" fill="url(#paint5_radial)"/>
</g>
<path d="M221.755 180.603C184.853 170.543 153.42 184.287 130.983 205.759C112.395 223.548 81.6869 274.366 107.553 335.331C139.886 411.538 238.253 453.456 365.578 434.507C493.601 415.455 554.427 457.437 608.691 380.207C690.44 263.862 587.583 188.586 567.332 186.564C547.08 184.541 479.858 206.095 419.012 218.252C363.493 229.345 249.8 188.248 221.755 180.603Z" stroke="url(#paint6_radial)" stroke-width="1.66979"/>
<path opacity="0.4" d="M221.755 180.603C184.853 170.543 153.42 184.287 130.983 205.759C112.395 223.548 81.6869 274.366 107.553 335.331C139.886 411.538 243.901 449.956 370.242 425.284C491.289 401.645 537.566 442.657 591.831 365.426C673.579 249.081 584.695 200.276 564.443 198.253C544.192 196.231 479.858 206.095 419.012 218.252C363.493 229.345 249.8 188.248 221.755 180.603Z" stroke="#FFAB8B" stroke-opacity="0.5" stroke-width="0.834895"/>
<g opacity="0.3" filter="url(#filter1_f)">
<path d="M221.755 180.603C184.853 170.543 153.42 184.287 130.983 205.759C112.395 223.548 81.6869 274.366 107.553 335.331C139.886 411.538 243.901 449.956 370.242 425.284C491.289 401.645 537.566 442.657 591.831 365.426C673.579 249.081 584.695 200.276 564.443 198.253C544.192 196.231 479.858 206.095 419.012 218.252C363.493 229.345 249.8 188.248 221.755 180.603Z" stroke="#FFDA69" stroke-width="8.34895"/>
</g>
<g opacity="0.35" filter="url(#filter2_f)">
<path d="M207.956 183.254C174.813 175.334 146.157 187.715 125.48 206.55C108.35 222.154 85.7157 262.985 107.919 314.756C135.674 379.47 217.12 381.083 331.716 357.524C441.511 334.952 482.034 362.238 526.128 309.753C587.464 236.744 535.432 193.201 517.177 191.853C498.921 190.506 440.619 200.188 385.425 211.77C335.062 222.338 233.144 189.274 207.956 183.254Z" stroke="url(#paint7_linear)" stroke-width="0.834895"/>
</g>
<g opacity="0.6" filter="url(#filter3_bf)">
<path d="M266.682 77.4521C178.465 93.5611 127.643 185.813 111.853 233.949C128.641 201.722 155.242 172.975 209.705 179.176C250.884 183.865 330.563 221.525 382.234 220.852C442.297 220.07 533.9 191.064 548.747 187.935C560.623 185.431 572.831 188.281 577.451 190.018C563.619 184.056 530.075 170.346 506.558 163.199C463.21 150.026 384.085 56.0137 266.682 77.4521Z" fill="url(#paint8_radial)" fill-opacity="0.8"/>
<path d="M266.682 77.4521C178.465 93.5611 127.643 185.813 111.853 233.949C128.641 201.722 155.242 172.975 209.705 179.176C250.884 183.865 330.563 221.525 382.234 220.852C442.297 220.07 533.9 191.064 548.747 187.935C560.623 185.431 572.831 188.281 577.451 190.018C563.619 184.056 530.075 170.346 506.558 163.199C463.21 150.026 384.085 56.0137 266.682 77.4521Z" fill="url(#paint9_radial)" fill-opacity="0.8"/>
<path d="M266.682 77.4521C178.465 93.5611 127.643 185.813 111.853 233.949C128.641 201.722 155.242 172.975 209.705 179.176C250.884 183.865 330.563 221.525 382.234 220.852C442.297 220.07 533.9 191.064 548.747 187.935C560.623 185.431 572.831 188.281 577.451 190.018C563.619 184.056 530.075 170.346 506.558 163.199C463.21 150.026 384.085 56.0137 266.682 77.4521Z" fill="#FFDA92" fill-opacity="0.1"/>
<path d="M266.682 77.4521C178.465 93.5611 127.643 185.813 111.853 233.949C128.641 201.722 155.242 172.975 209.705 179.176C250.884 183.865 330.563 221.525 382.234 220.852C442.297 220.07 533.9 191.064 548.747 187.935C560.623 185.431 572.831 188.281 577.451 190.018C563.619 184.056 530.075 170.346 506.558 163.199C463.21 150.026 384.085 56.0137 266.682 77.4521Z" stroke="url(#paint10_linear)" stroke-opacity="0.8" stroke-width="1.66979"/>
</g>
<g filter="url(#filter4_d)">
<path d="M111.852 233.951C127.641 185.815 203.571 154.764 287.407 170.709C342.071 181.106 384.846 217.024 487.868 198.774C512.07 194.487 563.617 184.058 577.449 190.02C572.83 188.283 560.622 185.433 548.745 187.937C533.899 191.066 442.295 220.072 382.232 220.854C330.561 221.527 250.882 183.867 209.703 179.178C155.24 172.976 128.64 201.724 111.852 233.951Z" stroke="url(#paint11_radial)" stroke-opacity="0.5" stroke-width="0.834895"/>
</g>
<g filter="url(#filter5_f)">
<path d="M631.189 250.516L631.036 250.128L630.26 250.435L630.413 250.823L631.189 250.516ZM630.413 250.823C635.395 263.423 639.754 277.25 639.462 294.77C639.169 312.292 634.223 333.543 620.537 360.98L621.284 361.353C635.012 333.833 640.002 312.459 640.297 294.784C640.592 277.106 636.189 263.162 631.189 250.516L630.413 250.823Z" fill="url(#paint12_radial)"/>
</g>
<g filter="url(#filter6_f)">
<path d="M631.189 250.516L631.036 250.128L630.26 250.435L630.413 250.823L631.189 250.516ZM630.413 250.823C635.395 263.423 639.754 277.25 639.462 294.77C639.169 312.292 634.223 333.543 620.537 360.98L621.284 361.353C635.012 333.833 640.002 312.459 640.297 294.784C640.592 277.106 636.189 263.162 631.189 250.516L630.413 250.823Z" fill="url(#paint13_radial)"/>
</g>
<g filter="url(#filter7_f)">
<path d="M216.313 151.945C227.032 149.267 251.667 143.913 264.449 143.923" stroke="url(#paint14_radial)" stroke-opacity="0.5" stroke-width="0.834895"/>
</g>
<g filter="url(#filter8_f)">
<path d="M377.611 132.891C401.455 137.493 423.059 160.268 435.841 160.278" stroke="url(#paint15_radial)" stroke-width="0.834895"/>
</g>
<g filter="url(#filter9_f)">
<path d="M131.792 189.531C145.461 169.46 174.93 158.642 180.001 146.909" stroke="url(#paint16_radial)" stroke-width="1.66979"/>
</g>
<g opacity="0.3" filter="url(#filter10_f)">
<path d="M370.979 109.546C367.521 101.917 352.242 86.2715 345.034 79.4021C371.131 82.8687 429.661 117.248 444.463 128.776C459.265 140.305 565.746 180.927 500.88 201.631C436.014 222.336 376.108 218.625 330.436 213.78C327.555 203.814 328.084 189.188 318.127 179.611C339.432 187.023 323.908 178.416 350.556 188.34C348.491 172.755 327.207 152.676 323.116 145.424C324.399 145.701 332.04 147.533 352.34 152.645C348.503 138.053 336.282 123.672 330.651 118.305C332.835 119.441 347.51 121.994 365.327 127.112C360.499 119.622 345.967 105.393 339.304 99.2147C342.844 100.01 354.136 103.19 370.979 109.546Z" fill="url(#paint17_linear)"/>
<path d="M370.979 109.546C367.521 101.917 352.242 86.2715 345.034 79.4021C371.131 82.8687 429.661 117.248 444.463 128.776C459.265 140.305 565.746 180.927 500.88 201.631C436.014 222.336 376.108 218.625 330.436 213.78C327.555 203.814 328.084 189.188 318.127 179.611C339.432 187.023 323.908 178.416 350.556 188.34C348.491 172.755 327.207 152.676 323.116 145.424C324.399 145.701 332.04 147.533 352.34 152.645C348.503 138.053 336.282 123.672 330.651 118.305C332.835 119.441 347.51 121.994 365.327 127.112C360.499 119.622 345.967 105.393 339.304 99.2147C342.844 100.01 354.136 103.19 370.979 109.546Z" fill="url(#paint18_linear)"/>
</g>
<g opacity="0.9" filter="url(#filter11_f)">
<path d="M273.875 80.9428C228.968 89.3103 172.628 111.937 126.58 205.804C199.489 149.425 208.106 189.522 259.431 175.571C203.491 133.603 330.007 70.4834 273.875 80.9428Z" fill="url(#paint19_linear)"/>
</g>
<defs>
<filter id="filter0_f" x="37.3273" y="-29.6849" width="650.051" height="592.712" filterUnits="userSpaceOnUse" color-interpolation-filters="sRGB">
<feFlood flood-opacity="0" result="BackgroundImageFix"/>
<feBlend mode="normal" in="SourceGraphic" in2="BackgroundImageFix" result="shape"/>
<feGaussianBlur stdDeviation="4.17447" result="effect1_foregroundBlur"/>
</filter>
<filter id="filter1_f" x="35.1328" y="15.2032" width="657.904" height="553.728" filterUnits="userSpaceOnUse" color-interpolation-filters="sRGB">
<feFlood flood-opacity="0" result="BackgroundImageFix"/>
<feBlend mode="normal" in="SourceGraphic" in2="BackgroundImageFix" result="shape"/>
<feGaussianBlur stdDeviation="12.5234" result="effect1_foregroundBlur"/>
</filter>
<filter id="filter2_f" x="69.4543" y="62.0813" width="514.185" height="397.599" filterUnits="userSpaceOnUse" color-interpolation-filters="sRGB">
<feFlood flood-opacity="0" result="BackgroundImageFix"/>
<feBlend mode="normal" in="SourceGraphic" in2="BackgroundImageFix" result="shape"/>
<feGaussianBlur stdDeviation="1.25234" result="effect1_foregroundBlur"/>
</filter>
<filter id="filter3_bf" x="73.142" y="-16.5953" width="510.07" height="365.949" filterUnits="userSpaceOnUse" color-interpolation-filters="sRGB">
<feFlood flood-opacity="0" result="BackgroundImageFix"/>
<feGaussianBlur in="BackgroundImage" stdDeviation="2.50468"/>
<feComposite in2="SourceAlpha" operator="in" result="effect1_backgroundBlur"/>
<feBlend mode="normal" in="SourceGraphic" in2="effect1_backgroundBlur" result="shape"/>
<feGaussianBlur stdDeviation="1.66979" result="effect2_foregroundBlur"/>
</filter>
<filter id="filter4_d" x="97.4629" y="50.5391" width="483.702" height="300.079" filterUnits="userSpaceOnUse" color-interpolation-filters="sRGB">
<feFlood flood-opacity="0" result="BackgroundImageFix"/>
<feColorMatrix in="SourceAlpha" type="matrix" values="0 0 0 0 0 0 0 0 0 0 0 0 0 0 0 0 0 0 127 0"/>
<feOffset dy="3.33958"/>
<feGaussianBlur stdDeviation="1.66979"/>
<feColorMatrix type="matrix" values="0 0 0 0 0 0 0 0 0 0.878431 0 0 0 0 0.792157 0 0 0 0.2 0"/>
<feBlend mode="normal" in2="BackgroundImageFix" result="effect1_dropShadow"/>
<feBlend mode="normal" in="SourceGraphic" in2="effect1_dropShadow" result="shape"/>
</filter>
<filter id="filter5_f" x="584.727" y="248.416" width="82.4337" height="114.799" filterUnits="userSpaceOnUse" color-interpolation-filters="sRGB">
<feFlood flood-opacity="0" result="BackgroundImageFix"/>
<feBlend mode="normal" in="SourceGraphic" in2="BackgroundImageFix" result="shape"/>
<feGaussianBlur stdDeviation="0.834895" result="effect1_foregroundBlur"/>
</filter>
<filter id="filter6_f" x="584.727" y="248.416" width="82.4337" height="114.799" filterUnits="userSpaceOnUse" color-interpolation-filters="sRGB">
<feFlood flood-opacity="0" result="BackgroundImageFix"/>
<feBlend mode="normal" in="SourceGraphic" in2="BackgroundImageFix" result="shape"/>
<feGaussianBlur stdDeviation="0.834895" result="effect1_foregroundBlur"/>
</filter>
<filter id="filter7_f" x="214.463" y="133.565" width="51.9227" height="28.6798" filterUnits="userSpaceOnUse" color-interpolation-filters="sRGB">
<feFlood flood-opacity="0" result="BackgroundImageFix"/>
<feBlend mode="normal" in="SourceGraphic" in2="BackgroundImageFix" result="shape"/>
<feGaussianBlur stdDeviation="0.834895" result="effect1_foregroundBlur"/>
</filter>
<filter id="filter8_f" x="375.619" y="115.416" width="62.1584" height="62.3969" filterUnits="userSpaceOnUse" color-interpolation-filters="sRGB">
<feFlood flood-opacity="0" result="BackgroundImageFix"/>
<feBlend mode="normal" in="SourceGraphic" in2="BackgroundImageFix" result="shape"/>
<feGaussianBlur stdDeviation="0.834895" result="effect1_foregroundBlur"/>
</filter>
<filter id="filter9_f" x="129.38" y="142.119" width="53.0925" height="52.3501" filterUnits="userSpaceOnUse" color-interpolation-filters="sRGB">
<feFlood flood-opacity="0" result="BackgroundImageFix"/>
<feBlend mode="normal" in="SourceGraphic" in2="BackgroundImageFix" result="shape"/>
<feGaussianBlur stdDeviation="0.834895" result="effect1_foregroundBlur"/>
</filter>
<filter id="filter10_f" x="279.246" y="24.95" width="256.038" height="242.498" filterUnits="userSpaceOnUse" color-interpolation-filters="sRGB">
<feFlood flood-opacity="0" result="BackgroundImageFix"/>
<feBlend mode="normal" in="SourceGraphic" in2="BackgroundImageFix" result="shape"/>
<feGaussianBlur stdDeviation="5.00937" result="effect1_foregroundBlur"/>
</filter>
<filter id="filter11_f" x="101.062" y="72.0411" width="215.723" height="151.035" filterUnits="userSpaceOnUse" color-interpolation-filters="sRGB">
<feFlood flood-opacity="0" result="BackgroundImageFix"/>
<feBlend mode="normal" in="SourceGraphic" in2="BackgroundImageFix" result="shape"/>
<feGaussianBlur stdDeviation="0.834895" result="effect1_foregroundBlur"/>
</filter>
<linearGradient id="paint0_linear" x1="521.418" y1="103.771" x2="479.489" y2="280.914" gradientUnits="userSpaceOnUse">
<stop stop-color="white"/>
<stop offset="1" stop-color="white" stop-opacity="0"/>
</linearGradient>
<linearGradient id="paint1_linear" x1="415.227" y1="503.203" x2="440.275" y2="325.177" gradientUnits="userSpaceOnUse">
<stop stop-color="white"/>
<stop offset="1" stop-color="white" stop-opacity="0"/>
</linearGradient>
<linearGradient id="paint2_linear" x1="642.844" y1="366.991" x2="560.769" y2="318.731" gradientUnits="userSpaceOnUse">
<stop stop-color="white"/>
<stop offset="1" stop-color="white" stop-opacity="0"/>
</linearGradient>
<radialGradient id="paint3_radial" cx="0" cy="0" r="1" gradientUnits="userSpaceOnUse" gradientTransform="translate(444.377 290.985) rotate(108.669) scale(148.524 73.516)">
<stop stop-color="white"/>
<stop offset="1" stop-color="white" stop-opacity="0"/>
</radialGradient>
<radialGradient id="paint4_radial" cx="0" cy="0" r="1" gradientUnits="userSpaceOnUse" gradientTransform="translate(399.412 474.24) rotate(-84.9593) scale(131.114 160.511)">
<stop stop-color="#FFAB8B"/>
<stop offset="1" stop-color="white" stop-opacity="0"/>
</radialGradient>
<radialGradient id="paint5_radial" cx="0" cy="0" r="1" gradientUnits="userSpaceOnUse" gradientTransform="translate(101.013 233.424) rotate(60.3625) scale(183.446 224.577)">
<stop stop-color="#FFDA92"/>
<stop offset="1" stop-color="white" stop-opacity="0"/>
</radialGradient>
<radialGradient id="paint6_radial" cx="0" cy="0" r="1" gradientUnits="userSpaceOnUse" gradientTransform="translate(371.477 299.043) rotate(-152.221) scale(308.414 450.003)">
<stop stop-color="#FFDA92"/>
<stop offset="1" stop-color="#FFDA92" stop-opacity="0"/>
</radialGradient>
<linearGradient id="paint7_linear" x1="349.438" y1="387.334" x2="538.206" y2="304.303" gradientUnits="userSpaceOnUse">
<stop stop-color="#FFDA92" stop-opacity="0"/>
<stop offset="0.588542" stop-color="#FFD691"/>
<stop offset="1" stop-color="#FFAB8B"/>
</linearGradient>
<radialGradient id="paint8_radial" cx="0" cy="0" r="1" gradientUnits="userSpaceOnUse" gradientTransform="translate(119.008 190.994) rotate(-23.1841) scale(205.741 436.99)">
<stop stop-color="#FFDA92"/>
<stop offset="1" stop-color="#FFDA92" stop-opacity="0"/>
</radialGradient>
<radialGradient id="paint9_radial" cx="0" cy="0" r="1" gradientUnits="userSpaceOnUse" gradientTransform="translate(468.206 155.273) rotate(173.558) scale(139.02 295.276)">
<stop stop-color="#FFDA92"/>
<stop offset="1" stop-color="white" stop-opacity="0"/>
</radialGradient>
<linearGradient id="paint10_linear" x1="292.116" y1="66.1458" x2="364.388" y2="266.771" gradientUnits="userSpaceOnUse">
<stop stop-color="#FFAB8B"/>
<stop offset="0.59375" stop-color="#FFDA92" stop-opacity="0.942708"/>
<stop offset="1" stop-color="#FFDA92" stop-opacity="0"/>
</linearGradient>
<radialGradient id="paint11_radial" cx="0" cy="0" r="1" gradientUnits="userSpaceOnUse" gradientTransform="translate(265.65 182.984) rotate(160.681) scale(97.2689 298.204)">
<stop stop-color="#FFAB8B"/>
<stop offset="1" stop-color="#FFDA92" stop-opacity="0"/>
</radialGradient>
<radialGradient id="paint12_radial" cx="0" cy="0" r="1" gradientUnits="userSpaceOnUse" gradientTransform="translate(640.192 306.3) rotate(84.7904) scale(51.3342 23.9099)">
<stop stop-color="#FFDA92"/>
<stop offset="1" stop-color="#FFDA92" stop-opacity="0"/>
</radialGradient>
<radialGradient id="paint13_radial" cx="0" cy="0" r="1" gradientUnits="userSpaceOnUse" gradientTransform="translate(640.192 306.3) rotate(84.7904) scale(51.3342 23.9099)">
<stop stop-color="#FFDA92"/>
<stop offset="1" stop-color="#FFDA92" stop-opacity="0"/>
</radialGradient>
<radialGradient id="paint14_radial" cx="0" cy="0" r="1" gradientUnits="userSpaceOnUse" gradientTransform="translate(240.381 147.934) rotate(71.408) scale(9.81224 53.7337)">
<stop stop-color="#FFAB8B"/>
<stop offset="1" stop-color="#FFDA92" stop-opacity="0.35"/>
</radialGradient>
<radialGradient id="paint15_radial" cx="0" cy="0" r="1" gradientUnits="userSpaceOnUse" gradientTransform="translate(406.604 128.999) rotate(71.408) scale(9.81224 53.7337)">
<stop stop-color="#FFDA92"/>
<stop offset="1" stop-color="#FFDA92" stop-opacity="0"/>
</radialGradient>
<radialGradient id="paint16_radial" cx="0" cy="0" r="1" gradientUnits="userSpaceOnUse" gradientTransform="translate(139.701 161.369) rotate(4.73851) scale(9.81224 53.7337)">
<stop stop-color="#FFDA92"/>
<stop offset="1" stop-color="#FFDA92" stop-opacity="0"/>
</radialGradient>
<linearGradient id="paint17_linear" x1="214.872" y1="86.3577" x2="394.287" y2="150.845" gradientUnits="userSpaceOnUse">
<stop stop-color="#FFAB8B"/>
<stop offset="1" stop-color="#FFAB8B" stop-opacity="0"/>
</linearGradient>
<linearGradient id="paint18_linear" x1="437.966" y1="166.169" x2="311.821" y2="153.486" gradientUnits="userSpaceOnUse">
<stop stop-color="#FFAB8B" stop-opacity="0.1"/>
<stop offset="0.473543" stop-color="#FFAB8B" stop-opacity="0.38"/>
<stop offset="0.671875" stop-color="#FFAB8B" stop-opacity="0"/>
</linearGradient>
<linearGradient id="paint19_linear" x1="178.959" y1="97.5256" x2="254.547" y2="116.441" gradientUnits="userSpaceOnUse">
<stop stop-color="#FFAB8B"/>
<stop offset="1" stop-color="#FFAB8B" stop-opacity="0"/>
</linearGradient>
</defs>
</svg>
