<svg width="588" height="398" viewBox="0 0 588 398" fill="none" xmlns="http://www.w3.org/2000/svg">
<g filter="url(#filter0_f)">
<path d="M47.782 169.549C26.3588 206.537 33.424 249.57 40.949 266.093C59.482 317.54 91.658 338.982 143.476 362.548C195.294 386.114 311.328 373.585 331.38 369.707C379.907 360.321 447.807 382.086 496.507 354.127C523.879 338.413 557.535 302.036 568.968 245.649C580.401 189.263 547.581 151.744 529.103 134.985C510.624 118.225 444.831 107.657 416.153 89.9723C387.474 72.2873 319.028 14.9691 246.967 9.14865C155.357 1.74915 100.559 71.9252 84.709 99.3792C75.24 115.78 69.01 132.9 47.782 169.549Z" fill="url(#paint0_linear)"/>
<path d="M47.782 169.549C26.3588 206.537 33.424 249.57 40.949 266.093C59.482 317.54 91.658 338.982 143.476 362.548C195.294 386.114 311.328 373.585 331.38 369.707C379.907 360.321 447.807 382.086 496.507 354.127C523.879 338.413 557.535 302.036 568.968 245.649C580.401 189.263 547.581 151.744 529.103 134.985C510.624 118.225 444.831 107.657 416.153 89.9723C387.474 72.2873 319.028 14.9691 246.967 9.14865C155.357 1.74915 100.559 71.9252 84.709 99.3792C75.24 115.78 69.01 132.9 47.782 169.549Z" fill="url(#paint1_linear)"/>
<path d="M47.782 169.549C26.3588 206.537 33.424 249.57 40.949 266.093C59.482 317.54 91.658 338.982 143.476 362.548C195.294 386.114 311.328 373.585 331.38 369.707C379.907 360.321 447.807 382.086 496.507 354.127C523.879 338.413 557.535 302.036 568.968 245.649C580.401 189.263 547.581 151.744 529.103 134.985C510.624 118.225 444.831 107.657 416.153 89.9723C387.474 72.2873 319.028 14.9691 246.967 9.14865C155.357 1.74915 100.559 71.9252 84.709 99.3792C75.24 115.78 69.01 132.9 47.782 169.549Z" fill="url(#paint2_linear)"/>
<path d="M47.782 169.549C26.3588 206.537 33.424 249.57 40.949 266.093C59.482 317.54 91.658 338.982 143.476 362.548C195.294 386.114 311.328 373.585 331.38 369.707C379.907 360.321 447.807 382.086 496.507 354.127C523.879 338.413 557.535 302.036 568.968 245.649C580.401 189.263 547.581 151.744 529.103 134.985C510.624 118.225 444.831 107.657 416.153 89.9723C387.474 72.2873 319.028 14.9691 246.967 9.14865C155.357 1.74915 100.559 71.9252 84.709 99.3792C75.24 115.78 69.01 132.9 47.782 169.549Z" fill="url(#paint3_radial)"/>
<path d="M47.782 169.549C26.3588 206.537 33.424 249.57 40.949 266.093C59.482 317.54 91.658 338.982 143.476 362.548C195.294 386.114 311.328 373.585 331.38 369.707C379.907 360.321 447.807 382.086 496.507 354.127C523.879 338.413 557.535 302.036 568.968 245.649C580.401 189.263 547.581 151.744 529.103 134.985C510.624 118.225 444.831 107.657 416.153 89.9723C387.474 72.2873 319.028 14.9691 246.967 9.14865C155.357 1.74915 100.559 71.9252 84.709 99.3792C75.24 115.78 69.01 132.9 47.782 169.549Z" fill="url(#paint4_radial)"/>
<path d="M47.782 169.549C26.3588 206.537 33.424 249.57 40.949 266.093C59.482 317.54 91.658 338.982 143.476 362.548C195.294 386.114 311.328 373.585 331.38 369.707C379.907 360.321 447.807 382.086 496.507 354.127C523.879 338.413 557.535 302.036 568.968 245.649C580.401 189.263 547.581 151.744 529.103 134.985C510.624 118.225 444.831 107.657 416.153 89.9723C387.474 72.2873 319.028 14.9691 246.967 9.14865C155.357 1.74915 100.559 71.9252 84.709 99.3792C75.24 115.78 69.01 132.9 47.782 169.549Z" fill="url(#paint5_radial)"/>
</g>
<path d="M153.754 116.603C116.852 106.543 85.4191 120.287 62.9821 141.759C44.3941 159.548 13.686 210.366 39.5521 271.331C71.8851 347.538 170.252 389.455 297.577 370.507C425.6 351.455 486.426 393.437 540.69 316.207C622.439 199.862 519.582 124.586 499.331 122.564C479.079 120.541 411.857 142.095 351.011 154.252C295.492 165.345 181.799 124.248 153.754 116.603Z" stroke="url(#paint6_radial)" stroke-width="1.66979"/>
<path opacity="0.4" d="M153.754 116.603C116.852 106.543 85.4191 120.287 62.9821 141.759C44.3941 159.548 13.686 210.366 39.5521 271.331C71.8851 347.538 175.9 385.956 302.241 361.284C423.288 337.645 469.565 378.657 523.83 301.426C605.578 185.081 516.694 136.276 496.442 134.253C476.191 132.231 411.857 142.095 351.011 154.252C295.492 165.345 181.799 124.248 153.754 116.603Z" stroke="#FFAB8B" stroke-opacity="0.5" stroke-width="0.834895"/>
<g opacity="0.3" filter="url(#filter1_f)">
<path opacity="0.3" d="M153.754 116.603C116.852 106.543 85.4191 120.287 62.9821 141.759C44.3941 159.548 13.686 210.366 39.5521 271.331C71.8851 347.538 175.9 385.956 302.241 361.284C423.288 337.645 469.565 378.657 523.83 301.426C605.578 185.081 516.694 136.276 496.442 134.253C476.191 132.231 411.857 142.095 351.011 154.252C295.492 165.345 181.799 124.248 153.754 116.603Z" stroke="#FFDA69" stroke-width="8.34895"/>
</g>
<g opacity="0.35" filter="url(#filter2_f)">
<path opacity="0.35" d="M139.955 119.254C106.812 111.334 78.1564 123.715 57.4794 142.55C40.3494 158.154 17.7151 198.985 39.9184 250.756C67.6734 315.47 149.119 317.083 263.715 293.524C373.51 270.952 414.033 298.238 458.127 245.753C519.463 172.744 467.431 129.201 449.176 127.853C430.92 126.506 372.618 136.188 317.424 147.77C267.061 158.338 165.143 125.274 139.955 119.254Z" stroke="url(#paint7_linear)" stroke-width="0.834895"/>
</g>
<g opacity="0.6" filter="url(#filter3_f)">
<path opacity="0.6" d="M198.683 13.4522C110.466 29.5612 59.6435 121.813 43.8535 169.949C60.6415 137.722 87.2425 108.975 141.706 115.176C182.885 119.865 262.564 157.525 314.235 156.852C374.298 156.07 465.901 127.064 480.748 123.935C492.624 121.431 504.832 124.281 509.452 126.018C495.62 120.056 462.076 106.346 438.559 99.1991C395.211 86.0261 316.086 -7.98624 198.683 13.4522Z" fill="url(#paint8_radial)" fill-opacity="0.8"/>
<path opacity="0.6" d="M198.683 13.4522C110.466 29.5612 59.6435 121.813 43.8535 169.949C60.6415 137.722 87.2425 108.975 141.706 115.176C182.885 119.865 262.564 157.525 314.235 156.852C374.298 156.07 465.901 127.064 480.748 123.935C492.624 121.431 504.832 124.281 509.452 126.018C495.62 120.056 462.076 106.346 438.559 99.1991C395.211 86.0261 316.086 -7.98624 198.683 13.4522Z" fill="url(#paint9_radial)" fill-opacity="0.8"/>
<path opacity="0.6" d="M198.683 13.4522C110.466 29.5612 59.6435 121.813 43.8535 169.949C60.6415 137.722 87.2425 108.975 141.706 115.176C182.885 119.865 262.564 157.525 314.235 156.852C374.298 156.07 465.901 127.064 480.748 123.935C492.624 121.431 504.832 124.281 509.452 126.018C495.62 120.056 462.076 106.346 438.559 99.1991C395.211 86.0261 316.086 -7.98624 198.683 13.4522Z" fill="#FFDA92" fill-opacity="0.1"/>
<path opacity="0.6" d="M198.683 13.4522C110.466 29.5612 59.6435 121.813 43.8535 169.949C60.6415 137.722 87.2425 108.975 141.706 115.176C182.885 119.865 262.564 157.525 314.235 156.852C374.298 156.07 465.901 127.064 480.748 123.935C492.624 121.431 504.832 124.281 509.452 126.018C495.62 120.056 462.076 106.346 438.559 99.1991C395.211 86.0261 316.086 -7.98624 198.683 13.4522Z" stroke="url(#paint10_linear)" stroke-opacity="0.8" stroke-width="1.66979"/>
</g>
<g filter="url(#filter4_d)">
<path d="M43.8516 169.951C59.6406 121.815 135.571 90.7639 219.407 106.709C274.071 117.106 316.846 153.024 419.868 134.774C444.07 130.487 495.617 120.058 509.449 126.02C504.83 124.283 492.622 121.433 480.745 123.937C465.899 127.066 374.295 156.072 314.232 156.854C262.561 157.527 182.882 119.867 141.703 115.178C87.2396 108.976 60.6396 137.724 43.8516 169.951Z" stroke="url(#paint11_radial)" stroke-opacity="0.5" stroke-width="0.834895"/>
</g>
<g filter="url(#filter5_f)">
<path d="M563.189 186.516L563.036 186.128L562.26 186.435L562.413 186.823L563.189 186.516ZM562.413 186.823C567.395 199.423 571.754 213.25 571.462 230.77C571.169 248.292 566.223 269.543 552.537 296.98L553.284 297.353C567.012 269.833 572.002 248.459 572.297 230.784C572.592 213.106 568.189 199.162 563.189 186.516L562.413 186.823Z" fill="url(#paint12_radial)"/>
</g>
<g filter="url(#filter6_f)">
<path d="M563.189 186.516L563.036 186.128L562.26 186.435L562.413 186.823L563.189 186.516ZM562.413 186.823C567.395 199.423 571.754 213.25 571.462 230.77C571.169 248.292 566.223 269.543 552.537 296.98L553.284 297.353C567.012 269.833 572.002 248.459 572.297 230.784C572.592 213.106 568.189 199.162 563.189 186.516L562.413 186.823Z" fill="url(#paint13_radial)"/>
</g>
<g filter="url(#filter7_f)">
<path d="M148.312 87.9449C159.031 85.2669 183.667 79.9129 196.449 79.9229" stroke="url(#paint14_radial)" stroke-opacity="0.5" stroke-width="0.834895"/>
</g>
<g filter="url(#filter8_f)">
<path d="M309.611 68.8906C333.455 73.4926 355.059 96.2676 367.841 96.2776" stroke="url(#paint15_radial)" stroke-width="0.834895"/>
</g>
<g filter="url(#filter9_f)">
<path d="M63.793 125.531C77.462 105.46 106.931 94.6422 112.002 82.9092" stroke="url(#paint16_radial)" stroke-width="1.66979"/>
</g>
<g opacity="0.3" filter="url(#filter10_f)">
<path opacity="0.3" d="M302.979 45.5462C299.521 37.9172 284.242 22.2717 277.034 15.4023C303.131 18.8689 361.661 53.2482 376.463 64.7762C391.265 76.3052 497.746 116.927 432.88 137.631C368.014 158.336 308.108 154.625 262.436 149.78C259.555 139.814 260.084 125.188 250.127 115.611C271.432 123.023 255.908 114.416 282.556 124.34C280.491 108.755 259.207 88.6762 255.116 81.4242C256.399 81.7012 264.04 83.5332 284.34 88.6452C280.503 74.0532 268.282 59.6722 262.651 54.3052C264.835 55.4412 279.51 57.9942 297.327 63.1122C292.499 55.6222 277.967 41.3932 271.304 35.2149C274.844 36.0102 286.136 39.1902 302.979 45.5462Z" fill="url(#paint17_linear)"/>
<path opacity="0.3" d="M302.979 45.5462C299.521 37.9172 284.242 22.2717 277.034 15.4023C303.131 18.8689 361.661 53.2482 376.463 64.7762C391.265 76.3052 497.746 116.927 432.88 137.631C368.014 158.336 308.108 154.625 262.436 149.78C259.555 139.814 260.084 125.188 250.127 115.611C271.432 123.023 255.908 114.416 282.556 124.34C280.491 108.755 259.207 88.6762 255.116 81.4242C256.399 81.7012 264.04 83.5332 284.34 88.6452C280.503 74.0532 268.282 59.6722 262.651 54.3052C264.835 55.4412 279.51 57.9942 297.327 63.1122C292.499 55.6222 277.967 41.3932 271.304 35.2149C274.844 36.0102 286.136 39.1902 302.979 45.5462Z" fill="url(#paint18_linear)"/>
</g>
<g opacity="0.9" filter="url(#filter11_f)">
<path opacity="0.9" d="M205.875 16.9427C160.968 25.3102 104.628 47.9369 58.5801 141.804C131.489 85.4249 140.106 125.522 191.431 111.571C135.491 69.6029 262.007 6.48332 205.875 16.9427Z" fill="url(#paint19_linear)"/>
</g>
<defs>
<filter id="filter0_f" x="25.1608" y="0.256529" width="554.517" height="384.605" filterUnits="userSpaceOnUse" color-interpolation-filters="sRGB">
<feFlood flood-opacity="0" result="BackgroundImageFix"/>
<feBlend mode="normal" in="SourceGraphic" in2="BackgroundImageFix" result="shape"/>
<feGaussianBlur stdDeviation="4.17447" result="effect1_foregroundBlur"/>
</filter>
<filter id="filter1_f" x="0.386793" y="84.0186" width="586.637" height="313.909" filterUnits="userSpaceOnUse" color-interpolation-filters="sRGB">
<feFlood flood-opacity="0" result="BackgroundImageFix"/>
<feBlend mode="normal" in="SourceGraphic" in2="BackgroundImageFix" result="shape"/>
<feGaussianBlur stdDeviation="12.5234" result="effect1_foregroundBlur"/>
</filter>
<filter id="filter2_f" x="27.759" y="113.9" width="462.34" height="196.439" filterUnits="userSpaceOnUse" color-interpolation-filters="sRGB">
<feFlood flood-opacity="0" result="BackgroundImageFix"/>
<feBlend mode="normal" in="SourceGraphic" in2="BackgroundImageFix" result="shape"/>
<feGaussianBlur stdDeviation="1.25234" result="effect1_foregroundBlur"/>
</filter>
<filter id="filter3_f" x="39.721" y="6.11257" width="473.401" height="167.562" filterUnits="userSpaceOnUse" color-interpolation-filters="sRGB">
<feFlood flood-opacity="0" result="BackgroundImageFix"/>
<feBlend mode="normal" in="SourceGraphic" in2="BackgroundImageFix" result="shape"/>
<feGaussianBlur stdDeviation="1.66979" result="effect1_foregroundBlur"/>
</filter>
<filter id="filter4_d" x="40.1155" y="102.075" width="472.838" height="74.7482" filterUnits="userSpaceOnUse" color-interpolation-filters="sRGB">
<feFlood flood-opacity="0" result="BackgroundImageFix"/>
<feColorMatrix in="SourceAlpha" type="matrix" values="0 0 0 0 0 0 0 0 0 0 0 0 0 0 0 0 0 0 127 0"/>
<feOffset dy="3.33958"/>
<feGaussianBlur stdDeviation="1.66979"/>
<feColorMatrix type="matrix" values="0 0 0 0 0 0 0 0 0 0.878431 0 0 0 0 0.792157 0 0 0 0.2 0"/>
<feBlend mode="normal" in2="BackgroundImageFix" result="effect1_dropShadow"/>
<feBlend mode="normal" in="SourceGraphic" in2="effect1_dropShadow" result="shape"/>
</filter>
<filter id="filter5_f" x="550.867" y="184.458" width="23.1136" height="114.565" filterUnits="userSpaceOnUse" color-interpolation-filters="sRGB">
<feFlood flood-opacity="0" result="BackgroundImageFix"/>
<feBlend mode="normal" in="SourceGraphic" in2="BackgroundImageFix" result="shape"/>
<feGaussianBlur stdDeviation="0.834895" result="effect1_foregroundBlur"/>
</filter>
<filter id="filter6_f" x="550.867" y="184.458" width="23.1136" height="114.565" filterUnits="userSpaceOnUse" color-interpolation-filters="sRGB">
<feFlood flood-opacity="0" result="BackgroundImageFix"/>
<feBlend mode="normal" in="SourceGraphic" in2="BackgroundImageFix" result="shape"/>
<feGaussianBlur stdDeviation="0.834895" result="effect1_foregroundBlur"/>
</filter>
<filter id="filter7_f" x="146.541" y="77.8361" width="51.5771" height="12.184" filterUnits="userSpaceOnUse" color-interpolation-filters="sRGB">
<feFlood flood-opacity="0" result="BackgroundImageFix"/>
<feBlend mode="normal" in="SourceGraphic" in2="BackgroundImageFix" result="shape"/>
<feGaussianBlur stdDeviation="0.834895" result="effect1_foregroundBlur"/>
</filter>
<filter id="filter8_f" x="307.861" y="66.8107" width="61.649" height="31.5539" filterUnits="userSpaceOnUse" color-interpolation-filters="sRGB">
<feFlood flood-opacity="0" result="BackgroundImageFix"/>
<feBlend mode="normal" in="SourceGraphic" in2="BackgroundImageFix" result="shape"/>
<feGaussianBlur stdDeviation="0.834895" result="effect1_foregroundBlur"/>
</filter>
<filter id="filter9_f" x="61.4337" y="80.9083" width="53.005" height="46.7628" filterUnits="userSpaceOnUse" color-interpolation-filters="sRGB">
<feFlood flood-opacity="0" result="BackgroundImageFix"/>
<feBlend mode="normal" in="SourceGraphic" in2="BackgroundImageFix" result="shape"/>
<feGaussianBlur stdDeviation="0.834895" result="effect1_foregroundBlur"/>
</filter>
<filter id="filter10_f" x="240.108" y="5.3836" width="223.555" height="158.198" filterUnits="userSpaceOnUse" color-interpolation-filters="sRGB">
<feFlood flood-opacity="0" result="BackgroundImageFix"/>
<feBlend mode="normal" in="SourceGraphic" in2="BackgroundImageFix" result="shape"/>
<feGaussianBlur stdDeviation="5.00937" result="effect1_foregroundBlur"/>
</filter>
<filter id="filter11_f" x="56.9103" y="14.1212" width="165.353" height="129.352" filterUnits="userSpaceOnUse" color-interpolation-filters="sRGB">
<feFlood flood-opacity="0" result="BackgroundImageFix"/>
<feBlend mode="normal" in="SourceGraphic" in2="BackgroundImageFix" result="shape"/>
<feGaussianBlur stdDeviation="0.834895" result="effect1_foregroundBlur"/>
</filter>
<linearGradient id="paint0_linear" x1="453.418" y1="39.7712" x2="411.489" y2="216.914" gradientUnits="userSpaceOnUse">
<stop stop-color="white"/>
<stop offset="1" stop-color="white" stop-opacity="0"/>
</linearGradient>
<linearGradient id="paint1_linear" x1="347.227" y1="439.203" x2="372.275" y2="261.177" gradientUnits="userSpaceOnUse">
<stop stop-color="white"/>
<stop offset="1" stop-color="white" stop-opacity="0"/>
</linearGradient>
<linearGradient id="paint2_linear" x1="574.844" y1="302.991" x2="492.769" y2="254.731" gradientUnits="userSpaceOnUse">
<stop stop-color="white"/>
<stop offset="1" stop-color="white" stop-opacity="0"/>
</linearGradient>
<radialGradient id="paint3_radial" cx="0" cy="0" r="1" gradientUnits="userSpaceOnUse" gradientTransform="translate(376.377 226.985) rotate(108.669) scale(148.524 73.516)">
<stop stop-color="white"/>
<stop offset="1" stop-color="white" stop-opacity="0"/>
</radialGradient>
<radialGradient id="paint4_radial" cx="0" cy="0" r="1" gradientUnits="userSpaceOnUse" gradientTransform="translate(331.412 410.24) rotate(-84.9593) scale(131.114 160.511)">
<stop stop-color="#FFAB8B"/>
<stop offset="1" stop-color="white" stop-opacity="0"/>
</radialGradient>
<radialGradient id="paint5_radial" cx="0" cy="0" r="1" gradientUnits="userSpaceOnUse" gradientTransform="translate(33.013 169.424) rotate(60.3625) scale(183.446 224.577)">
<stop stop-color="#FFDA92"/>
<stop offset="1" stop-color="white" stop-opacity="0"/>
</radialGradient>
<radialGradient id="paint6_radial" cx="0" cy="0" r="1" gradientUnits="userSpaceOnUse" gradientTransform="translate(303.476 235.043) rotate(-152.221) scale(308.414 450.003)">
<stop stop-color="#FFDA92"/>
<stop offset="1" stop-color="#FFDA92" stop-opacity="0"/>
</radialGradient>
<linearGradient id="paint7_linear" x1="281.437" y1="323.334" x2="470.205" y2="240.303" gradientUnits="userSpaceOnUse">
<stop stop-color="#FFDA92" stop-opacity="0"/>
<stop offset="0.588542" stop-color="#FFD691"/>
<stop offset="1" stop-color="#FFAB8B"/>
</linearGradient>
<radialGradient id="paint8_radial" cx="0" cy="0" r="1" gradientUnits="userSpaceOnUse" gradientTransform="translate(51.0085 126.994) rotate(-23.1841) scale(205.741 436.99)">
<stop stop-color="#FFDA92"/>
<stop offset="1" stop-color="#FFDA92" stop-opacity="0"/>
</radialGradient>
<radialGradient id="paint9_radial" cx="0" cy="0" r="1" gradientUnits="userSpaceOnUse" gradientTransform="translate(400.207 91.2731) rotate(173.558) scale(139.02 295.276)">
<stop stop-color="#FFDA92"/>
<stop offset="1" stop-color="white" stop-opacity="0"/>
</radialGradient>
<linearGradient id="paint10_linear" x1="224.117" y1="2.14585" x2="296.389" y2="202.771" gradientUnits="userSpaceOnUse">
<stop stop-color="#FFAB8B"/>
<stop offset="0.59375" stop-color="#FFDA92" stop-opacity="0.942708"/>
<stop offset="1" stop-color="#FFDA92" stop-opacity="0"/>
</linearGradient>
<radialGradient id="paint11_radial" cx="0" cy="0" r="1" gradientUnits="userSpaceOnUse" gradientTransform="translate(197.65 118.984) rotate(160.681) scale(97.2689 298.204)">
<stop stop-color="#FFAB8B"/>
<stop offset="1" stop-color="#FFDA92" stop-opacity="0"/>
</radialGradient>
<radialGradient id="paint12_radial" cx="0" cy="0" r="1" gradientUnits="userSpaceOnUse" gradientTransform="translate(572.192 242.3) rotate(84.7904) scale(51.3342 23.9099)">
<stop stop-color="#FFDA92"/>
<stop offset="1" stop-color="#FFDA92" stop-opacity="0"/>
</radialGradient>
<radialGradient id="paint13_radial" cx="0" cy="0" r="1" gradientUnits="userSpaceOnUse" gradientTransform="translate(572.192 242.3) rotate(84.7904) scale(51.3342 23.9099)">
<stop stop-color="#FFDA92"/>
<stop offset="1" stop-color="#FFDA92" stop-opacity="0"/>
</radialGradient>
<radialGradient id="paint14_radial" cx="0" cy="0" r="1" gradientUnits="userSpaceOnUse" gradientTransform="translate(172.381 83.9339) rotate(71.408) scale(9.81224 53.7337)">
<stop stop-color="#FFAB8B"/>
<stop offset="1" stop-color="#FFDA92" stop-opacity="0.35"/>
</radialGradient>
<radialGradient id="paint15_radial" cx="0" cy="0" r="1" gradientUnits="userSpaceOnUse" gradientTransform="translate(338.604 64.9986) rotate(71.408) scale(9.81224 53.7337)">
<stop stop-color="#FFDA92"/>
<stop offset="1" stop-color="#FFDA92" stop-opacity="0"/>
</radialGradient>
<radialGradient id="paint16_radial" cx="0" cy="0" r="1" gradientUnits="userSpaceOnUse" gradientTransform="translate(71.702 97.3692) rotate(4.73851) scale(9.81224 53.7337)">
<stop stop-color="#FFDA92"/>
<stop offset="1" stop-color="#FFDA92" stop-opacity="0"/>
</radialGradient>
<linearGradient id="paint17_linear" x1="146.872" y1="22.3579" x2="326.287" y2="86.8452" gradientUnits="userSpaceOnUse">
<stop stop-color="#FFAB8B"/>
<stop offset="1" stop-color="#FFAB8B" stop-opacity="0"/>
</linearGradient>
<linearGradient id="paint18_linear" x1="369.966" y1="102.169" x2="243.821" y2="89.4862" gradientUnits="userSpaceOnUse">
<stop stop-color="#FFAB8B" stop-opacity="0.1"/>
<stop offset="0.473543" stop-color="#FFAB8B" stop-opacity="0.38"/>
<stop offset="0.671875" stop-color="#FFAB8B" stop-opacity="0"/>
</linearGradient>
<linearGradient id="paint19_linear" x1="110.959" y1="33.5255" x2="186.547" y2="52.4409" gradientUnits="userSpaceOnUse">
<stop stop-color="#FFAB8B"/>
<stop offset="1" stop-color="#FFAB8B" stop-opacity="0"/>
</linearGradient>
</defs>
</svg>
