<svg width="76" height="77" viewBox="0 0 76 77" fill="none" xmlns="http://www.w3.org/2000/svg">
<rect y="0.274414" width="76" height="76" rx="6" fill="#FFF2EC"/>
<path fill-rule="evenodd" clip-rule="evenodd" d="M49.6474 35.9438C53.4179 32.2856 51.5093 24.5028 51.5093 24.5028C51.5093 24.5028 43.4875 22.6511 39.717 26.3093C38.9556 27.048 38.4023 27.9549 38.004 28.932C37.7525 28.5081 37.4502 28.1138 37.0883 27.7628C33.7742 24.5474 26.7234 26.175 26.7234 26.175C26.7234 26.175 25.0458 33.0158 28.36 36.2312C30.4848 38.2927 34.1455 38.3635 36.4993 38.1488V43.3599C33.9115 44.0062 31.9993 46.2853 31.9993 48.9978C31.9993 52.2128 34.6856 54.8191 37.9993 54.8191C41.313 54.8191 43.9993 52.2128 43.9993 48.9978C43.9993 46.2853 42.0872 44.0062 39.4993 43.3599V38.08C42.3092 38.3715 47.0893 38.4257 49.6474 35.9438ZM47.526 33.8857C46.5492 34.8334 44.5537 35.3137 42.0555 35.3083C41.3401 35.3067 40.6589 35.2657 40.0599 35.2097C40.044 34.7094 40.0453 34.1505 40.079 33.564C40.2076 31.3312 40.7686 29.4053 41.8383 28.3674C42.8368 27.3987 44.7249 26.9396 47.02 26.9449C47.693 26.9464 48.3315 26.9878 48.89 27.0441C48.948 27.586 48.9907 28.2054 48.9923 28.8584C48.9977 31.0851 48.5245 32.917 47.526 33.8857ZM34.967 29.8209C35.7372 30.5682 36.1541 32.0539 36.1494 33.9898C36.1483 34.4384 36.1246 34.869 36.0896 35.2622C35.6844 35.2962 35.2405 35.3192 34.7782 35.3202C32.7829 35.3248 31.2515 34.9203 30.4813 34.173C29.711 33.4258 29.2942 31.94 29.2989 30.0041C29.3 29.5556 29.3237 29.1249 29.3587 28.7318C29.7639 28.6978 30.2078 28.6748 30.6701 28.6737C32.6654 28.6692 34.1968 29.0736 34.967 29.8209ZM37.9993 51.9085C39.6562 51.9085 40.9993 50.6053 40.9993 48.9978C40.9993 47.3903 39.6562 46.0872 37.9993 46.0872C36.3425 46.0872 34.9993 47.3903 34.9993 48.9978C34.9993 50.6053 36.3425 51.9085 37.9993 51.9085Z" fill="#FF7733"/>
</svg>
