<svg width="24" height="24" viewBox="0 0 24 24" fill="none" xmlns="http://www.w3.org/2000/svg">
<path fill-rule="evenodd" clip-rule="evenodd" d="M13.8063 4.06945C14.4657 3.38742 15.5048 3.24173 16.3264 3.71609L17.1114 4.16934C17.933 4.6437 18.3264 5.61636 18.0655 6.52849L18.0501 6.58218C17.8765 7.18895 18.0212 7.83654 18.3361 8.3835V8.3835C18.6512 8.93099 19.1369 9.37404 19.7497 9.52725L19.8047 9.541C20.7251 9.7711 21.3708 10.5981 21.3708 11.5468L21.3708 12.4533C21.3708 13.402 20.7251 14.229 19.8047 14.4591L19.7496 14.4728C19.1371 14.626 18.6495 15.0714 18.3338 15.6182V15.6182V15.6182C18.0181 16.165 17.8761 16.8101 18.0498 17.4172L18.0653 17.4716C18.3263 18.3837 17.9329 19.3564 17.1113 19.8308L16.3263 20.284C15.5046 20.7584 14.4656 20.6127 13.8062 19.9306L13.7668 19.8899C13.3277 19.4358 12.7012 19.2368 12.0695 19.2376V19.2376C11.4384 19.2384 10.8052 19.4369 10.3665 19.8906L10.3277 19.9307C9.66821 20.6128 8.62919 20.7584 7.80758 20.2841L7.02253 19.8308C6.20091 19.3565 5.80757 18.3838 6.0685 17.4717L6.0838 17.4182C6.25739 16.8113 6.11266 16.1637 5.79778 15.6167V15.6167C5.48259 15.0691 4.99694 14.626 4.38403 14.4728L4.32913 14.4591C3.40874 14.229 2.76306 13.402 2.76306 12.4533L2.76306 11.5468C2.76306 10.5981 3.40874 9.7711 4.32913 9.541L4.38421 9.52723C4.99674 9.3741 5.48438 8.92868 5.80007 8.38188V8.38188V8.38188C6.11574 7.83512 6.25766 7.19014 6.08402 6.58313L6.06837 6.52841C5.80744 5.61628 6.20078 4.64361 7.0224 4.16925L7.80745 3.716C8.62907 3.24165 9.66809 3.38734 10.3276 4.06937L10.3669 4.1101C10.8061 4.56428 11.4326 4.76332 12.0644 4.76252V4.76252C12.6956 4.76171 13.3289 4.56321 13.7676 4.10946L13.8063 4.06945Z" stroke="#293858" stroke-width="2"/>
<path d="M15 12C15 13.6569 13.6569 15 12 15C10.3431 15 9 13.6569 9 12C9 10.3431 10.3431 9 12 9C13.6569 9 15 10.3431 15 12Z" stroke="#293858" stroke-width="2" stroke-linecap="round" stroke-linejoin="round"/>
</svg>
